<svg width="30" height="30" viewBox="0 0 30 30" fill="none" xmlns="http://www.w3.org/2000/svg">
<rect x="0.5" y="0.5" width="29" height="29" rx="7.5" stroke="black" stroke-opacity="0.05"/>
<path fill-rule="evenodd" clip-rule="evenodd" d="M9.5625 13.5647C9.04473 13.5647 8.625 13.145 8.625 12.6272C8.625 12.1094 9.04473 11.6897 9.5625 11.6897H21.1875C21.7053 11.6897 22.125 12.1094 22.125 12.6272C22.125 13.145 21.7053 13.5647 21.1875 13.5647H9.5625Z" fill="#564DE2"/>
<path fill-rule="evenodd" clip-rule="evenodd" d="M8.8125 18.0648C8.29473 18.0648 7.875 17.645 7.875 17.1273C7.875 16.6095 8.29473 16.1898 8.8125 16.1898H20.4375C20.9553 16.1898 21.375 16.6095 21.375 17.1273C21.375 17.645 20.9553 18.0648 20.4375 18.0648H8.8125Z" fill="#564DE2"/>
<path fill-rule="evenodd" clip-rule="evenodd" d="M12.5404 8.89825C12.6241 8.39331 13.098 8.04288 13.6052 8.11092C14.1242 8.18055 14.4794 8.6611 14.3937 9.17788L12.496 20.6284C12.4124 21.1334 11.9385 21.4838 11.4313 21.4158C10.9122 21.3461 10.5571 20.8656 10.6427 20.3488L12.5404 8.89825Z" fill="#564DE2"/>
<path fill-rule="evenodd" clip-rule="evenodd" d="M17.812 8.8087C17.8918 8.29995 18.3678 7.94484 18.8782 8.0133C19.3942 8.08252 19.7488 8.55802 19.6681 9.07239L17.7544 21.2706C17.6746 21.7793 17.1986 22.1345 16.6883 22.066C16.1723 21.9968 15.8176 21.5213 15.8983 21.0069L17.812 8.8087Z" fill="#564DE2"/>
</svg>
