<svg width="343" height="200" viewBox="0 0 343 200" fill="none" xmlns="http://www.w3.org/2000/svg">
<g clip-path="url(#clip0)">
<path d="M0 0H343V200H0V0Z" fill="#A0EAED"/>
<mask id="mask0" mask-type="alpha" maskUnits="userSpaceOnUse" x="0" y="0" width="343" height="200">
<path d="M0 0H343V200H0V0Z" fill="#564DE2"/>
</mask>
<g mask="url(#mask0)">
<mask id="mask1" mask-type="alpha" maskUnits="userSpaceOnUse" x="45" y="62" width="252" height="110">
<rect x="45" y="62" width="252" height="110" rx="10" fill="#566163"/>
</mask>
<g mask="url(#mask1)">
<rect x="45" y="62" width="252" height="110" rx="10" fill="#566163"/>
<g filter="url(#filter0_d)">
<mask id="mask2" mask-type="alpha" maskUnits="userSpaceOnUse" x="195" y="83" width="112" height="131">
<path d="M305.804 152.525C309.002 182.888 286.981 210.095 256.617 213.293C226.254 216.491 199.048 194.469 195.85 164.106C192.651 133.743 212.614 86.9887 242.977 83.7907C273.34 80.5926 302.606 122.162 305.804 152.525Z" fill="#FFF1EB"/>
</mask>
<g mask="url(#mask2)">
<path d="M305.804 152.525C309.002 182.888 286.981 210.095 256.617 213.293C226.254 216.491 199.048 194.469 195.85 164.106C192.651 133.743 212.614 86.9887 242.977 83.7907C273.34 80.5926 302.606 122.162 305.804 152.525Z" fill="#F9DFD3"/>
<path d="M254.395 76.4256C282.112 89.2291 294.201 122.077 281.398 149.794C268.594 177.511 235.746 189.6 208.029 176.797C180.313 163.993 150.379 122.902 163.183 95.1856C175.986 67.4689 226.678 63.6221 254.395 76.4256Z" fill="#FFF1EB"/>
<circle cx="217.686" cy="124.362" r="2.86167" transform="rotate(-6.01265 217.686 124.362)" fill="#2C3033"/>
<circle cx="253.26" cy="120.615" r="2.86167" transform="rotate(-6.01265 253.26 120.615)" fill="#2C3033"/>
<mask id="mask3" mask-type="alpha" maskUnits="userSpaceOnUse" x="226" y="120" width="18" height="13">
<path d="M243.55 124.042C243.991 128.23 240.526 132.027 235.811 132.524C231.096 133.02 226.916 130.028 226.474 125.841C226.033 121.653 229.898 121.647 234.613 121.15C239.328 120.653 243.109 119.854 243.55 124.042Z" fill="#FA8282"/>
</mask>
<g mask="url(#mask3)">
<path d="M243.55 124.042C243.991 128.23 240.526 132.027 235.811 132.524C231.096 133.02 226.916 130.028 226.474 125.841C226.033 121.653 229.898 121.647 234.613 121.15C239.328 120.653 243.109 119.854 243.55 124.042Z" fill="#FF718B"/>
<path d="M242.137 118.433C242.413 121.051 241.544 123.287 240.197 123.429C238.85 123.571 237.534 121.564 237.258 118.947C236.983 116.33 238.101 116.463 239.448 116.321C240.795 116.179 241.861 115.816 242.137 118.433Z" fill="white"/>
</g>
</g>
</g>
<g filter="url(#filter1_d)">
<path d="M154.5 182.5C196.5 159 149.109 148.5 131 123C100.86 80.5573 47.7059 79.1363 22.4637 93.8099C-2.77855 108.483 -38.8386 162.408 7.90985 187.627C54.6583 212.847 118.247 202.784 154.5 182.5Z" fill="white"/>
</g>
<mask id="mask4" mask-type="alpha" maskUnits="userSpaceOnUse" x="23" y="94" width="106" height="106">
<path d="M95.6734 180.283C114.001 169.629 120.157 146.022 109.422 127.555C98.6869 109.088 75.1268 102.755 56.7989 113.409C38.4709 124.064 32.3156 147.671 43.0505 166.137C53.7853 184.604 77.3454 190.937 95.6734 180.283Z" fill="#FFCF3C"/>
</mask>
<g mask="url(#mask4)">
<path d="M95.5741 180.341C113.934 169.741 120.159 146.152 109.479 127.654C98.7988 109.155 75.2576 102.752 56.8981 113.352C38.5387 123.952 32.3133 147.54 42.9934 166.039C53.6734 184.537 77.2146 190.94 95.5741 180.341Z" fill="#FFC102"/>
<path d="M81.4803 167.877C96.6291 159.07 101.717 139.558 92.8439 124.295C83.9711 109.031 64.4979 103.797 49.3491 112.603C34.2004 121.409 29.1127 140.921 37.9855 156.185C46.8583 171.448 66.3316 176.683 81.4803 167.877Z" fill="#FFCF3B"/>
<path d="M79.2399 130.857C80.4406 131.12 81.6266 130.352 81.8891 129.142C82.1516 127.932 81.3911 126.739 80.1905 126.476C78.9899 126.213 77.8038 126.981 77.5413 128.191C77.2788 129.401 78.0393 130.594 79.2399 130.857Z" fill="#1F2020"/>
<path d="M98.9221 135.484C100.123 135.747 101.309 134.979 101.571 133.769C101.834 132.559 101.073 131.365 99.8727 131.103C98.6721 130.84 97.486 131.608 97.2235 132.817C96.961 134.027 97.7215 135.221 98.9221 135.484Z" fill="#1F2020"/>
<path d="M86.8391 130.729C86.8391 130.729 88.5043 133.045 92.1733 132.13" stroke="#1F2020" stroke-width="4" stroke-miterlimit="10" stroke-linecap="round" stroke-linejoin="round"/>
<path d="M56.1248 124.437C55.002 123.98 54.4665 122.693 54.9287 121.563C55.3909 120.433 56.6758 119.887 57.7986 120.344C58.9214 120.801 59.457 122.087 58.9948 123.218C58.5325 124.348 57.2476 124.894 56.1248 124.437Z" fill="white"/>
<path d="M52.3985 126.501C49.4353 128.406 47.742 133.486 47.3187 136.449" stroke="white" stroke-width="5" stroke-linecap="round" stroke-linejoin="round"/>
</g>
</g>
<rect x="45" y="62" width="252" height="110" rx="10" stroke="#8AE2E6" stroke-width="10"/>
<path d="M0 0H34V67C34 76.3888 26.3888 84 17 84C7.61116 84 0 76.3888 0 67V0Z" fill="white"/>
<path d="M34 0H69V66.5C69 76.165 61.165 84 51.5 84C41.835 84 34 76.165 34 66.5V0Z" fill="#564DE2"/>
<path d="M69 0H103V67C103 76.3888 95.3888 84 86 84C76.6112 84 69 76.3888 69 67V0Z" fill="white"/>
<path d="M103 0H137V67C137 76.3888 129.389 84 120 84C110.611 84 103 76.3888 103 67V0Z" fill="#564DE2"/>
<path d="M137 0H172V66.5C172 76.165 164.165 84 154.5 84C144.835 84 137 76.165 137 66.5V0Z" fill="white"/>
<path d="M172 0H206V67C206 76.3888 198.389 84 189 84C179.611 84 172 76.3888 172 67V0Z" fill="#564DE2"/>
<path d="M206 0H240V67C240 76.3888 232.389 84 223 84C213.611 84 206 76.3888 206 67V0Z" fill="white"/>
<path d="M240 0H274V67C274 76.3888 266.389 84 257 84C247.611 84 240 76.3888 240 67V0Z" fill="#564DE2"/>
<path d="M274 0H309V66.5C309 76.165 301.165 84 291.5 84C281.835 84 274 76.165 274 66.5V0Z" fill="white"/>
<path d="M309 0H343V67C343 76.3888 335.389 84 326 84C316.611 84 309 76.3888 309 67V0Z" fill="#564DE2"/>
<rect width="343" height="56.3684" fill="url(#paint0_linear)"/>
<circle cx="170.797" cy="69.3532" r="47.5" transform="rotate(-4.88365 170.797 69.3532)" fill="#594343"/>
<circle cx="170.371" cy="64.3714" r="47.5" transform="rotate(-4.88365 170.371 64.3714)" fill="#6F4A4A"/>
<circle cx="170.371" cy="64.3715" r="37.5" transform="rotate(-4.88365 170.371 64.3715)" fill="#896868"/>
<mask id="path-37-outside-1" maskUnits="userSpaceOnUse" x="131.152" y="27.3748" width="84.5022" height="74.4786" fill="black">
<rect fill="white" x="131.152" y="27.3748" width="84.5022" height="74.4786"/>
<path fill-rule="evenodd" clip-rule="evenodd" d="M177.389 45.2621C174.167 43.0411 168.335 38.4565 172.189 34.6468C174.443 32.4184 177.401 34.9244 179.138 37.6979C179.657 38.527 181.323 38.5631 181.806 37.7125C183.836 34.1368 187.133 30.6008 189.774 33.1442C192.799 36.0558 188.513 41.011 185.253 44.2008C184.615 44.8247 184.451 45.7844 184.776 46.6155C186.496 51.0229 187.693 58.8271 184.286 59.6142C179.52 60.7154 178.995 54.8198 178.516 49.4402C178.429 48.4735 178.345 47.5234 178.237 46.6335C178.17 46.0735 177.854 45.5823 177.389 45.2621ZM140.202 72.9158C142.47 66.044 151.243 65.6261 155.038 67.9461C158.833 70.2662 158.472 75.0567 155.711 75.8215C154.567 76.1383 153.684 75.6904 152.813 75.2492C151.935 74.8042 151.07 74.366 149.965 74.7259C147.298 75.5951 151.446 78.8302 155.037 81.1676C160.65 84.8208 159.728 92.9128 153.443 95.5829C142.535 100.217 139.483 90.9583 140.425 88.7623C141.18 87.0055 143.478 84.7995 146.418 86.1348C147.443 87.105 149.777 87.9632 150.346 85.7992C151.004 83.296 148.767 82.9731 145.871 82.555L145.543 82.5077C142.491 82.0633 138.406 78.3578 140.202 72.9158ZM161.591 70.1397C156.865 72.7828 161.274 86.6119 163.251 89.5626C165.228 92.5134 166.521 93.7342 168.29 93.0316C169.955 92.3705 169.384 90.6708 168.807 88.9529C168.227 87.2277 167.642 85.484 169.308 84.7555C170.242 84.3473 170.591 85.6504 170.988 87.1353C171.42 88.7456 171.908 90.5698 173.262 90.657C175.863 90.8247 177.64 86.3833 174.114 80.4453C171.989 76.867 169.16 77.8332 167.176 79.4781C166.497 80.0412 165.369 79.7175 165.291 78.8386C165.268 78.5811 165.246 78.3177 165.223 78.0505L165.223 78.0498L165.222 78.0491C164.858 73.7981 164.409 68.5639 161.591 70.1397ZM159.197 40.7571C155.325 36.5513 140.3 43.3551 137.332 49.149C134.793 54.1048 139.856 54.3429 144.902 51.4943C146.154 50.787 147.841 51.3416 148.244 52.7227C150.295 59.756 153.524 68.4153 157.795 65.4661C160.525 63.5807 157.513 55.4997 154.59 50.519C153.836 49.2338 154.49 47.3777 155.799 46.6658C158.619 45.1322 160.879 42.5846 159.197 40.7571ZM177.191 52.2468C177.614 57.1993 173.942 61.5572 168.989 61.9803C164.037 62.4035 159.679 58.7317 159.256 53.7792C158.833 48.8267 162.504 44.4688 167.457 44.0457C172.41 43.6225 176.767 47.2943 177.191 52.2468ZM171.538 52.1652C171.67 53.7129 170.523 55.0747 168.975 55.207C167.428 55.3392 166.066 54.1918 165.933 52.6441C165.801 51.0964 166.949 49.7346 168.496 49.6024C170.044 49.4701 171.406 50.6176 171.538 52.1652ZM183.572 85.8254C187.699 85.4728 190.759 81.8412 190.407 77.7141C190.054 73.5871 186.422 70.5272 182.295 70.8799C178.168 71.2325 175.108 74.864 175.461 78.9911C175.814 83.1182 179.445 86.178 183.572 85.8254ZM183.56 80.1809C184.85 80.0707 185.806 78.9359 185.696 77.6462C185.586 76.3564 184.451 75.4003 183.161 75.5104C181.872 75.6206 180.916 76.7555 181.026 78.0452C181.136 79.3349 182.271 80.2911 183.56 80.1809ZM191.872 57.869C184.189 65.9126 194.044 77.0113 197.47 79.403C200.896 81.7946 207.464 85.0558 209.345 82C210.756 79.7087 207.95 77.9214 205.118 76.1184L205.118 76.1178C204.842 75.9424 204.566 75.7667 204.294 75.5905C202.925 74.7035 203.513 72.8043 204.932 71.9989C207.147 70.7416 209.102 68.4421 209.345 64.8381C209.901 56.6092 199.264 50.1299 191.872 57.869ZM202.813 63.7856C202.989 65.8461 201.461 67.6592 199.401 67.8353C197.34 68.0113 195.527 66.4837 195.351 64.4231C195.175 62.3626 196.703 60.5495 198.763 60.3734C200.824 60.1974 202.637 61.725 202.813 63.7856Z"/>
</mask>
<path fill-rule="evenodd" clip-rule="evenodd" d="M177.389 45.2621C174.167 43.0411 168.335 38.4565 172.189 34.6468C174.443 32.4184 177.401 34.9244 179.138 37.6979C179.657 38.527 181.323 38.5631 181.806 37.7125C183.836 34.1368 187.133 30.6008 189.774 33.1442C192.799 36.0558 188.513 41.011 185.253 44.2008C184.615 44.8247 184.451 45.7844 184.776 46.6155C186.496 51.0229 187.693 58.8271 184.286 59.6142C179.52 60.7154 178.995 54.8198 178.516 49.4402C178.429 48.4735 178.345 47.5234 178.237 46.6335C178.17 46.0735 177.854 45.5823 177.389 45.2621ZM140.202 72.9158C142.47 66.044 151.243 65.6261 155.038 67.9461C158.833 70.2662 158.472 75.0567 155.711 75.8215C154.567 76.1383 153.684 75.6904 152.813 75.2492C151.935 74.8042 151.07 74.366 149.965 74.7259C147.298 75.5951 151.446 78.8302 155.037 81.1676C160.65 84.8208 159.728 92.9128 153.443 95.5829C142.535 100.217 139.483 90.9583 140.425 88.7623C141.18 87.0055 143.478 84.7995 146.418 86.1348C147.443 87.105 149.777 87.9632 150.346 85.7992C151.004 83.296 148.767 82.9731 145.871 82.555L145.543 82.5077C142.491 82.0633 138.406 78.3578 140.202 72.9158ZM161.591 70.1397C156.865 72.7828 161.274 86.6119 163.251 89.5626C165.228 92.5134 166.521 93.7342 168.29 93.0316C169.955 92.3705 169.384 90.6708 168.807 88.9529C168.227 87.2277 167.642 85.484 169.308 84.7555C170.242 84.3473 170.591 85.6504 170.988 87.1353C171.42 88.7456 171.908 90.5698 173.262 90.657C175.863 90.8247 177.64 86.3833 174.114 80.4453C171.989 76.867 169.16 77.8332 167.176 79.4781C166.497 80.0412 165.369 79.7175 165.291 78.8386C165.268 78.5811 165.246 78.3177 165.223 78.0505L165.223 78.0498L165.222 78.0491C164.858 73.7981 164.409 68.5639 161.591 70.1397ZM159.197 40.7571C155.325 36.5513 140.3 43.3551 137.332 49.149C134.793 54.1048 139.856 54.3429 144.902 51.4943C146.154 50.787 147.841 51.3416 148.244 52.7227C150.295 59.756 153.524 68.4153 157.795 65.4661C160.525 63.5807 157.513 55.4997 154.59 50.519C153.836 49.2338 154.49 47.3777 155.799 46.6658C158.619 45.1322 160.879 42.5846 159.197 40.7571ZM177.191 52.2468C177.614 57.1993 173.942 61.5572 168.989 61.9803C164.037 62.4035 159.679 58.7317 159.256 53.7792C158.833 48.8267 162.504 44.4688 167.457 44.0457C172.41 43.6225 176.767 47.2943 177.191 52.2468ZM171.538 52.1652C171.67 53.7129 170.523 55.0747 168.975 55.207C167.428 55.3392 166.066 54.1918 165.933 52.6441C165.801 51.0964 166.949 49.7346 168.496 49.6024C170.044 49.4701 171.406 50.6176 171.538 52.1652ZM183.572 85.8254C187.699 85.4728 190.759 81.8412 190.407 77.7141C190.054 73.5871 186.422 70.5272 182.295 70.8799C178.168 71.2325 175.108 74.864 175.461 78.9911C175.814 83.1182 179.445 86.178 183.572 85.8254ZM183.56 80.1809C184.85 80.0707 185.806 78.9359 185.696 77.6462C185.586 76.3564 184.451 75.4003 183.161 75.5104C181.872 75.6206 180.916 76.7555 181.026 78.0452C181.136 79.3349 182.271 80.2911 183.56 80.1809ZM191.872 57.869C184.189 65.9126 194.044 77.0113 197.47 79.403C200.896 81.7946 207.464 85.0558 209.345 82C210.756 79.7087 207.95 77.9214 205.118 76.1184L205.118 76.1178C204.842 75.9424 204.566 75.7667 204.294 75.5905C202.925 74.7035 203.513 72.8043 204.932 71.9989C207.147 70.7416 209.102 68.4421 209.345 64.8381C209.901 56.6092 199.264 50.1299 191.872 57.869ZM202.813 63.7856C202.989 65.8461 201.461 67.6592 199.401 67.8353C197.34 68.0113 195.527 66.4837 195.351 64.4231C195.175 62.3626 196.703 60.5495 198.763 60.3734C200.824 60.1974 202.637 61.725 202.813 63.7856Z" fill="white"/>
<path d="M172.189 34.6468L170.08 32.5134L170.08 32.5134L172.189 34.6468ZM177.389 45.2621L175.687 47.7322L175.687 47.7322L177.389 45.2621ZM179.138 37.6979L181.681 36.106L181.681 36.106L179.138 37.6979ZM181.806 37.7125L179.197 36.2313L179.197 36.2313L181.806 37.7125ZM189.774 33.1442L191.855 30.983L191.855 30.983L189.774 33.1442ZM185.253 44.2008L187.351 46.345L187.351 46.345L185.253 44.2008ZM184.776 46.6155L181.981 47.7062L181.981 47.7062L184.776 46.6155ZM184.286 59.6142L183.611 56.6912L184.286 59.6142ZM178.516 49.4402L175.527 49.7063L175.527 49.7063L178.516 49.4402ZM178.237 46.6335L181.216 46.2738L181.216 46.2738L178.237 46.6335ZM155.038 67.9461L153.473 70.5057L153.473 70.5057L155.038 67.9461ZM140.202 72.9158L143.051 73.8559L143.051 73.8559L140.202 72.9158ZM155.711 75.8215L156.512 78.7126L155.711 75.8215ZM152.813 75.2492L154.169 72.5732L154.169 72.5732L152.813 75.2492ZM149.965 74.7259L149.036 71.8735L149.036 71.8735L149.965 74.7259ZM155.037 81.1676L156.674 78.6533L156.674 78.6533L155.037 81.1676ZM153.443 95.5829L154.616 98.344L154.616 98.344L153.443 95.5829ZM140.425 88.7623L143.182 89.9458L143.182 89.9458L140.425 88.7623ZM146.418 86.1348L148.481 83.9561L148.116 83.611L147.659 83.4034L146.418 86.1348ZM150.346 85.7992L153.248 86.5618L150.346 85.7992ZM145.871 82.555L145.441 85.5241L145.442 85.5243L145.871 82.555ZM145.543 82.5077L145.111 85.4764L145.113 85.4767L145.543 82.5077ZM163.251 89.5626L160.758 91.2325L160.758 91.2325L163.251 89.5626ZM161.591 70.1397L163.055 72.7581L163.055 72.7581L161.591 70.1397ZM168.29 93.0316L169.397 95.8198L169.397 95.8198L168.29 93.0316ZM168.807 88.9529L165.963 89.9082L165.963 89.9082L168.807 88.9529ZM169.308 84.7555L168.106 82.0068L168.106 82.0068L169.308 84.7555ZM170.988 87.1353L173.886 86.3591L170.988 87.1353ZM173.262 90.657L173.455 87.6632L173.262 90.657ZM174.114 80.4453L176.694 78.9137L176.694 78.9137L174.114 80.4453ZM167.176 79.4781L169.09 81.7877L167.176 79.4781ZM165.291 78.8386L168.279 78.5737L168.279 78.5737L165.291 78.8386ZM165.223 78.0505L162.233 78.3059L162.234 78.3068L165.223 78.0505ZM165.223 78.0498L162.233 78.3052L165.223 78.0498ZM165.222 78.0491L168.212 77.7937L168.211 77.7927L165.222 78.0491ZM137.332 49.149L134.662 47.7812L134.662 47.7812L137.332 49.149ZM159.197 40.7571L156.99 42.789L156.99 42.789L159.197 40.7571ZM144.902 51.4943L143.427 48.8818L143.427 48.8818L144.902 51.4943ZM148.244 52.7227L145.364 53.5625L145.364 53.5625L148.244 52.7227ZM157.795 65.4661L159.5 67.9347L157.795 65.4661ZM154.59 50.519L157.177 49.0005L157.177 49.0005L154.59 50.519ZM155.799 46.6658L157.232 49.3013L157.232 49.3013L155.799 46.6658ZM197.47 79.403L199.187 76.9431L199.187 76.9431L197.47 79.403ZM191.872 57.869L189.702 55.7969L191.872 57.869ZM209.345 82L211.9 83.5728L211.9 83.5728L209.345 82ZM205.118 76.1184L203.482 78.633L203.495 78.6409L203.507 78.6488L205.118 76.1184ZM205.118 76.1178L206.754 73.6033L206.741 73.5953L206.729 73.5874L205.118 76.1178ZM204.294 75.5905L205.925 73.0725L205.925 73.0725L204.294 75.5905ZM204.932 71.9989L206.413 74.6078L206.413 74.6078L204.932 71.9989ZM209.345 64.8381L212.338 65.0402L212.338 65.0401L209.345 64.8381ZM170.08 32.5134C168.575 34.0011 167.819 35.8146 167.927 37.7655C168.027 39.5692 168.844 41.1228 169.708 42.3124C171.415 44.6645 174.062 46.6126 175.687 47.7322L179.092 42.792C177.494 41.6906 175.614 40.2359 174.564 38.788C174.048 38.0775 173.929 37.6319 173.918 37.4351C173.915 37.3856 173.876 37.1974 174.298 36.7803L170.08 32.5134ZM181.681 36.106C180.674 34.4984 179.174 32.717 177.325 31.6802C176.372 31.1458 175.167 30.7217 173.812 30.7982C172.391 30.8785 171.111 31.4936 170.08 32.5134L174.298 36.7803C174.393 36.6859 174.329 36.7786 174.15 36.7887C174.038 36.795 174.104 36.7529 174.39 36.9132C175.018 37.2656 175.865 38.1239 176.595 39.2899L181.681 36.106ZM179.197 36.2313C179.457 35.7733 179.817 35.5436 180.04 35.4444C180.256 35.3482 180.423 35.3342 180.521 35.3353C180.62 35.3365 180.761 35.3546 180.938 35.4344C181.114 35.5136 181.429 35.7044 181.681 36.106L176.595 39.2899C177.592 40.8828 179.322 41.3217 180.45 41.3349C181.565 41.3479 183.419 40.9476 184.415 39.1937L179.197 36.2313ZM191.855 30.983C190.67 29.8424 189.193 29.2173 187.575 29.2848C186.071 29.3475 184.788 29.9942 183.809 30.6985C181.885 32.0824 180.296 34.2963 179.197 36.2313L184.415 39.1937C185.347 37.5529 186.42 36.2111 187.313 35.5689C187.742 35.2601 187.905 35.2762 187.825 35.2796C187.632 35.2876 187.558 35.1743 187.694 35.3054L191.855 30.983ZM187.351 46.345C189.008 44.7243 191.171 42.4288 192.499 40.014C193.165 38.8024 193.754 37.329 193.801 35.7406C193.852 34.0217 193.257 32.3324 191.855 30.983L187.694 35.3054C187.804 35.4118 187.807 35.4337 187.804 35.5625C187.796 35.8218 187.676 36.3324 187.242 37.1224C186.368 38.7105 184.759 40.4875 183.155 42.0565L187.351 46.345ZM187.57 45.5248C187.64 45.7044 187.654 46.0483 187.351 46.345L183.155 42.0565C181.576 43.6011 181.262 45.8644 181.981 47.7062L187.57 45.5248ZM184.962 62.5372C187.113 62.0402 188.292 60.4206 188.853 58.9195C189.389 57.4826 189.502 55.8487 189.452 54.3705C189.35 51.3766 188.532 47.9887 187.57 45.5248L181.981 47.7062C182.739 49.6497 183.38 52.3677 183.455 54.5745C183.493 55.6966 183.375 56.4368 183.231 56.8222C183.111 57.1435 183.163 56.7947 183.611 56.6912L184.962 62.5372ZM175.527 49.7063C175.753 52.2415 176.021 55.5542 177 58.0519C177.507 59.3461 178.336 60.7865 179.784 61.7461C181.334 62.7736 183.142 62.9575 184.962 62.5372L183.611 56.6912C183.305 56.7618 183.151 56.7492 183.107 56.7431C183.085 56.74 183.081 56.7371 183.087 56.7396C183.09 56.7405 183.093 56.7418 183.095 56.7432C183.098 56.7447 183.099 56.7455 183.099 56.7451C183.092 56.7408 182.866 56.5776 182.586 55.8632C181.991 54.3434 181.757 52.0186 181.504 49.1741L175.527 49.7063ZM175.259 46.9933C175.36 47.8278 175.44 48.7294 175.527 49.7063L181.504 49.1741C181.419 48.2175 181.33 47.2189 181.216 46.2738L175.259 46.9933ZM175.687 47.7322C175.497 47.6017 175.302 47.3504 175.259 46.9933L181.216 46.2738C181.037 44.7966 180.21 43.5628 179.092 42.792L175.687 47.7322ZM156.603 65.3865C153.918 63.7453 149.946 63.2454 146.38 64.0592C142.682 64.903 138.897 67.2978 137.353 71.9756L143.051 73.8559C143.775 71.662 145.51 70.412 147.715 69.9088C150.051 69.3758 152.363 69.8269 153.473 70.5057L156.603 65.3865ZM156.512 78.7126C159.627 77.8496 160.893 74.8763 160.832 72.3933C160.768 69.7814 159.361 67.0725 156.603 65.3865L153.473 70.5057C154.511 71.1398 154.82 71.9862 154.834 72.5408C154.851 73.2242 154.556 73.0286 154.91 72.9304L156.512 78.7126ZM151.457 77.9253C152.237 78.3205 154.116 79.3764 156.512 78.7126L154.91 72.9304C154.902 72.9326 154.919 72.9277 154.949 72.9282C154.975 72.9287 154.977 72.9329 154.941 72.9231C154.899 72.9119 154.823 72.8865 154.69 72.8274C154.548 72.7647 154.398 72.6893 154.169 72.5732L151.457 77.9253ZM150.895 77.5783C150.883 77.5821 150.841 77.5925 150.784 77.5931C150.73 77.5936 150.703 77.5851 150.722 77.5899C150.747 77.5963 150.811 77.6162 150.94 77.6731C151.077 77.7336 151.225 77.8077 151.457 77.9253L154.169 72.5732C153.405 72.1861 151.463 71.0825 149.036 71.8735L150.895 77.5783ZM156.674 78.6533C154.893 77.4938 153.217 76.2619 152.326 75.3266C152.118 75.1083 152.013 74.9677 151.973 74.9048C151.917 74.8179 152.041 74.9714 152.094 75.3215C152.161 75.7649 152.088 76.4109 151.653 76.9794C151.466 77.2229 151.27 77.3741 151.133 77.4601C150.999 77.5437 150.907 77.5743 150.895 77.5783L149.036 71.8735C148.377 72.0882 147.525 72.5002 146.888 73.3333C146.183 74.2542 146.024 75.3138 146.161 76.2193C146.284 77.0315 146.633 77.6954 146.929 78.1546C147.241 78.638 147.614 79.0792 147.983 79.4657C149.397 80.9497 151.591 82.504 153.401 83.6819L156.674 78.6533ZM154.616 98.344C162.925 94.8142 164.467 83.7258 156.674 78.6533L153.401 83.6819C156.833 85.9157 156.531 91.0114 152.27 92.8217L154.616 98.344ZM137.669 87.5788C137.313 88.4086 137.246 89.2805 137.268 89.9718C137.292 90.7109 137.425 91.4868 137.649 92.2506C138.095 93.7703 138.963 95.4481 140.368 96.8545C141.803 98.2905 143.767 99.406 146.262 99.7524C148.729 100.095 151.518 99.6601 154.616 98.344L152.27 92.8217C149.914 93.8227 148.231 93.9683 147.087 93.8094C145.971 93.6545 145.186 93.187 144.612 92.6131C144.009 92.0097 143.609 91.2507 143.406 90.5616C143.307 90.221 143.271 89.9495 143.265 89.78C143.258 89.5629 143.303 89.665 143.182 89.9458L137.669 87.5788ZM147.659 83.4034C145.216 82.294 142.882 82.6534 141.091 83.6973C139.427 84.6674 138.264 86.1915 137.669 87.5788L143.182 89.9458C143.341 89.5763 143.704 89.119 144.113 88.8808C144.29 88.7776 144.439 88.7363 144.565 88.7271C144.68 88.7188 144.876 88.729 145.178 88.8663L147.659 83.4034ZM147.445 85.0367C147.444 85.041 147.466 84.9523 147.554 84.8193C147.647 84.6799 147.787 84.5277 147.979 84.4005C148.373 84.1396 148.72 84.1458 148.803 84.1527C148.876 84.1588 148.837 84.1672 148.71 84.1045C148.588 84.0446 148.503 83.9769 148.481 83.9561L144.356 88.3136C145.244 89.1538 146.695 89.9976 148.304 90.132C149.17 90.2042 150.271 90.0798 151.294 89.4015C152.347 88.7034 152.96 87.6562 153.248 86.5618L147.445 85.0367ZM145.442 85.5243C146.191 85.6324 146.771 85.7174 147.264 85.8215C147.773 85.9289 147.982 86.0171 148.033 86.0444C148.045 86.0506 147.746 85.8879 147.564 85.4517C147.392 85.0396 147.504 84.8104 147.445 85.0367L153.248 86.5618C153.517 85.5364 153.597 84.3281 153.1 83.1384C152.593 81.9245 151.676 81.1856 150.849 80.746C150.061 80.3274 149.209 80.1 148.504 79.9511C147.784 79.7988 146.998 79.6867 146.299 79.5858L145.442 85.5243ZM145.113 85.4767L145.441 85.5241L146.3 79.586L145.973 79.5386L145.113 85.4767ZM137.353 71.9756C136.144 75.6386 136.901 78.9137 138.607 81.3208C140.225 83.6033 142.715 85.1275 145.111 85.4764L145.975 79.5389C145.319 79.4434 144.24 78.8927 143.502 77.8509C142.852 76.9337 142.464 75.635 143.051 73.8559L137.353 71.9756ZM165.743 87.8928C165.465 87.4782 164.919 86.3514 164.322 84.6578C163.75 83.0327 163.206 81.0986 162.859 79.1972C162.505 77.2607 162.39 75.5358 162.554 74.2572C162.635 73.6278 162.77 73.2219 162.892 72.9854C162.949 72.874 162.995 72.8156 163.02 72.7894C163.041 72.7658 163.052 72.7601 163.055 72.7581L160.127 67.5214C157.707 68.8746 156.869 71.4245 156.603 73.4921C156.327 75.642 156.551 78.0543 156.956 80.2744C157.368 82.5295 158.001 84.7712 158.663 86.6515C159.302 88.4634 160.048 90.1717 160.758 91.2325L165.743 87.8928ZM167.183 90.2433C167.152 90.2558 167.28 90.2034 167.491 90.2359C167.685 90.2658 167.743 90.3368 167.634 90.2562C167.508 90.1633 167.282 89.9578 166.939 89.5413C166.602 89.1319 166.213 88.5939 165.743 87.8928L160.758 91.2325C161.739 92.6959 162.807 94.1481 164.063 95.078C164.746 95.5836 165.582 96.0126 166.578 96.166C167.59 96.3219 168.544 96.1586 169.397 95.8198L167.183 90.2433ZM165.963 89.9082C166.114 90.3576 166.224 90.6898 166.303 90.9884C166.341 91.1295 166.363 91.2361 166.376 91.3151C166.39 91.3949 166.389 91.4253 166.389 91.4167C166.389 91.403 166.389 91.1268 166.599 90.7862C166.826 90.4167 167.113 90.2711 167.183 90.2433L169.397 95.8198C170.3 95.4615 171.14 94.8556 171.71 93.9277C172.263 93.0288 172.396 92.0964 172.389 91.3604C172.377 90.0594 171.888 88.7029 171.651 87.9977L165.963 89.9082ZM168.106 82.0068C167.203 82.4015 166.392 83.0387 165.852 83.9677C165.33 84.8656 165.205 85.7875 165.216 86.5232C165.234 87.834 165.722 89.1915 165.963 89.9082L171.651 87.9977C171.499 87.547 171.387 87.2101 171.307 86.9049C171.269 86.7603 171.245 86.6488 171.23 86.5638C171.223 86.5223 171.219 86.4911 171.217 86.4692C171.215 86.4471 171.215 86.4371 171.215 86.4377C171.215 86.4383 171.215 86.4522 171.213 86.4776C171.211 86.5031 171.206 86.5419 171.195 86.5914C171.172 86.6936 171.127 86.833 171.038 86.9844C170.839 87.3277 170.579 87.4738 170.51 87.5042L168.106 82.0068ZM173.886 86.3591C173.726 85.7627 173.448 84.6426 172.977 83.7876C172.731 83.3418 172.226 82.5671 171.286 82.0811C170.17 81.5044 169.009 81.6122 168.106 82.0068L170.51 87.5042C170.328 87.5838 170.031 87.6776 169.648 87.6796C169.248 87.6817 168.864 87.5833 168.531 87.4115C168.217 87.2489 168.012 87.054 167.898 86.9257C167.787 86.7996 167.733 86.7039 167.722 86.6834C167.708 86.6584 167.748 86.7301 167.83 86.9889C167.909 87.2349 167.987 87.5242 168.091 87.9116L173.886 86.3591ZM173.455 87.6632C173.834 87.6877 174.154 87.8517 174.35 88.0198C174.502 88.15 174.514 88.2252 174.445 88.0902C174.38 87.9647 174.295 87.7585 174.193 87.4384C174.091 87.1198 173.997 86.7742 173.886 86.3591L168.091 87.9116C168.283 88.6292 168.59 89.8306 169.114 90.8444C169.637 91.8573 170.815 93.5055 173.069 93.6508L173.455 87.6632ZM171.535 81.977C173.041 84.5134 173.2 86.3776 173.033 87.311C172.842 88.3721 172.592 87.6076 173.455 87.6632L173.069 93.6508C176.533 93.8741 178.472 90.9727 178.939 88.3706C179.428 85.6407 178.713 82.3153 176.694 78.9137L171.535 81.977ZM169.09 81.7877C169.857 81.1519 170.391 81.003 170.592 81.003C170.636 81.003 170.68 81.0052 170.777 81.0683C170.899 81.1475 171.179 81.3779 171.535 81.977L176.694 78.9137C175.237 76.4598 173.13 75.0032 170.593 75.003C168.352 75.0027 166.479 76.1593 165.261 77.1684L169.09 81.7877ZM162.303 79.1034C162.467 80.9543 163.78 82.1366 165.094 82.5566C166.358 82.9607 167.895 82.7783 169.09 81.7877L165.261 77.1684C165.777 76.7409 166.41 76.6782 166.921 76.8416C167.482 77.0208 168.193 77.6018 168.279 78.5737L162.303 79.1034ZM162.234 78.3068C162.256 78.5733 162.279 78.8409 162.303 79.1034L168.279 78.5737C168.257 78.3212 168.235 78.0621 168.212 77.7941L162.234 78.3068ZM162.233 78.3052L162.233 78.3059L168.212 77.7951L168.212 77.7944L162.233 78.3052ZM162.233 78.3045L162.233 78.3052L168.212 77.7944L168.212 77.7937L162.233 78.3045ZM163.055 72.7581C163.097 72.7346 162.906 72.8536 162.535 72.8528C162.116 72.8519 161.742 72.6992 161.487 72.5065C161.143 72.2459 161.245 72.1015 161.462 72.7988C161.854 74.0615 162.041 76.0571 162.233 78.3055L168.211 77.7927C168.04 75.7901 167.82 73.0432 167.192 71.0199C166.898 70.0743 166.338 68.6511 165.105 67.7195C164.406 67.1913 163.532 66.8549 162.548 66.8528C161.611 66.8508 160.789 67.1509 160.127 67.5214L163.055 72.7581ZM140.002 50.5168C140.434 49.6726 141.5 48.4932 143.233 47.2191C144.907 45.9884 146.968 44.842 149.068 43.9771C151.187 43.1039 153.194 42.5801 154.769 42.4722C156.48 42.3551 156.962 42.7593 156.99 42.789L161.404 38.7251C159.495 36.6519 156.647 36.3295 154.359 36.4863C151.935 36.6523 149.274 37.403 146.782 38.4293C144.271 39.4638 141.777 40.8419 139.679 42.385C137.639 43.8847 135.713 45.7285 134.662 47.7812L140.002 50.5168ZM143.427 48.8818C142.357 49.4855 141.333 49.8983 140.47 50.1251C139.559 50.3646 139.037 50.3425 138.873 50.3091C138.814 50.297 138.944 50.3111 139.137 50.4632C139.36 50.6388 139.535 50.8966 139.614 51.1681C139.738 51.5943 139.492 51.5123 140.002 50.5168L134.662 47.7812C133.902 49.2636 133.336 51.0698 133.854 52.8455C134.456 54.9138 136.168 55.8801 137.671 56.1875C139.087 56.477 140.618 56.29 141.996 55.9279C143.422 55.553 144.923 54.9274 146.376 54.1067L143.427 48.8818ZM151.124 51.8829C150.099 48.3672 146.101 47.3719 143.427 48.8818L146.376 54.1067C146.206 54.2028 146.033 54.204 145.889 54.1529C145.725 54.0949 145.466 53.9104 145.364 53.5625L151.124 51.8829ZM156.09 62.9975C155.918 63.1169 155.914 63.0686 156.053 63.0598C156.198 63.0506 156.271 63.0986 156.219 63.0707C156.003 62.9535 155.476 62.494 154.763 61.2998C153.382 58.9874 152.149 55.3987 151.124 51.8829L145.364 53.5625C146.39 57.08 147.797 61.3376 149.611 64.3759C150.496 65.857 151.706 67.449 153.36 68.3457C154.244 68.8247 155.285 69.1204 156.432 69.0478C157.573 68.9755 158.605 68.5526 159.5 67.9347L156.09 62.9975ZM152.003 52.0375C153.362 54.3531 154.724 57.3708 155.416 59.9352C155.767 61.2333 155.894 62.2307 155.861 62.8835C155.825 63.5958 155.649 63.3025 156.09 62.9975L159.5 67.9347C161.307 66.6869 161.778 64.6765 161.853 63.1877C161.932 61.6394 161.636 59.9518 161.209 58.3713C160.347 55.1787 158.741 51.6655 157.177 49.0005L152.003 52.0375ZM154.366 44.0303C152.954 44.7982 152.008 46.101 151.569 47.4468C151.128 48.7967 151.103 50.5048 152.003 52.0375L157.177 49.0005C157.248 49.1205 157.267 49.2237 157.27 49.2761C157.273 49.3235 157.265 49.3318 157.273 49.308C157.28 49.2845 157.293 49.2633 157.301 49.253C157.309 49.2432 157.292 49.2686 157.232 49.3013L154.366 44.0303ZM156.99 42.789C156.899 42.6908 156.763 42.4312 156.774 42.1241C156.782 41.9116 156.853 41.9139 156.693 42.1534C156.353 42.6615 155.536 43.3941 154.366 44.0303L157.232 49.3013C158.882 48.4039 160.605 47.0959 161.68 45.4899C162.227 44.6724 162.723 43.5993 162.77 42.3473C162.82 41.0005 162.335 39.7371 161.404 38.7251L156.99 42.789ZM169.245 64.9694C175.848 64.4052 180.744 58.5948 180.18 51.9914L174.201 52.5022C174.484 55.8039 172.036 58.7091 168.734 58.9912L169.245 64.9694ZM156.267 54.0346C156.831 60.638 162.641 65.5337 169.245 64.9694L168.734 58.9912C165.432 59.2733 162.527 56.8255 162.245 53.5238L156.267 54.0346ZM167.202 41.0566C160.598 41.6208 155.703 47.4312 156.267 54.0346L162.245 53.5238C161.963 50.2221 164.411 47.3169 167.712 47.0348L167.202 41.0566ZM180.18 51.9914C179.615 45.3881 173.805 40.4924 167.202 41.0566L167.712 47.0348C171.014 46.7527 173.919 49.2005 174.201 52.5022L180.18 51.9914ZM169.231 58.1961C172.429 57.9228 174.8 55.1083 174.527 51.9098L168.549 52.4206C168.54 52.3174 168.617 52.2267 168.72 52.2178L169.231 58.1961ZM162.944 52.8995C163.218 56.098 166.032 58.4693 169.231 58.1961L168.72 52.2178C168.823 52.209 168.914 52.2855 168.923 52.3887L162.944 52.8995ZM168.241 46.6133C165.042 46.8866 162.671 49.701 162.944 52.8995L168.923 52.3887C168.931 52.4919 168.855 52.5827 168.752 52.5915L168.241 46.6133ZM174.527 51.9098C174.254 48.7113 171.439 46.34 168.241 46.6133L168.752 52.5915C168.649 52.6003 168.558 52.5238 168.549 52.4206L174.527 51.9098ZM187.417 77.9695C187.629 80.4458 185.793 82.6247 183.317 82.8363L183.828 88.8145C189.606 88.3208 193.889 83.2367 193.396 77.4588L187.417 77.9695ZM182.551 73.869C185.027 73.6574 187.206 75.4933 187.417 77.9695L193.396 77.4588C192.902 71.6808 187.818 67.3971 182.04 67.8908L182.551 73.869ZM178.45 78.7357C178.239 76.2595 180.074 74.0806 182.551 73.869L182.04 67.8908C176.262 68.3844 171.978 73.4686 172.472 79.2465L178.45 78.7357ZM183.317 82.8363C180.841 83.0479 178.662 81.212 178.45 78.7357L172.472 79.2465C172.966 85.0245 178.05 89.3082 183.828 88.8145L183.317 82.8363ZM182.707 77.9016C182.676 77.5404 182.944 77.2227 183.305 77.1918L183.816 83.17C186.756 82.9188 188.937 80.3313 188.685 77.3908L182.707 77.9016ZM183.417 78.4996C183.056 78.5304 182.738 78.2627 182.707 77.9016L188.685 77.3908C188.434 74.4502 185.847 72.2701 182.906 72.5213L183.417 78.4996ZM184.015 77.7898C184.046 78.1509 183.778 78.4687 183.417 78.4996L182.906 72.5213C179.965 72.7726 177.785 75.3601 178.037 78.3006L184.015 77.7898ZM183.305 77.1918C183.666 77.161 183.984 77.4287 184.015 77.7898L178.037 78.3006C178.288 81.2412 180.875 83.4213 183.816 83.17L183.305 77.1918ZM199.187 76.9431C197.882 76.0318 194.914 73.0567 193.217 69.4715C191.562 65.9773 191.406 62.6996 194.041 59.9411L189.702 55.7969C184.654 61.082 185.585 67.3755 187.794 72.0394C189.959 76.6123 193.632 80.3825 195.753 81.8628L199.187 76.9431ZM206.791 80.4273C206.945 80.1768 207.173 80.2073 206.901 80.2325C206.537 80.2663 205.871 80.1952 204.895 79.8851C202.972 79.2743 200.749 78.0333 199.187 76.9431L195.753 81.8628C197.617 83.1643 200.391 84.7498 203.079 85.6035C204.408 86.0256 205.951 86.3464 207.455 86.2069C209.05 86.0589 210.805 85.3511 211.9 83.5728L206.791 80.4273ZM203.507 78.6488C204.229 79.1088 204.865 79.5147 205.427 79.9164C205.996 80.3228 206.376 80.647 206.612 80.9038C206.856 81.1705 206.786 81.194 206.742 80.9855C206.717 80.8655 206.714 80.7258 206.74 80.5917C206.765 80.4637 206.803 80.4065 206.791 80.4273L211.9 83.5728C212.61 82.4188 212.898 81.1003 212.614 79.7503C212.352 78.506 211.668 77.5403 211.034 76.8484C209.829 75.5348 208.027 74.4138 206.73 73.588L203.507 78.6488ZM203.482 78.6324L203.482 78.633L206.755 73.6038L206.754 73.6033L203.482 78.6324ZM202.663 78.1084C202.947 78.292 203.232 78.4738 203.506 78.6483L206.729 73.5874C206.452 73.4109 206.186 73.2414 205.925 73.0725L202.663 78.1084ZM203.451 69.3899C202.065 70.1765 200.992 71.5317 200.64 73.1101C200.254 74.8362 200.775 76.8854 202.663 78.1084L205.925 73.0725C206.101 73.1862 206.315 73.4108 206.434 73.7388C206.545 74.0426 206.524 74.2905 206.495 74.4181C206.468 74.5415 206.428 74.5933 206.425 74.5971C206.419 74.6045 206.417 74.6054 206.413 74.6078L203.451 69.3899ZM206.352 64.636C206.186 67.0961 204.918 68.5573 203.451 69.3899L206.413 74.6078C209.376 72.9259 212.018 69.7882 212.338 65.0402L206.352 64.636ZM194.041 59.9411C196.81 57.0419 199.91 56.9312 202.294 58.0718C204.848 59.2936 206.537 61.9035 206.352 64.636L212.338 65.0401C212.71 59.5438 209.357 54.7996 204.884 52.6593C200.24 50.4378 194.325 50.957 189.702 55.7969L194.041 59.9411ZM199.656 70.8244C203.367 70.5073 206.119 67.2415 205.802 63.5302L199.824 64.041C199.859 64.4507 199.555 64.8112 199.145 64.8462L199.656 70.8244ZM192.362 64.6785C192.679 68.3899 195.945 71.1415 199.656 70.8244L199.145 64.8462C198.736 64.8812 198.375 64.5774 198.34 64.1677L192.362 64.6785ZM198.508 57.3843C194.796 57.7014 192.045 60.9671 192.362 64.6785L198.34 64.1677C198.305 63.758 198.609 63.3975 199.018 63.3625L198.508 57.3843ZM205.802 63.5302C205.485 59.8188 202.219 57.0672 198.508 57.3843L199.018 63.3625C199.428 63.3275 199.789 63.6313 199.824 64.041L205.802 63.5302Z" fill="#6E4A4A" mask="url(#path-37-outside-1)"/>
<rect x="131" y="152" width="80" height="25" rx="6" fill="#564DE2"/>
<rect x="314" y="177" width="70" height="21" rx="6" transform="rotate(-90 314 177)" fill="#69D2D7"/>
<rect x="310" y="177" width="70" height="21" rx="6" transform="rotate(-90 310 177)" fill="#8AE2E6"/>
<rect x="7" y="177" width="70" height="21" rx="6" transform="rotate(-90 7 177)" fill="#69D2D7"/>
<rect x="11" y="177" width="70" height="21" rx="6" transform="rotate(-90 11 177)" fill="#8AE2E6"/>
<rect x="131" y="152" width="80" height="10" rx="5" fill="#3F36CE"/>
<path fill-rule="evenodd" clip-rule="evenodd" d="M137 131C137 128.791 138.791 127 141 127H201C203.209 127 205 128.791 205 131V135C202.791 135 201 136.791 201 139C201 141.209 202.791 143 205 143V154C205 156.209 203.209 158 201 158H141C138.791 158 137 156.209 137 154V144C139.209 144 141 142.209 141 140C141 137.791 139.209 136 137 136V131Z" fill="#FFEEBA"/>
<path d="M142 140L200 140" stroke="#FFC102" stroke-linecap="round" stroke-linejoin="round" stroke-dasharray="1 2"/>
</g>
</g>
<defs>
<filter id="filter0_d" x="179.514" y="71.6167" width="142.599" height="161.985" filterUnits="userSpaceOnUse" color-interpolation-filters="sRGB">
<feFlood flood-opacity="0" result="BackgroundImageFix"/>
<feColorMatrix in="SourceAlpha" type="matrix" values="0 0 0 0 0 0 0 0 0 0 0 0 0 0 0 0 0 0 127 0"/>
<feOffset dy="4"/>
<feGaussianBlur stdDeviation="8"/>
<feColorMatrix type="matrix" values="0 0 0 0 0.337255 0 0 0 0 0.380392 0 0 0 0 0.388235 0 0 0 0.5 0"/>
<feBlend mode="normal" in2="BackgroundImageFix" result="effect1_dropShadow"/>
<feBlend mode="normal" in="SourceGraphic" in2="effect1_dropShadow" result="shape"/>
</filter>
<filter id="filter1_d" x="-51.4825" y="34.2874" width="243.587" height="236.877" filterUnits="userSpaceOnUse" color-interpolation-filters="sRGB">
<feFlood flood-opacity="0" result="BackgroundImageFix"/>
<feColorMatrix in="SourceAlpha" type="matrix" values="0 0 0 0 0 0 0 0 0 0 0 0 0 0 0 0 0 0 127 0"/>
<feOffset dy="4"/>
<feGaussianBlur stdDeviation="8"/>
<feColorMatrix type="matrix" values="0 0 0 0 0.337255 0 0 0 0 0.380392 0 0 0 0 0.388235 0 0 0 0.5 0"/>
<feBlend mode="normal" in2="BackgroundImageFix" result="effect1_dropShadow"/>
<feBlend mode="normal" in="SourceGraphic" in2="effect1_dropShadow" result="shape"/>
</filter>
<linearGradient id="paint0_linear" x1="171.5" y1="0" x2="171.5" y2="56.3684" gradientUnits="userSpaceOnUse">
<stop stop-color="white" stop-opacity="0"/>
<stop offset="1" stop-color="#E9ECEF" stop-opacity="0.3"/>
</linearGradient>
<clipPath id="clip0">
<path d="M0 0H343V200H0V0Z" fill="white"/>
</clipPath>
</defs>
</svg>
