<svg width="22" height="22" viewBox="0 0 22 22" fill="none" xmlns="http://www.w3.org/2000/svg">
<path d="M7.99996 2.5H18C18.8284 2.5 19.5 3.17157 19.5 4V14C19.5 14.4443 19.3068 14.8434 19 15.1181V17.874C20.7252 17.4299 22 15.8638 22 14V4C22 1.79086 20.2091 0 18 0H7.99996C6.13612 0 4.57002 1.27477 4.12598 3H6.88191C7.15657 2.69313 7.55571 2.5 7.99996 2.5Z" fill="white"/>
<path fill-rule="evenodd" clip-rule="evenodd" d="M0 8C0 5.79086 1.79086 4 4 4H14C16.2091 4 18 5.79086 18 8V18C18 20.2091 16.2091 22 14 22H4C1.79086 22 0 20.2091 0 18V8ZM4 6.5H14C14.8284 6.5 15.5 7.17157 15.5 8V18C15.5 18.8284 14.8284 19.5 14 19.5H4C3.17157 19.5 2.5 18.8284 2.5 18V8C2.5 7.17157 3.17157 6.5 4 6.5Z" fill="white"/>
</svg>
