<svg width="16" height="16" viewBox="0 0 16 16" fill="none" xmlns="http://www.w3.org/2000/svg">
<path fill-rule="evenodd" clip-rule="evenodd" d="M6.99836 2.95086C8.33265 1.61657 10.496 1.61657 11.8303 2.95086C13.1645 4.28515 13.1645 6.44847 11.8303 7.78276L8.53042 11.0826C7.71683 11.8962 6.39774 11.8962 5.58415 11.0826C4.77055 10.269 4.77055 8.9499 5.58415 8.13631L7.94117 5.77929C8.23406 5.48639 8.70894 5.48639 9.00183 5.77929C9.29472 6.07218 9.29472 6.54705 9.00183 6.83995L6.64481 9.19697C6.417 9.42478 6.417 9.79412 6.64481 10.0219C6.87261 10.2497 7.24196 10.2497 7.46976 10.0219L10.7696 6.7221C11.5181 5.97359 11.5181 4.76003 10.7696 4.01152C10.0211 3.26302 8.80752 3.26302 8.05902 4.01152L4.28778 7.78276C3.01858 9.05196 3.01858 11.1097 4.28778 12.3789C5.55699 13.6482 7.61477 13.6482 8.88398 12.3789L12.8909 8.37201C13.1838 8.07912 13.6587 8.07912 13.9516 8.37201C14.2445 8.66491 14.2445 9.13978 13.9516 9.43267L9.94464 13.4396C8.08965 15.2946 5.08211 15.2946 3.22712 13.4396C1.37213 11.5846 1.37213 8.57709 3.22712 6.7221L6.99836 2.95086Z" fill="#564DE2"/>
</svg>
