<svg width="22" height="24" viewBox="0 0 22 24" fill="none" xmlns="http://www.w3.org/2000/svg">
<path d="M19.5447 5.0163L12.2009 0.774878C11.4577 0.345549 10.5423 0.345549 9.79908 0.774878L2.45529 5.0163C1.71209 5.44533 1.25452 6.23864 1.25452 7.09701V16.903C1.25452 17.7614 1.71209 18.5544 2.45529 18.9837L9.79908 23.2254C10.542 23.6545 11.4577 23.6545 12.2009 23.2254L19.5447 18.9837C20.2876 18.5547 20.7455 17.7614 20.7455 16.903V7.09701C20.7455 6.23893 20.2876 5.44563 19.5447 5.0163Z" fill="white"/>
<path d="M19.5447 5.0164L19.6332 4.86283L12.2894 0.621412C11.8904 0.390776 11.4448 0.275604 10.9999 0.275604C10.5546 0.275604 10.1093 0.390776 9.71033 0.621412L2.36684 4.86313C1.56886 5.32381 1.0773 6.17573 1.0773 7.09739V16.9034C1.0773 17.8251 1.56886 18.6767 2.36684 19.1374L9.71062 23.3791C10.1096 23.6094 10.5549 23.7246 10.9999 23.7246C11.4448 23.7246 11.8904 23.6094 12.2894 23.3791L19.6332 19.1374C20.4309 18.6767 20.9224 17.8251 20.9224 16.9034V7.0971C20.9224 6.17544 20.4309 5.32381 19.6332 4.86283L19.5447 5.0164L19.4563 5.16966C20.1444 5.56705 20.5686 6.30204 20.5686 7.0971V16.9031C20.5686 17.6982 20.1444 18.4329 19.4563 18.8302L12.1122 23.072C11.768 23.2706 11.3839 23.37 10.9999 23.37C10.6155 23.37 10.2318 23.2706 9.88756 23.072L2.54377 18.8302C1.85536 18.4329 1.43147 17.6982 1.43147 16.9031V7.0971C1.43147 6.30204 1.85536 5.56705 2.54377 5.16966L9.88756 0.928243C10.2318 0.729257 10.6155 0.629911 10.9999 0.629911C11.3839 0.629911 11.768 0.729257 12.1122 0.928243L19.456 5.16966L19.5447 5.0164Z" fill="#390099"/>
<path d="M19.5446 5.01638L12.2008 0.774963C11.8294 0.560152 11.4145 0.453186 11 0.453186V23.5476C11.4145 23.5476 11.8294 23.4403 12.2008 23.2258L19.5446 18.9841C20.2875 18.555 20.7454 17.7617 20.7454 16.9034V7.09709C20.7454 6.23902 20.2875 5.44571 19.5446 5.01638Z" fill="white"/>
<path d="M19.5447 8.5533L12.2009 4.31158C11.4577 3.88255 10.5423 3.88255 9.79908 4.31158L2.45529 8.5533C1.71209 8.98233 1.25452 9.77564 1.25452 10.634V16.9031C1.25452 17.7615 1.71209 18.5545 2.45529 18.9838L9.79908 23.2255C10.542 23.6545 11.4577 23.6545 12.2009 23.2255L19.5447 18.9838C20.2876 18.5548 20.7455 17.7615 20.7455 16.9031V10.634C20.7455 9.77564 20.2876 8.98233 19.5447 8.5533Z" fill="#FB607E"/>
<path d="M19.5446 8.5533L12.2008 4.31158C11.8294 4.09707 11.4145 3.98981 11 3.98981V4.82297C11.3838 4.82297 11.7678 4.92232 12.1117 5.12101L18.9107 9.04798C19.5988 9.44536 20.0224 10.1798 20.0224 10.9745V11.0938C20.0224 11.8886 19.5985 12.6227 18.9107 13.0201L12.1117 16.947C11.7678 17.1457 11.3841 17.2451 11 17.2451V23.5473C11.4145 23.5473 11.8294 23.44 12.2008 23.2255L19.5446 18.9838C20.2875 18.5548 20.7454 17.7615 20.7454 16.9031V10.634C20.7454 9.77564 20.2875 8.98233 19.5446 8.5533Z" fill="#5F2DDF"/>
<path d="M18.9105 9.04798L12.1115 5.12101C11.7676 4.92231 11.3839 4.82297 10.9998 4.82297V17.2451C11.3836 17.2451 11.7676 17.1457 12.1115 16.947L18.9105 13.0201C19.5986 12.6227 20.0222 11.8883 20.0222 11.0935V10.9742C20.0225 10.1798 19.5986 9.44536 18.9105 9.04798Z" fill="#5C467A"/>
<path d="M18.9105 9.04794L12.1115 5.12098C11.4237 4.72359 10.5759 4.72359 9.88809 5.12098L3.08917 9.04794C2.40104 9.44532 1.97745 10.1797 1.97745 10.9745V11.0938C1.97745 11.8885 2.40104 12.6227 3.08917 13.02L9.88809 16.947C10.5762 17.3444 11.4237 17.3444 12.1115 16.947L18.9105 13.02C19.5986 12.6227 20.0222 11.8882 20.0222 11.0938V10.9745C20.0225 10.1797 19.5986 9.44532 18.9105 9.04794Z" fill="#4F21C3"/>
<path d="M9.65966 15.9043C10.4893 16.3835 11.5111 16.3835 12.3404 15.9043L19.3643 11.8475C18.6451 5.85713 15.527 1.14008 10.9999 1.14008C6.47273 1.14008 3.35464 5.85713 2.63547 11.8475L9.65966 15.9043Z" fill="white"/>
<path d="M9.65966 15.9043L9.61542 15.9808C10.0437 16.2285 10.5221 16.3521 11.0002 16.3521C11.4782 16.3521 11.9563 16.2285 12.3849 15.9808L19.4595 11.8947L19.4524 11.8367C19.0912 8.82934 18.1286 6.13878 16.6812 4.19434C15.2352 2.2502 13.296 1.05071 11.0002 1.0513C8.70437 1.05071 6.76509 2.2502 5.31883 4.19434C3.87169 6.13907 2.90879 8.82934 2.54759 11.8367L2.54056 11.8947L9.61542 15.9808L9.65966 15.9043L9.70389 15.8276L2.67971 11.7708L2.63547 11.8475L2.72335 11.8581C3.08133 8.87506 4.0375 6.21175 5.46091 4.30014C6.88549 2.38794 8.76882 1.22889 11.0002 1.22831C13.2312 1.22889 15.1145 2.38794 16.5394 4.30014C17.9628 6.21175 18.9187 8.87506 19.2767 11.8581L19.3646 11.8475L19.3203 11.7708L12.2961 15.8276C11.8951 16.0591 11.4475 16.1751 10.9999 16.1751C10.5523 16.1751 10.1046 16.0594 9.7036 15.8276L9.65966 15.9043Z" fill="#390099"/>
<path d="M11.47 1.15881C12.002 1.86918 12.4874 2.66513 12.9099 3.52877C14.9235 7.64564 12.8416 11.3516 9.49063 12.5649C7.14738 13.4136 4.50239 12.9265 2.75089 11.0357C2.70812 11.3039 2.66857 11.5738 2.63547 11.8478L9.65966 15.9046C10.4893 16.3837 11.5111 16.3837 12.3404 15.9046L19.3643 11.8478C18.6703 6.06694 15.742 1.47356 11.47 1.15881Z" fill="#FFF1EB"/>
<path d="M19.7157 11.8054C19.3492 8.76139 18.377 6.03009 16.8938 4.03584C16.1521 3.03915 15.2803 2.22709 14.2907 1.66295C13.3014 1.09852 12.1932 0.785242 10.9998 0.785828C9.80633 0.785242 8.69813 1.09852 7.70886 1.66295C6.22365 2.51018 5.00647 3.91158 4.09044 5.66318C3.1747 7.41567 2.55805 9.52217 2.28357 11.8054L2.25574 12.0375L9.48234 16.2112C9.95163 16.4823 10.476 16.618 10.9998 16.618C11.5236 16.618 12.0479 16.4823 12.5172 16.2112L19.7435 12.0375L19.7157 11.8054ZM12.1634 15.5975C11.8033 15.8053 11.4017 15.9094 11.0001 15.9096C10.5982 15.9096 10.1968 15.8056 9.8368 15.5975L9.65986 15.9044L9.8368 15.5975L3.01768 11.6594C3.39148 8.8074 4.32245 6.27216 5.67379 4.45901C6.36719 3.52738 7.16897 2.78595 8.05952 2.27866C8.95065 1.77138 9.92995 1.49503 10.9998 1.49444C12.0699 1.49503 13.0489 1.77138 13.94 2.27866C15.2756 3.03915 16.4128 4.32948 17.2813 5.99141C18.1195 7.59414 18.7021 9.54063 18.9804 11.6603L12.1634 15.5975Z" fill="#4F21C3"/>
<path d="M4.25805 16.8756L3.24623 16.3047C3.06666 16.2033 2.91989 15.9735 2.91989 15.7942C2.91989 15.6148 3.06666 15.5504 3.24623 15.6518L4.25805 16.2226C4.43763 16.3237 4.58439 16.5538 4.58439 16.7331C4.58439 16.9131 4.43763 16.977 4.25805 16.8756Z" fill="#5F2DDF"/>
<path d="M8.04856 19.0087L7.03703 18.4379C6.85746 18.3365 6.71069 18.1067 6.71069 17.9274C6.71069 17.748 6.85775 17.6838 7.03703 17.7852L8.04856 18.3561C8.22814 18.4575 8.3749 18.6872 8.3749 18.8666C8.3749 19.0459 8.22784 19.1098 8.04856 19.0087Z" fill="#5F2DDF"/>
<path d="M19.5447 5.01637L19.7216 4.70954L12.3778 0.468117C11.9516 0.221656 11.4753 0.0985718 10.9998 0.0985718C10.5241 0.0985718 10.048 0.221656 9.62182 0.468117L2.27803 4.70954C1.42527 5.20187 0.900024 6.11211 0.900024 7.09708V16.9031C0.900024 17.888 1.42527 18.798 2.27803 19.2906L9.62182 23.5323C10.048 23.7785 10.5241 23.9016 10.9998 23.9016C11.4756 23.9016 11.9516 23.7785 12.3778 23.5323L19.7219 19.2906C20.5744 18.7983 21.0999 17.888 21.0999 16.9031V7.09708C21.0999 6.11211 20.5747 5.20187 19.7219 4.70954L19.5447 5.01637L19.3674 5.3232C20.0008 5.68894 20.3913 6.36531 20.3913 7.09708V16.9031C20.3913 17.6348 20.0008 18.3109 19.3674 18.677L12.0237 22.9187C11.7067 23.1015 11.3534 23.193 10.9998 23.193C10.6459 23.193 10.2929 23.1015 9.97599 22.9187L2.6322 18.677C1.99856 18.3112 1.60836 17.6348 1.60836 16.9031V7.09708C1.60836 6.36531 1.99856 5.68894 2.6322 5.3232L9.97599 1.08178C10.2929 0.898619 10.6459 0.807185 10.9998 0.807185C11.3534 0.807185 11.7067 0.898619 12.0237 1.08178L19.3674 5.32349L19.5447 5.01637Z" fill="#4F21C3"/>
</svg>
