<svg width="16" height="16" viewBox="0 0 16 16" fill="none" xmlns="http://www.w3.org/2000/svg">
<path fill-rule="evenodd" clip-rule="evenodd" d="M12.6667 6.66659C13.403 6.66659 14 7.26354 14 7.99992C14 8.7363 13.403 9.33325 12.6667 9.33325C11.9303 9.33325 11.3333 8.7363 11.3333 7.99992C11.3333 7.26354 11.9303 6.66659 12.6667 6.66659ZM8 6.66658C8.73638 6.66658 9.33333 7.26354 9.33333 7.99992C9.33333 8.7363 8.73638 9.33325 8 9.33325C7.26362 9.33325 6.66667 8.7363 6.66667 7.99992C6.66667 7.26354 7.26362 6.66658 8 6.66658ZM4.66667 7.99992C4.66667 7.26354 4.06971 6.66658 3.33333 6.66658C2.59695 6.66658 2 7.26354 2 7.99992C2 8.7363 2.59695 9.33325 3.33333 9.33325C4.06971 9.33325 4.66667 8.7363 4.66667 7.99992Z" fill="#564DE2"/>
</svg>
