<svg width="375" height="375" viewBox="0 0 375 375" fill="none" xmlns="http://www.w3.org/2000/svg">
<rect width="375" height="375" fill="white"/>
<mask id="mask0" mask-type="alpha" maskUnits="userSpaceOnUse" x="0" y="0" width="375" height="375">
<rect width="375" height="375" fill="#AAAFB7"/>
<rect width="375" height="375" fill="url(#paint0_linear)"/>
</mask>
<g mask="url(#mask0)">
<rect width="375" height="375" fill="#564DE2"/>
<mask id="mask1" mask-type="alpha" maskUnits="userSpaceOnUse" x="213" y="167" width="183" height="183">
<path d="M350.229 337.549C393.525 312.38 408.066 256.613 382.707 212.988C357.348 169.364 301.691 154.403 258.395 179.572C215.099 204.741 200.558 260.508 225.917 304.132C251.276 347.756 306.932 362.717 350.229 337.549Z" fill="#FFCF3C"/>
</mask>
<g mask="url(#mask1)">
<path d="M350.229 337.549C393.525 312.38 408.066 256.613 382.707 212.988C357.348 169.364 301.691 154.403 258.395 179.572C215.099 204.741 200.558 260.508 225.917 304.132C251.276 347.756 306.932 362.717 350.229 337.549Z" fill="#FFC102"/>
<path d="M316.7 308.241C352.486 287.438 364.505 241.344 343.545 205.287C322.584 169.23 276.582 156.864 240.796 177.667C205.01 198.47 192.992 244.564 213.952 280.621C234.912 316.678 280.914 329.044 316.7 308.241Z" fill="#FFCF3B"/>
<path d="M270.879 236.78C273.568 235.686 274.85 232.605 273.743 229.898C272.636 227.191 269.559 225.884 266.869 226.978C264.18 228.072 262.897 231.153 264.005 233.86C265.112 236.567 268.189 237.875 270.879 236.78Z" fill="#1F2020"/>
<path d="M315.392 219.465C318.081 218.371 319.364 215.29 318.257 212.583C317.15 209.876 314.072 208.568 311.383 209.662C308.694 210.756 307.411 213.838 308.518 216.545C309.625 219.252 312.703 220.559 315.392 219.465Z" fill="#1F2020"/>
<path d="M285.505 226.368C285.505 226.368 291.844 228.649 297.765 221.961" stroke="#1F2020" stroke-width="6" stroke-miterlimit="10" stroke-linecap="round" stroke-linejoin="round"/>
<path d="M256.803 205.622C254.15 204.543 252.885 201.504 253.977 198.834C255.069 196.164 258.104 194.875 260.757 195.954C263.409 197.033 264.674 200.072 263.582 202.742C262.49 205.412 259.455 206.701 256.803 205.622Z" fill="white"/>
<path d="M248 210.5C241 215 237 227 236 234" stroke="white" stroke-width="9" stroke-linecap="round" stroke-linejoin="round"/>
</g>
<path d="M222.477 242.642L241.545 250.623C248.03 253.338 252.906 259.269 252.738 266.298C252.428 279.32 247.625 288.495 239.29 293.123C236.594 294.62 233.411 294.802 230.375 294.267C209.243 290.549 181.697 280.953 177.901 274C174.891 268.487 173.864 261.515 177.902 259.809C177.083 257.762 176.342 254.487 176.342 251.622C176.342 248.756 177.617 243.442 181.586 244.253C176.602 238.896 173.773 235.18 176.342 231.606C180.546 225.758 196.323 230.625 205.011 235.096C204.886 228.364 207.045 220.466 215.206 220.61C221.371 220.719 222.159 235.991 222.477 242.642Z" fill="#FF718B"/>
<path d="M182 244C184.12 244.243 192.715 245 193.334 250.891C193.771 255.052 191.271 257.794 189.815 258.665C191.555 259.514 194.571 262.124 192.715 265.775C190.859 269.425 187.862 271.474 186.595 272.043" stroke="black" stroke-width="4" stroke-linecap="round" stroke-linejoin="round"/>
<path d="M205 236L205 240.5C202.5 242 199.5 247.5 205 254" stroke="black" stroke-width="4" stroke-linecap="round" stroke-linejoin="round"/>
<path d="M185.403 208.609C187.458 203.5 193.092 205.702 195.085 207.674C197.649 201.134 204.768 201.757 205.907 207.674C206.819 212.408 200.781 219.197 197.648 222C192.712 220.443 182.896 214.837 185.403 208.609Z" fill="#EF424E"/>
<path d="M118.549 177.13C117.209 162.997 132.687 161.405 139.575 163.577C137.703 145.566 154.711 138.603 164.308 150.824C171.986 160.6 166.211 183.277 162.364 193.393C149.242 195.641 120.183 194.36 118.549 177.13Z" fill="white" fill-opacity="0.1"/>
<path d="M160.141 68.3505C176.951 47.8408 199.683 66.0789 206.008 78.0151C227.214 51.6604 259.053 64.7851 255.768 93.6148C253.14 116.679 215.6 139.17 197.158 147.532C176.703 133.262 139.645 93.3565 160.141 68.3505Z" fill="white" fill-opacity="0.1"/>
</g>
<defs>
<linearGradient id="paint0_linear" x1="188" y1="265.748" x2="187.728" y2="385.704" gradientUnits="userSpaceOnUse">
<stop stop-opacity="0"/>
<stop offset="1"/>
</linearGradient>
</defs>
</svg>
