<svg width="164" height="164" viewBox="0 0 164 164" fill="none" xmlns="http://www.w3.org/2000/svg">
<mask id="mask0" mask-type="alpha" maskUnits="userSpaceOnUse" x="0" y="0" width="164" height="164">
<rect width="164" height="164" fill="#E9ECEF"/>
</mask>
<g mask="url(#mask0)">
<rect width="164" height="164" fill="#E9ECEF"/>
<g opacity="0.7">
<path d="M105.955 141.772C131.8 137.316 150.681 121.391 148.128 106.202C145.575 91.0132 122.554 82.3128 96.709 86.7691C70.8644 91.2254 51.9831 107.151 54.5364 122.34C57.0897 137.528 80.1108 146.229 105.955 141.772Z" fill="#1C2D6D"/>
<path d="M116.052 202.381C141.908 197.922 159.534 174.464 155.42 149.985C151.306 125.507 127.01 109.279 101.154 113.738C75.2976 118.198 57.6718 141.656 61.7857 166.134C65.8996 190.612 90.1954 206.841 116.052 202.381Z" fill="#1C2D6D"/>
<path d="M148.144 106.263L54.578 122.392L61.918 166.045L155.484 149.916L148.144 106.263Z" fill="#1C2D6D"/>
<path d="M112.404 178.864C165.268 169.751 204.368 140.039 199.738 112.499C195.107 84.9596 148.499 70.022 95.6353 79.1349C42.7718 88.2479 3.67133 117.961 8.30193 145.5C12.9325 173.04 59.5407 187.977 112.404 178.864Z" fill="#CDD1D6"/>
<path d="M110.121 165.338C157.561 157.16 192.65 130.497 188.494 105.785C184.339 81.0721 142.513 67.6683 95.0739 75.8462C47.6344 84.0242 12.5456 110.687 16.7009 135.399C20.8561 160.112 62.6819 173.516 110.121 165.338Z" fill="#DDE0E3"/>
<path d="M105.638 139.433C133.358 134.666 153.501 116.989 150.63 99.9496C147.758 82.9106 122.958 72.9624 95.2378 77.7297C67.5177 82.4969 47.3741 100.174 50.2459 117.213C53.1177 134.252 77.9174 144.201 105.638 139.433Z" fill="#CDD1D6"/>
<path d="M105.076 136.108C130.912 131.665 149.778 115.739 147.216 100.537C144.654 85.3353 121.633 76.6135 95.7972 81.0566C69.9615 85.4996 51.0947 101.425 53.657 116.627C56.2192 131.829 79.2403 140.551 105.076 136.108Z" fill="#DADADA"/>
<path d="M43.242 115.142C47.4202 114.422 49.3302 105.056 47.508 94.2221C45.6859 83.3882 40.8217 75.1894 36.6435 75.9095C32.4653 76.6295 30.5554 85.9958 32.3775 96.8297C34.1996 107.664 39.0639 115.862 43.242 115.142Z" fill="#FCFCFC"/>
<path d="M43.2153 115.158L57.2358 112.742L50.6345 73.4974L36.614 75.9134L43.2153 115.158Z" fill="#FCFCFC"/>
<path d="M61.4941 91.8923C59.7725 81.0413 54.9843 72.7969 50.7993 73.4778C46.6143 74.1588 44.6173 83.5073 46.3389 94.3584C48.0605 105.209 52.8488 113.454 57.0338 112.773C61.2188 112.092 63.2157 102.743 61.4941 91.8923Z" fill="#CDD1D6"/>
<path fill-rule="evenodd" clip-rule="evenodd" d="M53.66 116.59C53.6614 116.598 53.6628 116.607 53.6642 116.615C56.231 131.824 79.252 140.556 105.083 136.12C130.914 131.684 149.774 115.758 147.207 100.549C147.158 100.261 147.102 99.9746 147.039 99.6908L139.801 56.8093L139.772 56.8143C135.626 32.3004 111.313 16.0295 85.4601 20.4701C59.601 24.9118 41.993 48.3924 46.1314 72.9155C46.3327 74.1088 46.5819 75.2825 46.8766 76.4353L53.6544 116.591L53.66 116.59Z" fill="url(#paint0_linear)" fill-opacity="0.9"/>
<mask id="mask1" mask-type="alpha" maskUnits="userSpaceOnUse" x="60" y="37" width="69" height="70">
<path d="M100.34 106.243C118.99 103.039 131.543 85.234 128.377 66.4733C125.211 47.7126 107.526 35.1011 88.8752 38.3046C70.2247 41.5081 57.6719 59.3136 60.8378 78.0743C64.0037 96.835 81.6894 109.447 100.34 106.243Z" fill="#FFCF3C"/>
</mask>
<g mask="url(#mask1)">
<path d="M100.34 106.243C118.99 103.039 131.543 85.234 128.377 66.4733C125.211 47.7126 107.526 35.1011 88.8752 38.3046C70.2247 41.5081 57.6719 59.3136 60.8378 78.0743C64.0037 96.835 81.6894 109.447 100.34 106.243Z" fill="#E1E4E7"/>
<path d="M85.4181 89.1807C100.833 86.5329 111.209 71.8159 108.592 56.3096C105.975 40.8032 91.3574 30.3792 75.9421 33.0271C60.5268 35.6749 50.1514 50.3918 52.7681 65.8982C55.3849 81.4046 70.0027 91.8285 85.4181 89.1807Z" fill="#EBEEF1"/>
<path fill-rule="evenodd" clip-rule="evenodd" d="M77.4732 65.3778C78.554 65.1924 79.2812 64.1603 79.0973 63.0725C78.9135 61.9847 77.8883 61.2531 76.8075 61.4385C75.7267 61.6239 74.9996 62.656 75.1834 63.7438C75.3673 64.8316 76.3924 65.5632 77.4732 65.3778ZM95.2926 62.6068C96.3734 62.4214 97.1005 61.3893 96.9167 60.3014C96.7329 59.2136 95.7077 58.4821 94.6269 58.6675C93.5461 58.8528 92.8189 59.885 93.0028 60.9728C93.1866 62.0606 94.2118 62.7921 95.2926 62.6068ZM83.0033 63.8637C83.0026 63.8633 83.0019 63.8628 83.7197 62.7264L83.0019 63.8628C82.3756 63.4675 82.1892 62.6381 82.5857 62.0105C82.9781 61.3892 83.7945 61.1984 84.4184 61.578C84.4216 61.5798 84.4276 61.583 84.4363 61.5876C84.4635 61.6016 84.516 61.6273 84.5912 61.6568C84.7423 61.7163 84.9767 61.7886 85.2743 61.8193C85.8401 61.8776 86.726 61.7974 87.8109 61.0094C88.4115 60.5732 89.2506 60.706 89.6851 61.3061C90.1196 61.9061 89.9851 62.7461 89.3845 63.1823C87.7367 64.3791 86.1836 64.6142 84.9936 64.4915C84.4133 64.4317 83.9406 64.2895 83.6041 64.1571C83.4354 64.0907 83.299 64.026 83.1982 63.9738C83.1477 63.9476 83.1059 63.9245 83.0731 63.9056C83.0567 63.8961 83.0425 63.8878 83.0306 63.8806L83.0145 63.8708L83.0078 63.8666L83.0047 63.8646L83.0033 63.8637Z" fill="#CDD1D6"/>
</g>
<path d="M147.863 97.2226C152.041 96.5025 153.951 87.1362 152.129 76.3024C150.307 65.4685 145.443 57.2697 141.265 57.9898C137.086 58.7098 135.176 68.0761 136.999 78.91C138.821 89.7438 143.685 97.9426 147.863 97.2226Z" fill="#FCFCFC"/>
<path d="M147.836 97.2377L161.856 94.8217L155.255 55.5767L141.234 57.9927L147.836 97.2377Z" fill="#FCFCFC"/>
<path d="M167.272 73.6475C165.551 62.7964 160.763 54.552 156.578 55.233C152.393 55.914 150.396 65.2625 152.117 76.1135C153.839 86.9645 158.627 95.2089 162.812 94.528C166.997 93.847 168.994 84.4985 167.272 73.6475Z" fill="#D5D9DD"/>
</g>
</g>
<defs>
<linearGradient id="paint0_linear" x1="152.494" y1="93.1871" x2="-2.77517" y2="55.088" gradientUnits="userSpaceOnUse">
<stop stop-color="white"/>
<stop offset="1" stop-color="white" stop-opacity="0"/>
</linearGradient>
</defs>
</svg>
