<svg width="150" height="109" viewBox="0 0 150 109" fill="none" xmlns="http://www.w3.org/2000/svg">
<path d="M86.3941 97.0115C105.626 93.7372 119.662 81.9484 117.743 70.6805C115.825 59.4126 98.679 52.9326 79.447 56.2069C60.2149 59.4812 46.1794 71.2699 48.0978 82.5378C50.0162 93.8057 67.162 100.286 86.3941 97.0115Z" fill="#1C2D6D"/>
<path d="M93.9289 141.881C113.161 138.607 126.247 121.242 123.158 103.095C120.068 84.9487 101.973 72.8923 82.7408 76.1666C63.5088 79.4409 50.4226 96.806 53.5121 114.953C56.6016 133.099 74.6968 145.156 93.9289 141.881Z" fill="#1C2D6D"/>
<path d="M117.736 70.6816L48.0985 82.5376L53.6142 114.935L123.252 103.079L117.736 70.6816Z" fill="#1C2D6D"/>
<path d="M91.2197 124.511C130.562 117.813 159.635 95.818 156.156 75.3842C152.677 54.9504 117.964 43.8154 78.6215 50.5134C39.2795 57.2115 10.2067 79.2062 13.6856 99.64C17.1645 120.074 51.8777 131.209 91.2197 124.511Z" fill="#D70051"/>
<path d="M89.5144 114.489C124.82 108.478 150.91 88.7413 147.788 70.4051C144.666 52.069 113.515 42.0773 78.2095 48.0881C42.9041 54.0989 16.8141 73.8361 19.9359 92.1722C23.0577 110.508 54.209 120.5 89.5144 114.489Z" fill="#E73C65"/>
<path d="M86.1458 95.2646C106.78 91.7515 121.765 78.6658 119.615 66.0369C117.465 53.408 98.994 46.0181 78.3595 49.5311C57.7251 53.0442 42.7406 66.1299 44.8907 78.7588C47.0408 91.3878 65.5113 98.7776 86.1458 95.2646Z" fill="#D70051"/>
<path d="M85.7257 92.8005C104.958 89.5263 118.993 77.7375 117.075 66.4696C115.157 55.2017 98.0107 48.7216 78.7787 51.9959C59.5466 55.2702 45.5111 67.059 47.4295 78.3269C49.3479 89.5948 66.4937 96.0748 85.7257 92.8005Z" fill="#D70051"/>
<path d="M39.6714 77.2634C42.7742 76.7352 44.182 69.8018 42.8158 61.7773C41.4496 53.7528 37.8268 47.6759 34.724 48.2042C31.6213 48.7324 30.2135 55.6658 31.5797 63.6903C32.9458 71.7148 36.5687 77.7917 39.6714 77.2634Z" fill="#F4F8FB"/>
<path d="M39.6669 77.2663L50.0771 75.4939L45.1284 46.4268L34.7182 48.1992L39.6669 77.2663Z" fill="#F4F8FB"/>
<path d="M53.2321 60.0523C51.9407 52.015 48.3744 45.9044 45.2667 46.4037C42.159 46.903 40.6867 53.8232 41.9781 61.8604C43.2696 69.8976 46.8358 76.0083 49.9435 75.509C53.0512 75.0097 54.5236 68.0895 53.2321 60.0523Z" fill="#C9CACA"/>
<path fill-rule="evenodd" clip-rule="evenodd" d="M47.4257 78.3058C47.4269 78.3129 47.4281 78.3201 47.4293 78.3272C49.3477 89.5951 66.4935 96.0752 85.7255 92.8009C104.958 89.5266 118.993 77.7378 117.075 66.4699C117.05 66.3244 117.023 66.1798 116.993 66.0359L111.551 34.0737L111.528 34.0777C108.42 15.9313 90.3182 3.87909 71.08 7.15443C51.8307 10.4317 38.733 27.8131 41.8254 45.977C41.9644 46.7933 42.1337 47.5973 42.3321 48.3881L47.4257 78.3058Z" fill="url(#paint0_linear)" fill-opacity="0.9"/>
<mask id="mask0" mask-type="alpha" maskUnits="userSpaceOnUse" x="48" y="16" width="60" height="59">
<path d="M82.1945 70.6809C96.0774 68.3173 105.414 55.1369 103.048 41.2415C100.683 27.3462 87.5104 17.9979 73.6275 20.3615C59.7447 22.725 50.4081 35.9055 52.7739 49.8008C55.1396 63.6962 68.3117 73.0445 82.1945 70.6809Z" fill="#FFCF3C"/>
</mask>
<g mask="url(#mask0)">
<path d="M82.1945 70.6809C96.0774 68.3173 105.414 55.1369 103.048 41.2415C100.683 27.3462 87.5104 17.9979 73.6275 20.3615C59.7447 22.725 50.4081 35.9055 52.7739 49.8008C55.1396 63.6962 68.3117 73.0445 82.1945 70.6809Z" fill="#FFC102"/>
<path d="M71.0783 58.048C82.5531 56.0944 90.2701 45.2003 88.3147 33.7152C86.3594 22.2302 75.4721 14.5035 63.9974 16.4571C52.5227 18.4107 44.8057 29.3048 46.7611 40.7898C48.7164 52.2749 59.6036 60.0016 71.0783 58.048Z" fill="#FFCF3B"/>
<path d="M65.1501 40.4168C65.9549 40.2798 66.4961 39.5158 66.3589 38.7103C66.2218 37.9049 65.4583 37.363 64.6535 37.5C63.8488 37.637 63.3076 38.401 63.4447 39.2065C63.5818 40.0119 64.3454 40.5538 65.1501 40.4168Z" fill="#1F2020"/>
<path d="M78.4216 38.3655C79.2264 38.2285 79.7676 37.4645 79.6304 36.659C79.4933 35.8536 78.7298 35.3117 77.925 35.4487C77.1203 35.5857 76.5791 36.3497 76.7162 37.1552C76.8533 37.9607 77.6169 38.5026 78.4216 38.3655Z" fill="#1F2020"/>
<path d="M69.8019 38.4531C69.8019 38.4531 71.4 39.457 73.4348 37.9871" stroke="#1F2020" stroke-width="2" stroke-miterlimit="10" stroke-linecap="round" stroke-linejoin="round"/>
</g>
<path d="M117.592 63.9985C120.695 63.4703 122.103 56.5369 120.736 48.5124C119.37 40.4879 115.747 34.411 112.645 34.9393C109.542 35.4675 108.134 42.4009 109.5 50.4254C110.866 58.4499 114.489 64.5268 117.592 63.9985Z" fill="#F4F8FB"/>
<path d="M117.588 64.0006L127.998 62.2283L123.049 33.1612L112.639 34.9336L117.588 64.0006Z" fill="#F4F8FB"/>
<path d="M131.152 46.7837C129.86 38.7465 126.294 32.6358 123.186 33.1351C120.079 33.6344 118.606 40.5547 119.898 48.5919C121.189 56.6291 124.755 62.7398 127.863 62.2405C130.971 61.7411 132.443 54.8209 131.152 46.7837Z" fill="#C9CACA"/>
<defs>
<linearGradient id="paint0_linear" x1="121" y1="61" x2="5.50056" y2="32.4997" gradientUnits="userSpaceOnUse">
<stop stop-color="white"/>
<stop offset="1" stop-color="white" stop-opacity="0"/>
</linearGradient>
</defs>
</svg>
