<svg width="18" height="18" viewBox="0 0 18 18" fill="none" xmlns="http://www.w3.org/2000/svg">
<mask id="mask0" mask-type="alpha" maskUnits="userSpaceOnUse" x="0" y="0" width="18" height="18">
<circle cx="9" cy="9" r="8.25" fill="#C4C4C4"/>
</mask>
<g mask="url(#mask0)">
<mask id="mask1" mask-type="alpha" maskUnits="userSpaceOnUse" x="-1" y="-1" width="20" height="20">
<path d="M10.4297 17.2734C15.0347 16.4894 18.1316 12.1174 17.3469 7.50832C16.5622 2.89923 12.193 -0.201616 7.58802 0.582388C2.98306 1.36639 -0.113869 5.73836 0.670838 10.3474C1.45555 14.9565 5.82473 18.0574 10.4297 17.2734Z" fill="#FFCF3C"/>
</mask>
<g mask="url(#mask1)">
<path d="M10.4297 17.2734C15.0347 16.4894 18.1316 12.1174 17.3469 7.50832C16.5622 2.89923 12.193 -0.201616 7.58802 0.582388C2.98306 1.36639 -0.113869 5.73836 0.670838 10.3474C1.45555 14.9565 5.82473 18.0574 10.4297 17.2734Z" fill="#18A8FA"/>
<path d="M8.70456 15.0465C13.0099 14.3135 15.9054 10.2259 15.1717 5.91669C14.4381 1.60745 10.3531 -1.29165 6.04776 -0.558656C1.74239 0.174342 -1.15306 4.26188 -0.419402 8.57111C0.314254 12.8803 4.39919 15.7794 8.70456 15.0465Z" fill="#40C6FF"/>
<path d="M5.98753 8.03264C6.3955 7.96319 6.66987 7.57586 6.60035 7.16752C6.53083 6.75918 6.14374 6.48446 5.73577 6.55392C5.3278 6.62338 5.05343 7.01071 5.12295 7.41905C5.19247 7.82739 5.57955 8.1021 5.98753 8.03264Z" fill="#1F2020"/>
<path d="M10.7405 6.85442C11.1484 6.78496 11.4228 6.39763 11.3533 5.9893C11.2838 5.58096 10.8967 5.30624 10.4887 5.3757C10.0807 5.44516 9.80636 5.83249 9.87588 6.24083C9.9454 6.64916 10.3325 6.92388 10.7405 6.85442Z" fill="#1F2020"/>
<path d="M7.50854 8.01514C7.50854 8.01514 8.56314 8.51503 9.70544 7.46392" stroke="#1F2020" stroke-miterlimit="10" stroke-linecap="round" stroke-linejoin="round"/>
</g>
</g>
</svg>
