<svg width="50" height="14" viewBox="0 0 50 14" fill="none" xmlns="http://www.w3.org/2000/svg">
<path d="M17.9657 8.94547C18.4681 8.94547 18.8754 8.55264 18.8754 8.06807C18.8754 7.5835 18.4681 7.19067 17.9657 7.19067C17.4632 7.19067 17.0559 7.5835 17.0559 8.06807C17.0559 8.55264 17.4632 8.94547 17.9657 8.94547Z" fill="#5F2DDF"/>
<path d="M1.39681 4.72333L6.8928 1.91536L12.4231 4.72183C12.4527 4.73685 12.4823 4.75038 12.5119 4.76239C12.5228 4.7669 12.5337 4.76991 12.5446 4.77441C12.5617 4.78042 12.5788 4.78643 12.596 4.79094C12.6131 4.79545 12.6302 4.79995 12.6474 4.80296C12.6598 4.80596 12.6708 4.80897 12.6832 4.81047C12.7019 4.81348 12.7206 4.81648 12.7377 4.81798C12.7486 4.81949 12.7611 4.82099 12.772 4.82249C12.7891 4.82399 12.8063 4.82399 12.8234 4.8255C12.8374 4.8255 12.8499 4.827 12.8639 4.827C12.8779 4.827 12.892 4.8255 12.9075 4.8255C12.9231 4.8255 12.9403 4.82399 12.9558 4.82249C12.9667 4.82099 12.9792 4.81949 12.9901 4.81798C13.0088 4.81498 13.0275 4.81348 13.0462 4.80897C13.0555 4.80747 13.0649 4.80446 13.0742 4.80296C13.0945 4.79845 13.1147 4.79394 13.1334 4.78794C13.1428 4.78493 13.1521 4.78193 13.1615 4.77892C13.1802 4.77291 13.1989 4.7669 13.2175 4.75939C13.2316 4.75338 13.2456 4.74737 13.2596 4.73986C13.2721 4.73385 13.2861 4.72934 13.2986 4.72183C13.3266 4.70681 13.3546 4.69178 13.3811 4.67375L14.1367 4.18698C14.5651 3.91204 14.6803 3.35315 14.3953 2.93999C14.1102 2.52684 13.5307 2.41566 13.1023 2.6906L12.8032 2.8829L7.32587 0.103478C7.05326 -0.034742 6.72767 -0.034742 6.45505 0.10498L0.524435 3.1338C0.0695513 3.36667 -0.104924 3.91054 0.136538 4.34924C0.378 4.78944 0.94193 4.9562 1.39681 4.72333Z" fill="#5F2DDF"/>
<path d="M4.22974 3.81299C3.80134 3.81299 3.45239 4.14802 3.45239 4.56268C3.45239 4.97584 3.79979 5.31237 4.22974 5.31237H9.59643C10.0248 5.31237 10.3738 4.97734 10.3738 4.56268C10.3738 4.14952 10.0264 3.81299 9.59643 3.81299H4.22974Z" fill="#5F2DDF"/>
<path d="M8.20173 10.7809L6.97729 11.5682C6.54889 11.8431 6.43361 12.402 6.71869 12.8152C7.00377 13.2283 7.58328 13.3395 8.01168 13.0646L9.23612 12.2773C9.66452 12.0024 9.7798 11.4435 9.49472 11.0303C9.20964 10.6172 8.63013 10.5045 8.20173 10.7809Z" fill="#5F2DDF"/>
<path d="M15.3732 8.84333L12.4165 10.6717V9.81989C12.4149 9.47284 12.3012 9.14531 12.0753 8.87488C11.9616 8.73967 11.8183 8.61948 11.6407 8.52933C11.4864 8.45121 11.3026 8.40013 11.1126 8.38961V7.04647C11.1126 6.88271 11.0705 6.72496 10.9988 6.59125C10.8929 6.38993 10.7325 6.2442 10.5549 6.14654C10.3757 6.04888 10.1748 5.9978 9.96446 5.9978H3.75655C3.47614 5.99931 3.21131 6.08795 2.99634 6.26072C2.88885 6.34786 2.79382 6.45753 2.72216 6.59125C2.65206 6.72496 2.60844 6.88271 2.60844 7.04647V8.38961C2.41838 8.40013 2.23456 8.45121 2.08034 8.52933C1.81395 8.66455 1.6239 8.86587 1.49616 9.08672C1.36997 9.30908 1.30299 9.55847 1.30299 9.81839V11.782L0.41503 12.3529C-0.0133701 12.6279 -0.128649 13.1867 0.156432 13.5999C0.441513 14.0131 1.02102 14.1242 1.44942 13.8493L2.43864 13.2138H4.05254C4.16003 13.2183 4.26752 13.2048 4.37189 13.1732L4.375 13.1717C4.40149 13.1642 4.42797 13.1552 4.4529 13.1447C4.46536 13.1402 4.47782 13.1342 4.49028 13.1282C4.5043 13.1221 4.51832 13.1161 4.53079 13.1086C4.56194 13.0921 4.5931 13.0741 4.62114 13.0545L5.83157 12.2763C6.25997 12.0014 6.37524 11.4425 6.09016 11.0293C5.80508 10.6162 5.22557 10.505 4.79717 10.7799L3.81107 11.4139H3.16925V10.182H10.5518V12.1907C10.5518 12.2117 10.5533 12.2327 10.5549 12.2523C10.5409 12.4386 10.586 12.6309 10.6997 12.8006C10.977 13.2183 11.555 13.34 11.9881 13.0726L16.3811 10.3562C16.8142 10.0888 16.9404 9.53143 16.6631 9.11376C16.3842 8.6976 15.8078 8.57591 15.3732 8.84333ZM4.16314 7.49569H9.55787V8.3851H4.16314V7.49569Z" fill="#5F2DDF"/>
<path d="M49.843 2.26696C49.5579 1.8538 48.9784 1.74263 48.55 2.01757L47.8864 2.44424C47.6138 2.62002 47.4689 2.90848 47.472 3.20295C47.472 3.20596 47.472 3.20896 47.472 3.21347V8.09925L43.0167 2.63805C42.7705 2.33757 42.3546 2.21889 41.9792 2.34509C41.6037 2.46979 41.3514 2.81233 41.3514 3.19544V9.45441L39.1735 10.8636C38.7467 11.1401 38.6314 11.699 38.9196 12.1121C39.2062 12.5238 39.7857 12.635 40.2141 12.357L42.7721 10.7014C42.8624 10.6428 42.9388 10.5707 43.0011 10.4896C43.1366 10.3333 43.2176 10.1335 43.2176 9.91414V5.79007L47.6714 11.2513C47.9176 11.5517 48.3335 11.6704 48.7089 11.5442C49.0844 11.4195 49.3367 11.077 49.3367 10.6939V3.6732L49.5844 3.51395C50.0128 3.23901 50.1297 2.68012 49.843 2.26696Z" fill="#5F2DDF"/>
<path d="M29.3214 5.80979C29.122 4.97596 28.7544 4.30589 28.3073 3.79959C27.9723 3.41948 27.5969 3.13403 27.2308 2.92219C26.6778 2.60518 26.1466 2.45194 25.7447 2.37382C25.3427 2.29569 25.0701 2.29419 25.0234 2.29419H24.137C23.6213 2.29419 23.2038 2.69683 23.2038 3.19412C23.2038 3.69141 23.6213 4.09405 24.137 4.09405H25.0156C25.0187 4.09405 25.2041 4.09856 25.4627 4.15716C25.6574 4.20072 25.8942 4.27434 26.1294 4.39153C26.307 4.48017 26.4846 4.59285 26.6529 4.73708C26.9052 4.95493 27.1373 5.24188 27.3212 5.66255C27.5034 6.08322 27.6327 6.64512 27.6327 7.40683C27.6327 7.86957 27.5844 8.25869 27.505 8.58771C27.3648 9.16162 27.1389 9.54774 26.8865 9.8362C26.6965 10.051 26.4862 10.2133 26.2728 10.3365C25.9518 10.5228 25.62 10.6219 25.3723 10.67C25.2493 10.6941 25.1496 10.7061 25.0841 10.7121C25.0514 10.7151 25.0296 10.7166 25.0171 10.7166H25.0094H23.168V5.42367C23.168 5.41766 23.1665 5.41165 23.1665 5.40564C23.1665 5.39212 23.1649 5.3786 23.1649 5.36508C23.1633 5.34404 23.1618 5.32451 23.1587 5.30348C23.1587 5.30048 23.1571 5.29747 23.1571 5.29296C23.0917 4.85877 22.7038 4.52374 22.2364 4.52374C22.0246 4.52374 21.8299 4.59285 21.6725 4.70703L19.7985 5.80828C19.3592 6.0667 19.2189 6.61958 19.4869 7.04475C19.7548 7.46843 20.3281 7.60364 20.769 7.34523L21.3049 7.03123V11.6135C21.3049 11.8509 21.4046 12.0823 21.5775 12.249C21.7504 12.4158 21.9919 12.512 22.2364 12.512H25.0218H25.0265C25.0748 12.512 25.3552 12.5074 25.7665 12.4248C26.0749 12.3617 26.4581 12.255 26.8678 12.0642C27.1747 11.9215 27.4972 11.7307 27.8072 11.4783C28.273 11.0997 28.7076 10.5754 29.013 9.89629C29.3198 9.21721 29.4974 8.38939 29.4959 7.40382C29.4974 6.81639 29.4351 6.28604 29.3214 5.80979Z" fill="#5F2DDF"/>
<path d="M39.3981 8.83415L36.2887 2.79153C36.1314 2.48504 35.8073 2.29123 35.4537 2.29273C35.1001 2.29273 34.776 2.48654 34.6187 2.79303L30.7771 10.2749L29.8066 10.8458C29.3673 11.1043 29.2287 11.6586 29.4966 12.0823C29.7645 12.506 30.3394 12.6397 30.7787 12.3813L31.9782 11.6737C31.9844 11.6692 31.9907 11.6647 31.9969 11.6616C32.014 11.6511 32.0296 11.6406 32.0467 11.6286C32.0561 11.6211 32.0654 11.6151 32.0748 11.6076C32.0888 11.597 32.1028 11.585 32.1168 11.573C32.1262 11.564 32.1371 11.555 32.1464 11.546C32.1589 11.5339 32.1698 11.5234 32.1807 11.5114C32.1916 11.5009 32.201 11.4889 32.2103 11.4784C32.2197 11.4678 32.229 11.4558 32.2384 11.4438C32.2477 11.4303 32.2586 11.4183 32.268 11.4047C32.2757 11.3942 32.2835 11.3837 32.2898 11.3717C32.2991 11.3567 32.3069 11.3416 32.3162 11.3266C32.3209 11.3191 32.3256 11.3116 32.3287 11.3041L35.4553 5.21488L37.7281 9.63192C37.9571 10.0766 38.5164 10.2584 38.9775 10.0376C39.4386 9.81972 39.6271 9.28036 39.3981 8.83415Z" fill="#5F2DDF"/>
</svg>
