<svg width="22" height="24" viewBox="0 0 22 24" fill="none" xmlns="http://www.w3.org/2000/svg">
<path d="M19.5448 5.0163L12.201 0.774878C11.4578 0.345549 10.5424 0.345549 9.7992 0.774878L2.45541 5.0163C1.71222 5.44533 1.25464 6.23864 1.25464 7.09701V16.903C1.25464 17.7614 1.71222 18.5544 2.45541 18.9837L9.7992 23.2254C10.5421 23.6545 11.4578 23.6545 12.201 23.2254L19.5448 18.9837C20.2877 18.5547 20.7456 17.7614 20.7456 16.903V7.09701C20.7456 6.23893 20.2877 5.44563 19.5448 5.0163Z" fill="white"/>
<path d="M19.5448 5.01643L19.6333 4.86286L12.2895 0.621443C11.8905 0.390806 11.4449 0.275635 11 0.275635C10.5547 0.275635 10.1094 0.390806 9.71042 0.621443L2.36693 4.86316C1.56895 5.32384 1.07739 6.17576 1.07739 7.09743V16.9034C1.07739 17.8251 1.56895 18.6767 2.36693 19.1374L9.71072 23.3791C10.1097 23.6095 10.555 23.7246 11 23.7246C11.4449 23.7246 11.8905 23.6095 12.2895 23.3791L19.6333 19.1374C20.431 18.6767 20.9225 17.8251 20.9225 16.9034V7.09713C20.9225 6.17547 20.431 5.32384 19.6333 4.86286L19.5448 5.01643L19.4563 5.16969C20.1445 5.56708 20.5686 6.30207 20.5686 7.09713V16.9031C20.5686 17.6982 20.1445 18.4329 19.4563 18.8303L12.1123 23.072C11.7681 23.2707 11.384 23.37 11 23.37C10.6156 23.37 10.2319 23.2707 9.88765 23.072L2.54387 18.8303C1.85545 18.4329 1.43156 17.6982 1.43156 16.9031V7.09713C1.43156 6.30207 1.85545 5.56708 2.54387 5.16969L9.88765 0.928274C10.2319 0.729288 10.6156 0.629941 11 0.629941C11.384 0.629941 11.7681 0.729288 12.1123 0.928274L19.4561 5.16969L19.5448 5.01643Z" fill="#390099"/>
<path d="M19.5448 5.01657L12.201 0.775146C11.8296 0.560335 11.4148 0.453369 11.0002 0.453369V23.5478C11.4148 23.5478 11.8296 23.4405 12.201 23.226L19.5448 18.9843C20.2877 18.5552 20.7456 17.7619 20.7456 16.9036V7.09727C20.7456 6.2392 20.2877 5.4459 19.5448 5.01657Z" fill="white"/>
<path d="M19.5448 8.55348L12.201 4.31177C11.4578 3.88273 10.5424 3.88273 9.7992 4.31177L2.45541 8.55348C1.71222 8.98252 1.25464 9.77582 1.25464 10.6342V16.9033C1.25464 17.7616 1.71222 18.5547 2.45541 18.984L9.7992 23.2257C10.5421 23.6547 11.4578 23.6547 12.201 23.2257L19.5448 18.984C20.2877 18.5549 20.7456 17.7616 20.7456 16.9033V10.6342C20.7456 9.77582 20.2877 8.98252 19.5448 8.55348Z" fill="#FB607E"/>
<path d="M19.5448 8.55348L12.201 4.31177C11.8296 4.09725 11.4148 3.98999 11.0002 3.98999V4.82315C11.384 4.82315 11.768 4.9225 12.112 5.12119L18.9109 9.04816C19.599 9.44555 20.0226 10.1799 20.0226 10.9747V11.094C20.0226 11.8888 19.5987 12.6229 18.9109 13.0203L12.112 16.9472C11.768 17.1459 11.3843 17.2453 11.0002 17.2453V23.5475C11.4148 23.5475 11.8296 23.4402 12.201 23.2257L19.5448 18.984C20.2877 18.5549 20.7456 17.7616 20.7456 16.9033V10.6342C20.7456 9.77582 20.2877 8.98252 19.5448 8.55348Z" fill="#5F2DDF"/>
<path d="M18.9106 9.04801L12.1117 5.12104C11.7678 4.92234 11.384 4.823 11 4.823V17.2451C11.3838 17.2451 11.7678 17.1458 12.1117 16.9471L18.9106 13.0201C19.5988 12.6227 20.0224 11.8883 20.0224 11.0935V10.9743C20.0226 10.1798 19.5988 9.44539 18.9106 9.04801Z" fill="#5C467A"/>
<path d="M18.9105 9.048L12.1116 5.12104C11.4238 4.72365 10.576 4.72365 9.88818 5.12104L3.08926 9.048C2.40114 9.44539 1.97754 10.1798 1.97754 10.9746V11.0938C1.97754 11.8886 2.40114 12.6227 3.08926 13.0201L9.88818 16.9471C10.5763 17.3444 11.4238 17.3444 12.1116 16.9471L18.9105 13.0201C19.5987 12.6227 20.0223 11.8883 20.0223 11.0938V10.9746C20.0226 10.1798 19.5987 9.44539 18.9105 9.048Z" fill="#4F21C3"/>
<path d="M9.65969 15.9044C10.4893 16.3835 11.5111 16.3835 12.3404 15.9044L19.3643 11.8476C18.6451 5.85719 15.527 1.14014 10.9999 1.14014C6.47276 1.14014 3.35467 5.85719 2.6355 11.8476L9.65969 15.9044Z" fill="white"/>
<path d="M9.65987 15.9043L9.61564 15.9808C10.0439 16.2284 10.5223 16.3521 11.0004 16.3521C11.4785 16.3521 11.9565 16.2284 12.3851 15.9808L19.4597 11.8947L19.4527 11.8367C19.0915 8.82931 18.1289 6.13875 16.6814 4.19431C15.2355 2.25017 13.2962 1.05068 11.0004 1.05127C8.70458 1.05068 6.7653 2.25017 5.31904 4.19431C3.8719 6.13904 2.909 8.82931 2.5478 11.8367L2.54077 11.8947L9.61564 15.9808L9.65987 15.9043L9.70411 15.8275L2.67992 11.7707L2.63568 11.8475L2.72357 11.8581C3.08154 8.87503 4.03771 6.21172 5.46112 4.30011C6.8857 2.38791 8.76903 1.22886 11.0004 1.22828C13.2314 1.22886 15.1148 2.38791 16.5396 4.30011C17.963 6.21172 18.9189 8.87503 19.2769 11.8581L19.3648 11.8475L19.3205 11.7707L12.2964 15.8275C11.8953 16.059 11.4477 16.1751 11.0001 16.1751C10.5525 16.1751 10.1049 16.0593 9.70381 15.8275L9.65987 15.9043Z" fill="#390099"/>
<path d="M11.4701 1.15894C12.0021 1.86931 12.4875 2.66525 12.9099 3.52889C14.9236 7.64576 12.8416 11.3518 9.49066 12.565C7.14741 13.4137 4.50242 12.9267 2.75092 11.0358C2.70815 11.304 2.6686 11.5739 2.6355 11.8479L9.65969 15.9047C10.4893 16.3839 11.5111 16.3839 12.3404 15.9047L19.3643 11.8479C18.6703 6.06706 15.7421 1.47368 11.4701 1.15894Z" fill="#FFF1EB"/>
<path d="M19.7158 11.8054C19.3494 8.76145 18.3771 6.03015 16.8939 4.0359C16.1522 3.03921 15.2804 2.22715 14.2908 1.66301C13.3016 1.09858 12.1934 0.785303 10.9999 0.785889C9.80646 0.785303 8.69825 1.09858 7.70899 1.66301C6.22377 2.51024 5.00659 3.91164 4.09056 5.66324C3.17482 7.41573 2.55818 9.52223 2.28369 11.8054L2.25586 12.0375L9.48246 16.2113C9.95175 16.4823 10.4761 16.618 10.9999 16.618C11.5237 16.618 12.0481 16.4823 12.5173 16.2113L19.7437 12.0375L19.7158 11.8054ZM12.1635 15.5976C11.8034 15.8054 11.4018 15.9094 11.0002 15.9097C10.5983 15.9097 10.1969 15.8057 9.83692 15.5976L9.65998 15.9044L9.83692 15.5976L3.0178 11.6595C3.3916 8.80746 4.32257 6.27222 5.67391 4.45907C6.36731 3.52744 7.16909 2.78601 8.05964 2.27872C8.95077 1.77144 9.93008 1.49509 10.9999 1.4945C12.07 1.49509 13.049 1.77144 13.9402 2.27872C15.2757 3.03921 16.4129 4.32954 17.2815 5.99147C18.1196 7.5942 18.7022 9.54069 18.9805 11.6604L12.1635 15.5976Z" fill="#4F21C3"/>
<path d="M4.25808 16.8756L3.24626 16.3048C3.06669 16.2034 2.91992 15.9736 2.91992 15.7942C2.91992 15.6149 3.06669 15.5504 3.24626 15.6518L4.25808 16.2227C4.43766 16.3238 4.58442 16.5539 4.58442 16.7332C4.58442 16.9131 4.43766 16.977 4.25808 16.8756Z" fill="#5F2DDF"/>
<path d="M8.04856 19.0087L7.03703 18.4378C6.85746 18.3364 6.71069 18.1067 6.71069 17.9273C6.71069 17.748 6.85775 17.6838 7.03703 17.7852L8.04856 18.3561C8.22814 18.4575 8.3749 18.6872 8.3749 18.8666C8.3749 19.0459 8.22784 19.1098 8.04856 19.0087Z" fill="#5F2DDF"/>
<path d="M19.5448 5.01643L19.7217 4.7096L12.3779 0.468178C11.9517 0.221717 11.4754 0.0986328 10.9999 0.0986328C10.5242 0.0986328 10.0482 0.221717 9.62194 0.468178L2.27815 4.7096C1.42539 5.20194 0.900146 6.11217 0.900146 7.09714V16.9031C0.900146 17.8881 1.42539 18.798 2.27815 19.2907L9.62194 23.5324C10.0482 23.7786 10.5242 23.9016 10.9999 23.9016C11.4757 23.9016 11.9517 23.7786 12.3779 23.5324L19.722 19.2907C20.5745 18.7983 21.1 17.8881 21.1 16.9031V7.09714C21.1 6.11217 20.5748 5.20194 19.722 4.7096L19.5448 5.01643L19.3676 5.32326C20.0009 5.689 20.3914 6.36537 20.3914 7.09714V16.9031C20.3914 17.6349 20.0009 18.311 19.3676 18.677L12.0238 22.9187C11.7068 23.1016 11.3535 23.193 10.9999 23.193C10.6461 23.193 10.2931 23.1016 9.97611 22.9187L2.63232 18.677C1.99868 18.3113 1.60848 17.6349 1.60848 16.9031V7.09714C1.60848 6.36537 1.99868 5.689 2.63232 5.32326L9.97611 1.08184C10.2931 0.89868 10.6461 0.807246 10.9999 0.807246C11.3535 0.807246 11.7068 0.89868 12.0238 1.08184L19.3676 5.32355L19.5448 5.01643Z" fill="#4F21C3"/>
</svg>
