<svg width="24" height="24" viewBox="0 0 24 24" fill="none" xmlns="http://www.w3.org/2000/svg">
<path d="M9 12.75C8.30964 12.75 7.75 13.3096 7.75 14C7.75 14.6904 8.30964 15.25 9 15.25V12.75ZM15 15.25C15.6904 15.25 16.25 14.6904 16.25 14C16.25 13.3096 15.6904 12.75 15 12.75V15.25ZM9 8.75C8.30964 8.75 7.75 9.30964 7.75 10C7.75 10.6904 8.30964 11.25 9 11.25V8.75ZM15 11.25C15.6904 11.25 16.25 10.6904 16.25 10C16.25 9.30964 15.6904 8.75 15 8.75V11.25ZM12 20.75H6V23.25H12V20.75ZM3.25 18V12H0.75V18H3.25ZM6 20.75C4.48122 20.75 3.25 19.5188 3.25 18H0.75C0.75 20.8995 3.10051 23.25 6 23.25V20.75ZM20.75 12C20.75 16.8325 16.8325 20.75 12 20.75V23.25C18.2132 23.25 23.25 18.2132 23.25 12H20.75ZM12 3.25C16.8325 3.25 20.75 7.16751 20.75 12H23.25C23.25 5.7868 18.2132 0.75 12 0.75V3.25ZM12 0.75C5.7868 0.75 0.75 5.7868 0.75 12H3.25C3.25 7.16751 7.16751 3.25 12 3.25V0.75ZM9 15.25H15V12.75H9V15.25ZM9 11.25L15 11.25V8.75L9 8.75V11.25Z" fill="#2C3033"/>
</svg>
