<svg width="79" height="95" viewBox="0 0 79 95" fill="none" xmlns="http://www.w3.org/2000/svg">
<g opacity="0.7">
<mask id="mask0" mask-type="alpha" maskUnits="userSpaceOnUse" x="0" y="1" width="79" height="93">
<path d="M74.9993 74.5093L43.4993 92.6915C41.0244 94.1201 37.9756 94.1201 35.5007 92.6915L4.0007 74.5093C1.5251 73.0803 0 70.4391 0 67.5807V27.4193C0 24.5609 1.5251 21.9197 4.0007 20.4907L35.5007 2.30846C37.9756 0.879934 41.0244 0.879932 43.4993 2.30845L74.9993 20.4907C77.4749 21.9197 79 24.5609 79 27.4193V67.5807C79 70.4391 77.4749 73.0803 74.9993 74.5093Z" fill="#E73C65"/>
</mask>
<g mask="url(#mask0)">
<mask id="mask1" mask-type="alpha" maskUnits="userSpaceOnUse" x="0" y="1" width="79" height="48">
<path fill-rule="evenodd" clip-rule="evenodd" d="M0 48.4193C0 45.5609 1.5251 42.9197 4.0007 41.4907L35.5007 23.3085C37.9756 21.8799 41.0244 21.8799 43.4993 23.3085L74.9993 41.4907C77.4749 42.9197 79 45.5609 79 48.4193V27.4193C79 24.5609 77.4749 21.9197 74.9993 20.4907L43.4993 2.30845C41.0244 0.879929 37.9756 0.879931 35.5007 2.30845L4.0007 20.4907C1.5251 21.9197 0 24.5609 0 27.4193V48.4193Z" fill="#E73C65"/>
</mask>
<g mask="url(#mask1)">
<path d="M-3 15.8723C-3 14.4097 -2.20172 13.0637 -0.918267 12.3623L34.0817 -6.7656C36.7473 -8.22237 40 -6.29325 40 -3.25558V22.1277C40 23.5903 39.2017 24.9363 37.9183 25.6377L2.91827 44.7656C0.252691 46.2224 -3 44.2933 -3 41.2556V15.8723Z" fill="#AAAFB7"/>
<path d="M83 15.8723C83 14.4097 82.2017 13.0637 80.9183 12.3623L45.9183 -6.7656C43.2527 -8.22237 40 -6.29325 40 -3.25558V22.1277C40 23.5903 40.7983 24.9363 42.0817 25.6377L77.0817 44.7656C79.7473 46.2224 83 44.2933 83 41.2556V15.8723Z" fill="#E9ECEF"/>
</g>
<path fill-rule="evenodd" clip-rule="evenodd" d="M43.4993 92.6915L74.9993 74.5093C77.4749 73.0803 79 70.4391 79 67.5807V47.4193C79 44.5609 77.4749 41.9197 74.9993 40.4907L43.4993 22.3085C41.0244 20.8799 37.9756 20.8799 35.5007 22.3085L4.0007 40.4907C1.5251 41.9197 0 44.5609 0 47.4193V67.5807C0 70.4391 1.5251 73.0803 4.0007 74.5093L35.5007 92.6915C37.9756 94.1201 41.0244 94.1201 43.4993 92.6915Z" fill="#E73C65"/>
<path d="M40 67.8723C40 66.4097 40.7983 65.0637 42.0817 64.3623L77.0817 45.2344C79.7473 43.7776 83 45.7067 83 48.7444V74.1277C83 75.5903 82.2017 76.9363 80.9183 77.6377L45.9183 96.7656C43.2527 98.2224 40 96.2933 40 93.2556V67.8723Z" fill="#D70051"/>
<path d="M37.5329 67.8891L2.18395 47.9248C-0.530311 46.3919 -0.525684 42.4809 2.1922 40.9543L37.5412 21.1002C38.7577 20.4169 40.2423 20.4169 41.4588 21.1002L76.8078 40.9543C79.5257 42.4809 79.5303 46.3919 76.816 47.9248L41.4671 67.889C40.2463 68.5785 38.7537 68.5785 37.5329 67.8891Z" fill="#FF8CB2"/>
<path d="M37.5371 63.8945L6.10274 46.1908C4.74283 45.4249 4.74514 43.4659 6.10686 42.7032L37.5453 25.0948C38.7597 24.4146 40.2403 24.4146 41.4547 25.0948L72.8931 42.7032C74.2549 43.4659 74.2572 45.4249 72.8973 46.1908L41.4629 63.8945C40.2443 64.5808 38.7557 64.5808 37.5371 63.8945Z" fill="#2E27A4"/>
</g>
<path d="M79 46.4999V25.9873C79 23.8312 77.8432 21.8409 75.9697 20.7738L42.4697 1.69151C40.6288 0.642867 38.3712 0.642868 36.5303 1.69151L3.03028 20.7738C1.15683 21.8409 0 23.8312 0 25.9873V44.1749C0 45.6123 0.77122 46.9392 2.02019 47.6506L37.5202 67.8721C38.7475 68.5712 40.2525 68.5712 41.4798 67.8721L79 46.4999Z" fill="url(#paint0_linear)" fill-opacity="0.9"/>
<path d="M6.74418 61.6976C6.0249 61.2866 5.10862 61.5365 4.6976 62.2558C4.28659 62.9751 4.53648 63.8913 5.25576 64.3024L6.74418 61.6976ZM12.2558 68.3024C12.975 68.7134 13.8913 68.4635 14.3023 67.7442C14.7133 67.0249 14.4635 66.1087 13.7442 65.6976L12.2558 68.3024ZM5.25576 64.3024L12.2558 68.3024L13.7442 65.6976L6.74418 61.6976L5.25576 64.3024Z" fill="#FF718B"/>
<path d="M23.7059 70.6765C22.9749 70.2866 22.0663 70.5632 21.6764 71.2941C21.2866 72.0251 21.5631 72.9337 22.2941 73.3235L23.7059 70.6765ZM29.7941 77.3235C30.5251 77.7134 31.4337 77.4368 31.8235 76.7059C32.2133 75.9749 31.9368 75.0663 31.2059 74.6765L29.7941 77.3235ZM22.2941 73.3235L29.7941 77.3235L31.2059 74.6765L23.7059 70.6765L22.2941 73.3235Z" fill="#FF718B"/>
</g>
<defs>
<linearGradient id="paint0_linear" x1="-23.5" y1="42.9999" x2="95.7057" y2="38.4372" gradientUnits="userSpaceOnUse">
<stop stop-color="white"/>
<stop offset="1" stop-color="white" stop-opacity="0"/>
</linearGradient>
</defs>
</svg>
