<svg width="82" height="25" viewBox="0 0 82 25" fill="none" xmlns="http://www.w3.org/2000/svg">
<path d="M29.4632 16.2567C30.2872 16.2567 30.9552 15.5833 30.9552 14.7526C30.9552 13.9219 30.2872 13.2485 29.4632 13.2485C28.6392 13.2485 27.9712 13.9219 27.9712 14.7526C27.9712 15.5833 28.6392 16.2567 29.4632 16.2567Z" fill="#2D210D"/>
<path d="M2.29098 9.01898L11.3044 4.20534L20.374 9.01641C20.4225 9.04216 20.4711 9.06534 20.5196 9.08595C20.5375 9.09367 20.5554 9.09882 20.5733 9.10655C20.6014 9.11685 20.6295 9.12715 20.6576 9.13488C20.6857 9.14261 20.7138 9.15033 20.7419 9.15548C20.7623 9.16063 20.7802 9.16579 20.8007 9.16836C20.8313 9.17351 20.862 9.17866 20.8901 9.18124C20.908 9.18382 20.9284 9.18639 20.9463 9.18897C20.9744 9.19154 21.0025 9.19154 21.0306 9.19412C21.0536 9.19412 21.074 9.19669 21.097 9.19669C21.12 9.19669 21.143 9.19412 21.1686 9.19412C21.1941 9.19412 21.2222 9.19154 21.2478 9.18897C21.2656 9.18639 21.2861 9.18382 21.304 9.18124C21.3346 9.17609 21.3653 9.17351 21.3959 9.16579C21.4113 9.16321 21.4266 9.15806 21.4419 9.15548C21.4751 9.14776 21.5083 9.14003 21.539 9.12973C21.5543 9.12458 21.5697 9.11943 21.585 9.11428C21.6157 9.10397 21.6463 9.09367 21.677 9.08079C21.7 9.07049 21.723 9.06019 21.7459 9.04731C21.7664 9.03701 21.7894 9.02928 21.8098 9.01641C21.8558 8.99065 21.9018 8.9649 21.9452 8.93399L23.1843 8.09952C23.8869 7.6282 24.0759 6.67011 23.6084 5.96184C23.1409 5.25357 22.1905 5.06299 21.4879 5.53431L20.9974 5.86397L12.0146 1.09927C11.5675 0.862317 11.0336 0.862317 10.5865 1.10184L0.86028 6.29408C0.114272 6.69329 -0.171868 7.62563 0.22413 8.37768C0.620127 9.1323 1.54497 9.41819 2.29098 9.01898Z" fill="#2D210D"/>
<path d="M6.93634 7.4585C6.23376 7.4585 5.66148 8.03284 5.66148 8.74368C5.66148 9.45194 6.23121 10.0289 6.93634 10.0289H15.7377C16.4403 10.0289 17.0126 9.45452 17.0126 8.74368C17.0126 8.03541 16.4428 7.4585 15.7377 7.4585H6.93634Z" fill="#2D210D"/>
<path d="M13.4504 19.4033L11.4423 20.7529C10.7398 21.2242 10.5507 22.1823 11.0182 22.8906C11.4858 23.5988 12.4362 23.7894 13.1387 23.3181L15.1468 21.9685C15.8494 21.4972 16.0385 20.5391 15.5709 19.8309C15.1034 19.1226 14.153 18.9294 13.4504 19.4033Z" fill="#2D210D"/>
<path d="M25.212 16.0816L20.363 19.216V17.7557C20.3604 17.1608 20.1739 16.5993 19.8035 16.1357C19.617 15.9039 19.3819 15.6979 19.0907 15.5434C18.8378 15.4094 18.5363 15.3219 18.2246 15.3038V13.0013C18.2246 12.7206 18.1556 12.4502 18.0381 12.2209C17.8644 11.8758 17.6012 11.626 17.31 11.4586C17.0162 11.2912 16.6866 11.2036 16.3417 11.2036H6.16074C5.70087 11.2062 5.26655 11.3581 4.91398 11.6543C4.7377 11.8037 4.58186 11.9917 4.46434 12.2209C4.34937 12.4502 4.27783 12.7206 4.27783 13.0013V15.3038C3.96615 15.3219 3.66468 15.4094 3.41175 15.5434C2.97488 15.7752 2.66319 16.1203 2.45369 16.4989C2.24675 16.8801 2.1369 17.3076 2.1369 17.7532V21.1194L0.680648 22.0981C-0.0219269 22.5694 -0.210984 23.5275 0.256548 24.2357C0.72408 24.944 1.67447 25.1346 2.37705 24.6633L3.99936 23.5738H6.64615C6.82243 23.5816 6.99872 23.5584 7.16989 23.5043L7.175 23.5017C7.21843 23.4888 7.26186 23.4734 7.30274 23.4554C7.32318 23.4476 7.34362 23.4373 7.36406 23.427C7.38705 23.4167 7.41004 23.4064 7.43048 23.3935C7.48158 23.3652 7.53267 23.3343 7.57866 23.3008L9.56376 21.9667C10.2663 21.4954 10.4554 20.5373 9.98786 19.829C9.52032 19.1208 8.56993 18.9302 7.86736 19.4015L6.25015 20.4884H5.19757V18.3764H17.3049V21.8199C17.3049 21.856 17.3074 21.892 17.31 21.9255C17.287 22.2449 17.3611 22.5745 17.5476 22.8656C18.0023 23.5816 18.9502 23.7902 19.6604 23.3317L26.865 18.6752C27.5752 18.2167 27.7822 17.2612 27.3274 16.5452C26.8701 15.8318 25.9248 15.6232 25.212 16.0816ZM6.82754 13.7714H15.6749V15.2961H6.82754V13.7714Z" fill="#2D210D"/>
<path d="M81.7423 4.80823C81.2748 4.09997 80.3244 3.90938 79.6218 4.3807L78.5335 5.11214C78.0864 5.41348 77.8488 5.90798 77.8539 6.41278C77.8539 6.41793 77.8539 6.42308 77.8539 6.43081V14.8064L70.5471 5.44439C70.1434 4.92928 69.4613 4.72582 68.8456 4.94216C68.2299 5.15593 67.816 5.74315 67.816 6.3999V17.1295L64.2443 19.5453C63.5443 20.0192 63.3553 20.9773 63.8279 21.6856C64.298 22.3913 65.2484 22.5819 65.951 22.1054L70.146 19.2672C70.2942 19.1667 70.4193 19.0431 70.5215 18.904C70.7438 18.6362 70.8767 18.2936 70.8767 17.9176V10.8478L78.1809 20.2098C78.5845 20.7249 79.2667 20.9284 79.8824 20.7121C80.4981 20.4983 80.912 19.9111 80.912 19.2543V7.21892L81.3182 6.94591C82.0208 6.47459 82.2124 5.5165 81.7423 4.80823Z" fill="#2D210D"/>
<path d="M48.0867 10.8817C47.7597 9.45228 47.1567 8.3036 46.4235 7.43565C45.8742 6.78404 45.2585 6.29469 44.6581 5.93155C43.7511 5.38811 42.88 5.12541 42.2208 4.99148C41.5617 4.85756 41.1146 4.85498 41.0379 4.85498H39.5842C38.7386 4.85498 38.0539 5.54522 38.0539 6.39772C38.0539 7.25021 38.7386 7.94045 39.5842 7.94045H41.0252C41.0303 7.94045 41.3343 7.94818 41.7584 8.04862C42.0777 8.12331 42.4661 8.24951 42.8519 8.4504C43.1431 8.60236 43.4344 8.79552 43.7103 9.04277C44.1242 9.41622 44.5048 9.90815 44.8063 10.6293C45.1052 11.3504 45.3173 12.3137 45.3173 13.6195C45.3173 14.4127 45.2381 15.0798 45.1078 15.6438C44.8778 16.6277 44.5074 17.2896 44.0935 17.7841C43.7818 18.1524 43.4369 18.4305 43.0869 18.6417C42.5606 18.9611 42.0164 19.1311 41.6102 19.2135C41.4084 19.2547 41.2449 19.2753 41.1376 19.2856C41.0839 19.2908 41.0482 19.2933 41.0277 19.2933H41.0149H37.9951V10.2198C37.9951 10.2095 37.9926 10.1992 37.9926 10.1889C37.9926 10.1657 37.99 10.1425 37.99 10.1193C37.9875 10.0833 37.9849 10.0498 37.9798 10.0137C37.9798 10.0086 37.9773 10.0034 37.9773 9.99571C37.87 9.25139 37.2338 8.67705 36.4674 8.67705C36.1199 8.67705 35.8005 8.79552 35.5425 8.99126L32.4691 10.8791C31.7486 11.3221 31.5187 12.2699 31.9581 12.9988C32.3975 13.7251 33.3377 13.9569 34.0607 13.5139L34.9396 12.9756V20.8309C34.9396 21.2378 35.1031 21.6345 35.3867 21.9204C35.6703 22.2062 36.0662 22.3711 36.4674 22.3711H41.0354H41.043C41.1222 22.3711 41.5821 22.3633 42.2566 22.2217C42.7624 22.1135 43.3909 21.9307 44.0628 21.6036C44.5661 21.3589 45.095 21.0318 45.6034 20.5991C46.3673 19.9501 47.0801 19.0512 47.5808 17.8871C48.0841 16.723 48.3754 15.3039 48.3728 13.6143C48.3754 12.6073 48.2732 11.6981 48.0867 10.8817Z" fill="#2D210D"/>
<path d="M64.6133 16.0664L59.5139 5.70763C59.2558 5.18222 58.7244 4.84998 58.1445 4.85255C57.5646 4.85255 57.0331 5.1848 56.7751 5.7102L50.4749 18.5363L48.8833 19.515C48.1628 19.958 47.9354 20.9083 48.3749 21.6346C48.8143 22.3609 49.757 22.5901 50.4775 22.1472L52.4447 20.9341C52.4549 20.9264 52.4651 20.9186 52.4753 20.9135C52.5035 20.8955 52.529 20.8774 52.5571 20.8568C52.5724 20.8439 52.5878 20.8336 52.6031 20.8208C52.6261 20.8027 52.6491 20.7821 52.6721 20.7615C52.6874 20.7461 52.7053 20.7306 52.7206 20.7152C52.741 20.6946 52.7589 20.6765 52.7768 20.6559C52.7947 20.6379 52.81 20.6173 52.8254 20.5993C52.8407 20.5812 52.856 20.5606 52.8713 20.54C52.8867 20.5169 52.9046 20.4962 52.9199 20.4731C52.9327 20.455 52.9454 20.437 52.9557 20.4164C52.971 20.3907 52.9838 20.3649 52.9991 20.3391C53.0067 20.3263 53.0144 20.3134 53.0195 20.3005L58.147 9.86194L61.8745 17.434C62.2501 18.1963 63.1673 18.5079 63.9235 18.1293C64.6797 17.7559 64.9889 16.8313 64.6133 16.0664Z" fill="#2D210D"/>
</svg>
