<svg width="56" height="22" viewBox="0 0 56 22" fill="none" xmlns="http://www.w3.org/2000/svg">
<rect width="56" height="22" rx="4" fill="#E9ECEF"/>
<g opacity="0.3">
<path d="M10.276 15.664C10.276 15.8507 10.3413 16.0093 10.472 16.14C10.6027 16.28 10.8033 16.3593 11.074 16.378C11.494 16.4153 11.97 16.4433 12.502 16.462C13.0433 16.49 13.5987 16.504 14.168 16.504C14.7373 16.5133 15.2973 16.5133 15.848 16.504C16.408 16.504 16.9167 16.4947 17.374 16.476C17.598 16.4667 17.794 16.4387 17.962 16.392C18.13 16.3453 18.27 16.2567 18.382 16.126C18.494 15.9953 18.5687 15.818 18.606 15.594C18.6527 15.3607 18.662 15.0527 18.634 14.67C18.6153 14.2687 18.6667 13.998 18.788 13.858C18.9093 13.7087 19.1427 13.634 19.488 13.634C19.8147 13.634 20.034 13.7087 20.146 13.858C20.2673 13.998 20.328 14.2547 20.328 14.628C20.3373 15.2907 20.286 15.8413 20.174 16.28C20.0713 16.7187 19.9033 17.0733 19.67 17.344C19.4367 17.6147 19.1333 17.8107 18.76 17.932C18.396 18.0627 17.9573 18.142 17.444 18.17C16.968 18.1887 16.436 18.198 15.848 18.198C15.2693 18.2073 14.6767 18.2073 14.07 18.198C13.4727 18.198 12.8893 18.184 12.32 18.156C11.76 18.1373 11.2653 18.1093 10.836 18.072C10.3413 18.0347 9.94467 17.96 9.646 17.848C9.34733 17.7453 9.11867 17.6007 8.96 17.414C8.80133 17.2273 8.694 16.9987 8.638 16.728C8.59133 16.4667 8.568 16.154 8.568 15.79V9.182C8.568 8.54733 8.85267 8.23 9.422 8.23C9.71133 8.23 9.926 8.30467 10.066 8.454C10.206 8.60333 10.276 8.846 10.276 9.182V11.002H17.038C17.1967 11.002 17.2947 10.9833 17.332 10.946C17.3693 10.9087 17.388 10.8153 17.388 10.666V7.964C17.388 7.84267 17.36 7.75867 17.304 7.712C17.2573 7.66533 17.1687 7.642 17.038 7.642H8.792C8.456 7.642 8.23667 7.56733 8.134 7.418C8.03133 7.26867 7.98 7.068 7.98 6.816C7.98 6.54533 8.03133 6.34 8.134 6.2C8.23667 6.05067 8.456 5.976 8.792 5.976H17.57C18.1113 5.976 18.494 6.09267 18.718 6.326C18.9513 6.55933 19.068 6.942 19.068 7.474V11.24C19.068 11.7907 18.9513 12.164 18.718 12.36C18.4847 12.556 18.102 12.654 17.57 12.654H10.276V15.664ZM33.922 16.63V13.984C33.922 13.4427 33.8193 13.0507 33.614 12.808C33.4087 12.556 33.0307 12.43 32.48 12.43H28.476C27.9253 12.43 27.5473 12.556 27.342 12.808C27.146 13.0507 27.048 13.4427 27.048 13.984V16.63C27.048 16.9193 27.0713 17.162 27.118 17.358C27.1647 17.554 27.244 17.708 27.356 17.82C27.468 17.9413 27.6127 18.0253 27.79 18.072C27.9767 18.128 28.2053 18.156 28.476 18.156H32.48C33.0213 18.156 33.3947 18.0393 33.6 17.806C33.8147 17.582 33.922 17.19 33.922 16.63ZM27.426 8.51H29.68V9.952H27.734C27.426 9.952 27.1927 10.0173 27.034 10.148C26.8753 10.2693 26.796 10.47 26.796 10.75C26.796 11.2633 27.1087 11.52 27.734 11.52H33.362C33.9593 11.52 34.258 11.268 34.258 10.764C34.258 10.2227 33.9593 9.952 33.362 9.952H31.276V8.51H33.88C34.4587 8.51 34.748 8.24867 34.748 7.726C34.748 7.17533 34.4587 6.9 33.88 6.9H31.276V5.822C31.276 5.50467 31.2013 5.29 31.052 5.178C30.912 5.066 30.7253 5.01 30.492 5.01C30.24 5.01 30.0393 5.066 29.89 5.178C29.75 5.29 29.68 5.50467 29.68 5.822V6.9H27.426C26.8193 6.9 26.516 7.17533 26.516 7.726C26.516 8.24867 26.8193 8.51 27.426 8.51ZM26.264 9.14C26.04 9.51333 25.8347 9.84933 25.648 10.148C25.4707 10.4467 25.2887 10.7407 25.102 11.03C24.9247 11.31 24.738 11.5947 24.542 11.884C24.3553 12.1733 24.1407 12.5 23.898 12.864C23.6927 13.1533 23.716 13.284 23.968 13.256C24.1547 13.2373 24.3787 13.2093 24.64 13.172C24.9013 13.1253 25.158 13.0833 25.41 13.046C25.662 13.0087 25.872 13.032 26.04 13.116C26.2173 13.2 26.3247 13.4053 26.362 13.732C26.39 14.2173 26.124 14.5067 25.564 14.6C25.0133 14.7027 24.4673 14.7867 23.926 14.852C23.394 14.9173 22.932 14.95 22.54 14.95C22.2973 14.95 22.092 14.894 21.924 14.782C21.756 14.6607 21.6347 14.516 21.56 14.348C21.4853 14.1707 21.462 13.9793 21.49 13.774C21.518 13.5593 21.602 13.3587 21.742 13.172C22.0593 12.7427 22.344 12.3507 22.596 11.996C22.8573 11.6413 23.0953 11.3147 23.31 11.016L22.302 11.072C22.0593 11.0907 21.8587 11.0533 21.7 10.96C21.5413 10.8667 21.4247 10.7453 21.35 10.596C21.2753 10.4373 21.2427 10.26 21.252 10.064C21.2707 9.868 21.336 9.67667 21.448 9.49C21.756 8.986 22.0173 8.55667 22.232 8.202C22.4467 7.838 22.6333 7.516 22.792 7.236C22.9507 6.956 23.0907 6.69933 23.212 6.466C23.3333 6.22333 23.4547 5.976 23.576 5.724C23.7347 5.388 23.9073 5.17333 24.094 5.08C24.2807 4.97733 24.5093 4.98667 24.78 5.108C25.0227 5.21067 25.1767 5.36933 25.242 5.584C25.3073 5.78933 25.256 6.05533 25.088 6.382C24.976 6.606 24.8687 6.816 24.766 7.012C24.6633 7.19867 24.556 7.38533 24.444 7.572C24.332 7.75867 24.206 7.95933 24.066 8.174C23.9353 8.38867 23.7813 8.62667 23.604 8.888C23.464 9.10267 23.408 9.24267 23.436 9.308C23.464 9.37333 23.5573 9.40133 23.716 9.392L24.36 9.364C24.4627 9.196 24.5607 9.028 24.654 8.86C24.7473 8.692 24.8453 8.51467 24.948 8.328C25.1533 7.95467 25.3587 7.74 25.564 7.684C25.7787 7.61867 25.9933 7.642 26.208 7.754C26.404 7.85667 26.5113 8.034 26.53 8.286C26.5487 8.52867 26.46 8.81333 26.264 9.14ZM32.396 16.238C32.396 16.3593 32.368 16.448 32.312 16.504C32.2653 16.5693 32.1627 16.602 32.004 16.602H28.938C28.7887 16.602 28.6907 16.5787 28.644 16.532C28.5973 16.4853 28.574 16.3873 28.574 16.238V14.39C28.574 14.278 28.5927 14.194 28.63 14.138C28.6767 14.0727 28.7793 14.04 28.938 14.04H32.004C32.1533 14.04 32.256 14.068 32.312 14.124C32.368 14.1707 32.396 14.2593 32.396 14.39V16.238ZM26.544 15.79C26.628 16.07 26.628 16.2847 26.544 16.434C26.46 16.5833 26.2687 16.7233 25.97 16.854C25.354 17.1247 24.7427 17.3533 24.136 17.54C23.5387 17.736 22.9507 17.89 22.372 18.002C22.036 18.0767 21.7793 18.072 21.602 17.988C21.434 17.9133 21.3267 17.7407 21.28 17.47C21.2333 17.1993 21.2613 16.98 21.364 16.812C21.4667 16.6533 21.6813 16.5367 22.008 16.462C22.344 16.3873 22.652 16.3127 22.932 16.238C23.212 16.1633 23.4827 16.084 23.744 16C24.0053 15.916 24.262 15.8273 24.514 15.734C24.766 15.6313 25.0273 15.524 25.298 15.412C25.9513 15.1227 26.3667 15.2487 26.544 15.79ZM38.024 13.83C37.5293 13.83 37.156 13.732 36.904 13.536C36.652 13.34 36.526 12.9807 36.526 12.458V10.484C36.526 9.96133 36.652 9.602 36.904 9.406C37.156 9.20067 37.5293 9.098 38.024 9.098H41.132V8.188H36.358C35.8073 8.188 35.532 7.91733 35.532 7.376C35.532 6.844 35.8073 6.578 36.358 6.578H41.132V5.878C41.132 5.60733 41.2113 5.40667 41.37 5.276C41.538 5.136 41.7433 5.066 41.986 5.066C42.2193 5.066 42.4153 5.136 42.574 5.276C42.742 5.40667 42.826 5.60733 42.826 5.878V6.578H47.628C47.9267 6.578 48.1367 6.64333 48.258 6.774C48.3887 6.90467 48.454 7.10533 48.454 7.376C48.454 7.63733 48.3887 7.838 48.258 7.978C48.1367 8.118 47.9267 8.188 47.628 8.188H42.826V9.098H45.976C46.48 9.098 46.8533 9.196 47.096 9.392C47.3387 9.588 47.46 9.952 47.46 10.484V12.458C47.46 12.9807 47.3387 13.34 47.096 13.536C46.8533 13.732 46.48 13.83 45.976 13.83H43.554C44.17 14.3433 44.842 14.81 45.57 15.23C46.298 15.65 47.0307 15.9907 47.768 16.252C48.1787 16.392 48.44 16.56 48.552 16.756C48.6733 16.9613 48.6687 17.2273 48.538 17.554C48.3327 18.0673 47.8427 18.1373 47.068 17.764C46.2933 17.3907 45.542 16.9613 44.814 16.476C44.086 16 43.4233 15.482 42.826 14.922V17.596C42.826 17.8947 42.742 18.114 42.574 18.254C42.4153 18.4033 42.2193 18.478 41.986 18.478C41.7433 18.478 41.538 18.4033 41.37 18.254C41.2113 18.114 41.132 17.8947 41.132 17.596V14.908C40.544 15.412 39.8953 15.8927 39.186 16.35C38.4767 16.8073 37.6693 17.274 36.764 17.75C36.4187 17.9273 36.1293 17.9927 35.896 17.946C35.6627 17.9087 35.49 17.7407 35.378 17.442C35.1353 16.8447 35.434 16.406 36.274 16.126C36.8993 15.9207 37.5713 15.622 38.29 15.23C39.0087 14.838 39.69 14.3713 40.334 13.83H38.024ZM45.472 12.36C45.5467 12.36 45.6167 12.3413 45.682 12.304C45.7567 12.2573 45.794 12.192 45.794 12.108V10.862C45.794 10.7967 45.7707 10.736 45.724 10.68C45.6867 10.624 45.6027 10.596 45.472 10.596H42.826V12.36H45.472ZM38.206 12.108C38.206 12.192 38.234 12.2573 38.29 12.304C38.346 12.3413 38.402 12.36 38.458 12.36H41.132V10.596H38.486C38.4113 10.596 38.346 10.6147 38.29 10.652C38.234 10.6893 38.206 10.7593 38.206 10.862V12.108Z" fill="#2D210D"/>
</g>
</svg>
