<svg width="68" height="22" viewBox="0 0 68 22" fill="none" xmlns="http://www.w3.org/2000/svg">
<rect width="68" height="22" rx="4" fill="white"/>
<path d="M18.222 16.784C18.222 17.26 18.1007 17.6053 17.858 17.82C17.6153 18.0347 17.242 18.142 16.738 18.142H9.444C8.93067 18.142 8.56667 18.0347 8.352 17.82C8.14667 17.6053 8.044 17.26 8.044 16.784V14.11C8.044 13.6153 8.14667 13.2793 8.352 13.102C8.56667 12.9247 8.93067 12.836 9.444 12.836H16.696C17.2 12.836 17.578 12.9247 17.83 13.102C18.0913 13.2793 18.222 13.6153 18.222 14.11V16.784ZM9.654 8.132C9.654 7.88933 9.71467 7.726 9.836 7.642C9.96667 7.54867 10.1533 7.502 10.396 7.502C10.6293 7.502 10.802 7.544 10.914 7.628C11.0353 7.70267 11.096 7.85667 11.096 8.09V8.37H12.048C12.3187 8.37 12.5147 8.40733 12.636 8.482C12.7573 8.54733 12.818 8.71533 12.818 8.986C12.818 9.25667 12.762 9.43867 12.65 9.532C12.538 9.62533 12.3187 9.672 11.992 9.672H11.096V10.204C11.2173 10.176 11.334 10.148 11.446 10.12C11.5673 10.0827 11.6933 10.0453 11.824 10.008H11.81C12.0247 9.94267 12.2113 9.924 12.37 9.952C12.538 9.98 12.6733 10.1013 12.776 10.316C12.8787 10.568 12.8693 10.7733 12.748 10.932C12.636 11.0907 12.4587 11.2073 12.216 11.282C12.02 11.338 11.8287 11.3893 11.642 11.436C11.4647 11.4827 11.2827 11.5247 11.096 11.562V12.08C11.096 12.3133 11.0353 12.4813 10.914 12.584C10.802 12.6773 10.6293 12.724 10.396 12.724C10.1533 12.724 9.96667 12.682 9.836 12.598C9.71467 12.5047 9.654 12.332 9.654 12.08V11.814C9.262 11.87 8.87 11.9167 8.478 11.954C8.09533 11.9913 7.68 12.024 7.232 12.052C6.70933 12.0987 6.448 11.8747 6.448 11.38C6.448 11.1373 6.50867 10.9693 6.63 10.876C6.76067 10.7827 6.924 10.7267 7.12 10.708C7.60533 10.6893 8.04867 10.6613 8.45 10.624C8.86067 10.5773 9.262 10.526 9.654 10.47V9.672H8.03C7.60067 9.672 7.28333 9.59267 7.078 9.434C6.87267 9.266 6.77 9.05133 6.77 8.79C6.77 8.57533 6.87733 8.33267 7.092 8.062C7.204 7.93133 7.30667 7.80533 7.4 7.684C7.50267 7.56267 7.60533 7.43667 7.708 7.306H7.288C7.04533 7.306 6.86333 7.24533 6.742 7.124C6.62067 7.00267 6.56 6.84867 6.56 6.662C6.56 6.48467 6.61133 6.33067 6.714 6.2C6.826 6.06 7.01733 5.99 7.288 5.99H8.604C8.65067 5.91533 8.69733 5.836 8.744 5.752C8.8 5.668 8.85133 5.584 8.898 5.5C9.00067 5.34133 9.13133 5.22 9.29 5.136C9.44867 5.052 9.65867 5.05667 9.92 5.15C10.088 5.22467 10.2093 5.332 10.284 5.472C10.3587 5.60267 10.354 5.77533 10.27 5.99H12.174C12.454 5.99 12.6453 6.06 12.748 6.2C12.8507 6.33067 12.902 6.48467 12.902 6.662C12.902 6.886 12.846 7.04933 12.734 7.152C12.6313 7.25467 12.4447 7.306 12.174 7.306H9.402C9.32733 7.40867 9.24333 7.52067 9.15 7.642C9.066 7.76333 8.95867 7.90333 8.828 8.062C8.69733 8.23 8.66 8.32333 8.716 8.342C8.78133 8.36067 8.912 8.37 9.108 8.37H9.654V8.132ZM14.078 11.982C13.9473 12.1687 13.7747 12.3133 13.56 12.416C13.3453 12.5093 13.1073 12.486 12.846 12.346C12.5847 12.1873 12.4587 12.01 12.468 11.814C12.4773 11.618 12.5753 11.3987 12.762 11.156C12.874 11.016 12.9673 10.8807 13.042 10.75C13.126 10.61 13.1913 10.4513 13.238 10.274C13.2847 10.0873 13.3173 9.868 13.336 9.616C13.364 9.364 13.378 9.05133 13.378 8.678V7.46C13.378 7.152 13.3967 6.90467 13.434 6.718C13.4713 6.522 13.5413 6.368 13.644 6.256C13.7467 6.144 13.8867 6.06467 14.064 6.018C14.2413 5.97133 14.47 5.93867 14.75 5.92C15.338 5.88267 15.912 5.84067 16.472 5.794C17.032 5.738 17.564 5.64467 18.068 5.514C18.4413 5.42067 18.712 5.40667 18.88 5.472C19.0573 5.528 19.188 5.67733 19.272 5.92C19.3653 6.172 19.342 6.368 19.202 6.508C19.062 6.63867 18.8473 6.73667 18.558 6.802C18.0167 6.93267 17.4427 7.03067 16.836 7.096C16.2387 7.152 15.6693 7.194 15.128 7.222C15.0347 7.222 14.9693 7.24067 14.932 7.278C14.904 7.306 14.89 7.376 14.89 7.488V8.132H18.866C19.1927 8.132 19.4167 8.188 19.538 8.3C19.6687 8.412 19.734 8.58 19.734 8.804C19.734 9.03733 19.6687 9.21467 19.538 9.336C19.4167 9.45733 19.1927 9.518 18.866 9.518H18.222V11.758C18.222 12.038 18.166 12.248 18.054 12.388C17.9513 12.5187 17.7507 12.584 17.452 12.584C17.0973 12.584 16.8733 12.5187 16.78 12.388C16.696 12.248 16.654 12.038 16.654 11.758V9.518H14.876C14.8573 9.78867 14.8293 10.036 14.792 10.26C14.7547 10.4747 14.7033 10.68 14.638 10.876C14.5727 11.072 14.4933 11.2587 14.4 11.436C14.3067 11.6133 14.1993 11.7953 14.078 11.982ZM16.57 16.112H9.668V16.49C9.668 16.5927 9.69133 16.6533 9.738 16.672C9.78467 16.7 9.84067 16.714 9.906 16.714H16.276C16.388 16.714 16.4627 16.7 16.5 16.672C16.5467 16.6533 16.57 16.5973 16.57 16.504V16.112ZM16.57 14.488C16.57 14.3107 16.4673 14.222 16.262 14.222H9.948C9.82667 14.222 9.74733 14.2407 9.71 14.278C9.682 14.306 9.668 14.362 9.668 14.446V14.782H16.57V14.488ZM26.146 5.766C26.146 5.458 26.2207 5.25267 26.37 5.15C26.5287 5.04733 26.734 4.996 26.986 4.996C27.2193 4.996 27.4153 5.04733 27.574 5.15C27.742 5.25267 27.826 5.458 27.826 5.766V6.844H31.97C32.25 6.844 32.4553 6.90933 32.586 7.04C32.726 7.17067 32.796 7.38533 32.796 7.684C32.796 8.23467 32.5207 8.51 31.97 8.51H27.826V10.414H32.544C32.8613 10.414 33.076 10.4793 33.188 10.61C33.3 10.7313 33.356 10.9413 33.356 11.24C33.356 11.5387 33.3 11.7533 33.188 11.884C33.076 12.0147 32.8613 12.08 32.544 12.08H28.848C29.4827 12.808 30.1593 13.4427 30.878 13.984C31.5967 14.516 32.334 14.992 33.09 15.412C33.6873 15.7387 33.8367 16.182 33.538 16.742C33.3887 17.0407 33.202 17.19 32.978 17.19C32.7633 17.19 32.474 17.0873 32.11 16.882C31.6713 16.63 31.2653 16.3733 30.892 16.112C30.528 15.8507 30.1733 15.5707 29.828 15.272C29.4827 14.9733 29.1467 14.6467 28.82 14.292C28.4933 13.9373 28.162 13.5407 27.826 13.102V17.764C27.826 18.0627 27.742 18.268 27.574 18.38C27.4153 18.492 27.2193 18.548 26.986 18.548C26.734 18.548 26.5287 18.492 26.37 18.38C26.2207 18.268 26.146 18.0627 26.146 17.764V13.312C25.614 14.012 24.97 14.7073 24.214 15.398C23.458 16.0887 22.6413 16.7093 21.764 17.26C21.5027 17.4187 21.2647 17.4933 21.05 17.484C20.8353 17.484 20.6487 17.3627 20.49 17.12C20.322 16.868 20.2707 16.6207 20.336 16.378C20.4013 16.1353 20.5647 15.9347 20.826 15.776C21.6473 15.3 22.4313 14.754 23.178 14.138C23.934 13.522 24.5967 12.836 25.166 12.08H21.456C21.1387 12.08 20.924 12.0147 20.812 11.884C20.7 11.7533 20.644 11.5387 20.644 11.24C20.644 10.9413 20.7 10.7313 20.812 10.61C20.924 10.4793 21.1387 10.414 21.456 10.414H26.146V8.51H22.086C21.7873 8.51 21.5773 8.44467 21.456 8.314C21.3347 8.174 21.274 7.964 21.274 7.684C21.274 7.38533 21.3347 7.17067 21.456 7.04C21.5773 6.90933 21.7873 6.844 22.086 6.844H26.146V5.766ZM43.968 15.706C43.7533 15.314 43.5433 14.936 43.338 14.572C43.1327 14.1987 42.9133 13.8113 42.68 13.41C42.3907 12.8967 42.4607 12.5 42.89 12.22C43.4033 11.884 43.8233 11.996 44.15 12.556C44.43 13.0413 44.6773 13.48 44.892 13.872C45.1067 14.2547 45.3027 14.628 45.48 14.992C45.6573 15.3467 45.8253 15.7013 45.984 16.056C46.152 16.42 46.3247 16.812 46.502 17.232C46.6327 17.5213 46.656 17.778 46.572 18.002C46.488 18.226 46.3107 18.394 46.04 18.506C45.5267 18.73 45.1487 18.5107 44.906 17.848C44.8687 17.7547 44.8313 17.666 44.794 17.582C44.766 17.498 44.738 17.414 44.71 17.33L36.702 17.82H36.716C36.1747 17.8573 35.7827 17.778 35.54 17.582C35.2973 17.3953 35.176 17.1387 35.176 16.812C35.176 16.504 35.316 16.1867 35.596 15.86H35.582C35.9647 15.412 36.3427 14.9313 36.716 14.418C37.0987 13.8953 37.4627 13.3633 37.808 12.822C38.1627 12.2713 38.4987 11.716 38.816 11.156C39.1427 10.596 39.4413 10.05 39.712 9.518C39.8613 9.238 40.0433 9.04667 40.258 8.944C40.482 8.832 40.7013 8.82733 40.916 8.93C41.2613 9.098 41.4433 9.294 41.462 9.518C41.4807 9.73267 41.4013 10.0033 41.224 10.33C40.9067 10.9087 40.6127 11.436 40.342 11.912C40.0807 12.3787 39.8147 12.8267 39.544 13.256C39.2827 13.6853 39.0073 14.1053 38.718 14.516C38.438 14.9267 38.1253 15.356 37.78 15.804C37.7053 15.9067 37.7007 15.972 37.766 16C37.8313 16.028 38.046 16.0327 38.41 16.014C38.942 15.986 39.4413 15.9627 39.908 15.944C40.384 15.916 40.8413 15.888 41.28 15.86C41.7187 15.832 42.1573 15.8087 42.596 15.79C43.0347 15.762 43.492 15.734 43.968 15.706ZM47.272 10.96C47.5333 11.2027 47.6687 11.4407 47.678 11.674C47.6873 11.9073 47.5987 12.1173 47.412 12.304C47.16 12.5467 46.936 12.6493 46.74 12.612C46.5533 12.5653 46.3153 12.4113 46.026 12.15C45.7273 11.8793 45.4053 11.52 45.06 11.072C44.7147 10.624 44.374 10.1387 44.038 9.616C43.702 9.084 43.38 8.54267 43.072 7.992C42.7733 7.44133 42.5073 6.928 42.274 6.452C41.9193 5.752 42.0407 5.304 42.638 5.108C43.1607 4.86533 43.5573 5.08 43.828 5.752C44.024 6.20933 44.262 6.69 44.542 7.194C44.822 7.698 45.116 8.188 45.424 8.664C45.7413 9.13067 46.0587 9.56933 46.376 9.98C46.7027 10.3813 47.0013 10.708 47.272 10.96ZM39.558 6.494C39.334 6.97 39.0773 7.46 38.788 7.964C38.4987 8.45867 38.1907 8.944 37.864 9.42C37.5373 9.896 37.2013 10.3533 36.856 10.792C36.5107 11.2213 36.17 11.6133 35.834 11.968C35.5353 12.2947 35.2833 12.4673 35.078 12.486C34.8727 12.4953 34.6627 12.374 34.448 12.122C34.2427 11.8793 34.1447 11.66 34.154 11.464C34.1727 11.268 34.3313 11.0253 34.63 10.736C34.9193 10.4467 35.2227 10.106 35.54 9.714C35.8667 9.31267 36.1793 8.888 36.478 8.44C36.786 7.992 37.0707 7.53467 37.332 7.068C37.5933 6.60133 37.8127 6.158 37.99 5.738C38.13 5.42067 38.2887 5.21533 38.466 5.122C38.6527 5.01933 38.9093 5.03333 39.236 5.164C39.4787 5.276 39.6327 5.444 39.698 5.668C39.7633 5.892 39.7167 6.16733 39.558 6.494ZM49.568 7.488C49.2693 7.488 49.0593 7.42733 48.938 7.306C48.8167 7.18467 48.756 6.97467 48.756 6.676C48.756 6.40533 48.8167 6.214 48.938 6.102C49.0593 5.98067 49.2693 5.92 49.568 5.92H60.208C60.5253 5.92 60.74 5.98067 60.852 6.102C60.964 6.214 61.02 6.40533 61.02 6.676C61.02 6.97467 60.964 7.18467 60.852 7.306C60.74 7.42733 60.5253 7.488 60.208 7.488H58.612V11.268H60.978C61.286 11.268 61.496 11.324 61.608 11.436C61.72 11.5387 61.776 11.7113 61.776 11.954C61.776 12.2247 61.72 12.43 61.608 12.57C61.496 12.7007 61.286 12.766 60.978 12.766H58.612V17.694C58.612 18.0113 58.5233 18.226 58.346 18.338C58.178 18.45 57.9773 18.506 57.744 18.506C57.5013 18.506 57.2913 18.4453 57.114 18.324C56.946 18.2027 56.862 17.9927 56.862 17.694V12.766H53.026C52.9793 13.4567 52.8813 14.0727 52.732 14.614C52.592 15.146 52.396 15.6267 52.144 16.056C51.892 16.4947 51.584 16.896 51.22 17.26C50.8653 17.624 50.4547 17.9787 49.988 18.324C49.7173 18.5293 49.4607 18.6227 49.218 18.604C48.9753 18.5853 48.784 18.4593 48.644 18.226C48.476 17.9833 48.4247 17.7593 48.49 17.554C48.5553 17.3487 48.7093 17.1527 48.952 16.966C49.3253 16.6953 49.6473 16.4293 49.918 16.168C50.198 15.9067 50.4313 15.6173 50.618 15.3C50.814 14.9733 50.968 14.6093 51.08 14.208C51.192 13.7973 51.2713 13.3167 51.318 12.766H49.008C48.7 12.766 48.49 12.7007 48.378 12.57C48.266 12.43 48.21 12.2247 48.21 11.954C48.21 11.7113 48.266 11.5387 48.378 11.436C48.49 11.324 48.7 11.268 49.008 11.268H51.36V7.488H49.568ZM53.068 11.268H56.862V7.488H53.068V11.268Z" fill="#2D210D"/>
</svg>
