<svg width="26" height="27" viewBox="0 0 26 27" fill="none" xmlns="http://www.w3.org/2000/svg">
<path fill-rule="evenodd" clip-rule="evenodd" d="M8.02127 9.54894C8.82632 8.52861 9.7933 7.69176 10.8269 7.10069C12.624 6.07295 14.5208 5.83547 16.1239 6.49161C16.9246 6.81933 17.6212 7.3574 18.1878 8.06225C16.4913 10.7784 12.977 12.1534 10.0723 10.9645C9.28057 10.6405 8.59206 10.1537 8.02127 9.54894ZM6.68892 11.7406C6.63848 11.8524 6.58989 11.9653 6.5432 12.0794C5.18506 15.3975 6.77371 19.6144 10.1816 21.0093C13.5895 22.4042 17.679 20.5114 19.0371 17.1933C19.9308 15.0098 20.0339 12.6309 19.4736 10.6399C19.465 10.6093 19.4563 10.5788 19.4474 10.5484C16.9761 13.4046 12.8325 14.7956 9.12527 13.2782C8.20482 12.9015 7.38965 12.3748 6.68892 11.7406ZM17.0709 4.17792C14.5849 3.16038 11.8733 3.62233 9.58581 4.9305C7.29656 6.23965 5.33005 8.4436 4.22951 11.1324C2.38357 15.6422 4.4645 21.3706 9.2346 23.323C14.0047 25.2755 19.5049 22.6502 21.3508 18.1403C22.4513 15.4515 22.5945 12.5013 21.8802 9.96271C21.1664 7.42607 19.5569 5.19545 17.0709 4.17792Z" fill="#564DE2"/>
</svg>
