<svg width="331" height="168" viewBox="0 0 331 168" fill="none" xmlns="http://www.w3.org/2000/svg">
<g filter="url(#filter0_d)">
<g filter="url(#filter1_d)">
<g clip-path="url(#clip0)">
<path d="M113.467 142.626H66.108C57.7257 142.626 50.9309 135.844 50.9309 127.478V80.2392C50.9309 71.8729 57.7257 65.0911 66.108 65.0911H113.467C121.85 65.0911 128.645 71.8729 128.645 80.2392V127.478C128.645 135.844 121.849 142.626 113.467 142.626Z" fill="white"/>
<path d="M112.932 84.9867L113.412 84.1574L93.5207 72.6955C92.3665 72.0298 91.0764 71.6973 89.7886 71.6973C88.5001 71.6973 87.2108 72.0298 86.0566 72.6955L66.1647 84.1574C63.8547 85.4881 62.4326 87.9482 62.4326 90.6097V117.109C62.4326 119.771 63.8555 122.23 66.1647 123.561L86.0558 135.023C87.21 135.688 88.5001 136.022 89.7879 136.021C91.0764 136.021 92.3657 135.688 93.5199 135.023L113.412 123.561C115.721 122.23 117.144 119.771 117.144 117.109V90.6097C117.144 87.9482 115.721 85.4881 113.412 84.1574L112.932 84.9867L112.453 85.8161C114.168 86.8045 115.226 88.6329 115.226 90.6105V117.11C115.226 119.087 114.169 120.914 112.453 121.904L92.5615 133.365C91.7032 133.86 90.7463 134.107 89.7879 134.107C88.8294 134.107 87.8733 133.86 87.015 133.365L67.1239 121.903C65.4073 120.914 64.3502 119.087 64.3502 117.109V90.6097C64.3502 88.6321 65.4073 86.8045 67.1231 85.8153L87.015 74.3535C87.8733 73.8589 88.8302 73.612 89.7879 73.6112C90.7455 73.6112 91.7025 73.8581 92.5607 74.3527L112.453 85.8153L112.932 84.9867Z" fill="white"/>
<path d="M111.922 85.8103L92.8987 74.8483C90.9734 73.7387 88.602 73.7387 86.6768 74.8483L67.653 85.8103C65.7278 86.9191 64.5425 88.9694 64.5425 91.1879V116.531C64.5425 118.75 65.7278 120.799 67.653 121.909L86.6768 132.872C88.6013 133.981 90.9734 133.981 92.8987 132.872L111.922 121.909C113.847 120.8 115.033 118.75 115.033 116.531V91.1879C115.033 88.9702 113.847 86.9199 111.922 85.8103Z" fill="white"/>
<path d="M111.923 85.8102L112.152 85.4133L93.1282 74.4514C92.0946 73.8553 90.9404 73.5576 89.7877 73.5576C88.6343 73.5576 87.4808 73.8553 86.4472 74.4514L67.4242 85.4141C65.3571 86.6047 64.0837 88.8065 64.0837 91.1885V116.532C64.0837 118.914 65.3571 121.115 67.4242 122.306L86.448 133.269C87.4816 133.864 88.635 134.162 89.7877 134.162C90.9404 134.162 92.0946 133.864 93.1282 133.269L112.152 122.306C114.218 121.115 115.492 118.914 115.492 116.532V91.1878C115.492 88.8057 114.218 86.6047 112.152 85.4133L111.923 85.8102L111.694 86.2063C113.476 87.2334 114.575 89.1329 114.575 91.1878V116.531C114.575 118.586 113.476 120.485 111.694 121.512L92.6691 132.475C91.7774 132.988 90.7826 133.245 89.7877 133.245C88.7921 133.245 87.798 132.988 86.9063 132.475L67.8826 121.512C66.0993 120.485 65.0012 118.586 65.0012 116.531V91.1878C65.0012 89.1329 66.0993 87.2334 67.8826 86.2063L86.9063 75.2444C87.798 74.7301 88.7921 74.4733 89.7877 74.4733C90.7826 74.4733 91.7774 74.7301 92.6691 75.2444L111.693 86.2063L111.923 85.8102Z" fill="#390099"/>
<path d="M111.922 85.8102L92.8981 74.8482C91.9359 74.2931 90.8614 74.0166 89.7876 74.0166V133.704C90.8614 133.704 91.9359 133.427 92.8981 132.872L111.922 121.91C113.846 120.801 115.032 118.751 115.032 116.532V91.1878C115.032 88.9701 113.846 86.9198 111.922 85.8102Z" fill="white"/>
<path d="M111.922 94.9504L92.8987 83.9876C90.9734 82.8788 88.602 82.8788 86.6768 83.9876L67.653 94.9504C65.7278 96.0592 64.5425 98.1095 64.5425 100.328V116.53C64.5425 118.749 65.7278 120.798 67.653 121.908L86.6768 132.871C88.6013 133.98 90.9734 133.98 92.8987 132.871L111.922 121.908C113.847 120.799 115.033 118.749 115.033 116.53V100.328C115.033 98.1095 113.847 96.0592 111.922 94.9504Z" fill="#FB607E"/>
<path d="M111.922 94.9504L92.8981 83.9876C91.9359 83.4332 90.8614 83.156 89.7876 83.156V85.3093C90.7817 85.3093 91.7766 85.5661 92.6675 86.0796L110.28 96.2289C112.062 97.2559 113.16 99.154 113.16 101.208V101.516C113.16 103.57 112.062 105.468 110.28 106.495L92.6675 116.644C91.7766 117.158 90.7825 117.414 89.7876 117.414V133.702C90.8614 133.702 91.9359 133.425 92.8981 132.871L111.922 121.908C113.846 120.799 115.032 118.749 115.032 116.53V100.328C115.032 98.1095 113.846 96.0592 111.922 94.9504Z" fill="#5F2DDF"/>
<path d="M110.28 96.2291L92.6672 86.0799C91.7763 85.5663 90.7822 85.3096 89.7874 85.3096V117.415C90.7815 117.415 91.7763 117.158 92.6672 116.644L110.28 106.495C112.062 105.468 113.159 103.57 113.159 101.516V101.208C113.16 99.1542 112.062 97.2562 110.28 96.2291Z" fill="#5C467A"/>
<path d="M110.28 96.2289L92.6672 86.0796C90.8854 85.0526 88.6893 85.0526 86.9075 86.0796L69.2951 96.2289C67.5126 97.2559 66.4153 99.154 66.4153 101.208V101.516C66.4153 103.57 67.5126 105.468 69.2951 106.495L86.9075 116.644C88.69 117.671 90.8854 117.671 92.6672 116.644L110.28 106.495C112.062 105.468 113.159 103.57 113.159 101.516V101.208C113.16 99.154 112.062 97.2559 110.28 96.2289Z" fill="#4F21C3"/>
<path d="M86.316 113.949C88.465 115.188 91.1119 115.188 93.2603 113.949L111.455 103.464C109.592 87.9822 101.515 75.791 89.7877 75.791C78.0604 75.791 69.9831 87.9822 68.1201 103.464L86.316 113.949Z" fill="white"/>
<path d="M86.316 113.949L86.2014 114.147C87.3109 114.787 88.5501 115.107 89.7885 115.107C91.027 115.107 92.2654 114.787 93.3756 114.147L111.702 103.586L111.684 103.436C110.748 95.6639 108.255 88.7101 104.505 83.6847C100.759 78.6601 95.7357 75.56 89.7885 75.5615C83.8414 75.56 78.8177 78.6601 75.0713 83.6847C71.3225 88.7109 68.8281 95.6639 67.8925 103.436L67.8743 103.586L86.2014 114.147L86.316 113.949L86.4306 113.751L68.2347 103.266L68.1201 103.464L68.3478 103.492C69.2751 95.782 71.752 88.8987 75.4393 83.9581C79.1296 79.0161 84.0083 76.0205 89.7885 76.019C95.568 76.0205 100.447 79.0161 104.138 83.9581C107.825 88.8987 110.301 95.782 111.228 103.492L111.456 103.464L111.342 103.266L93.1457 113.751C92.1068 114.349 90.9473 114.649 89.7878 114.649C88.6282 114.649 87.4687 114.35 86.4298 113.751L86.316 113.949Z" fill="#390099"/>
<path d="M91.0057 75.8394C92.3838 77.6753 93.6412 79.7324 94.7355 81.9645C99.9519 92.6046 94.5587 102.183 85.8781 105.318C79.808 107.512 72.9563 106.253 68.4191 101.366C68.3083 102.059 68.2059 102.757 68.1201 103.465L86.316 113.95C88.465 115.188 91.1119 115.188 93.2603 113.95L111.455 103.465C109.658 88.5244 102.072 76.6528 91.0057 75.8394Z" fill="#FFF1EB"/>
<path d="M112.366 103.355C111.416 95.4881 108.898 88.4291 105.055 83.2749C103.134 80.699 100.876 78.6002 98.3123 77.1422C95.7496 75.6834 92.8789 74.8737 89.7873 74.8752C86.6957 74.8737 83.825 75.6834 81.2623 77.1422C77.4149 79.3318 74.2619 82.9538 71.8889 87.4808C69.5168 92.0101 67.9194 97.4543 67.2083 103.355L67.1362 103.955L85.8564 114.742C87.0721 115.443 88.4305 115.793 89.7873 115.793C91.1441 115.793 92.5025 115.443 93.7182 114.742L112.438 103.955L112.366 103.355ZM92.8015 113.156C91.8688 113.693 90.8284 113.962 89.7881 113.963C88.7469 113.963 87.7073 113.694 86.7746 113.156L69.11 102.978C70.0783 95.607 72.49 89.0547 75.9906 84.3686C77.7868 81.9608 79.8637 80.0446 82.1707 78.7335C84.4791 77.4224 87.016 76.7082 89.7873 76.7067C92.5594 76.7082 95.0955 77.4224 97.4039 78.7335C100.864 80.699 103.809 84.0338 106.059 88.3291C108.231 92.4713 109.74 97.502 110.461 102.98L92.8015 113.156Z" fill="#4F21C3"/>
<path d="M72.3229 116.46L69.7018 114.984C69.2366 114.722 68.8564 114.128 68.8564 113.665C68.8564 113.201 69.2366 113.034 69.7018 113.297L72.3229 114.772C72.7881 115.034 73.1683 115.628 73.1683 116.092C73.1683 116.557 72.7881 116.722 72.3229 116.46Z" fill="#5F2DDF"/>
<path d="M82.142 121.973L79.5216 120.497C79.0565 120.235 78.6763 119.641 78.6763 119.178C78.6763 118.714 79.0572 118.548 79.5216 118.81L82.142 120.286C82.6071 120.548 82.9873 121.142 82.9873 121.605C82.9873 122.069 82.6064 122.234 82.142 121.973Z" fill="#5F2DDF"/>
<path d="M111.922 85.8102L112.381 85.0171L93.357 74.0552C92.2529 73.4182 91.019 73.1001 89.7873 73.1001C88.555 73.1001 87.3218 73.4182 86.2177 74.0552L67.1939 85.0171C64.9849 86.2896 63.6243 88.6421 63.6243 91.1877V116.531C63.6243 119.077 64.9849 121.429 67.1939 122.702L86.2177 133.665C87.3218 134.301 88.555 134.619 89.7873 134.619C91.0197 134.619 92.2529 134.301 93.357 133.665L112.382 122.702C114.59 121.43 115.951 119.077 115.951 116.531V91.1877C115.951 88.6421 114.591 86.2896 112.382 85.0171L111.922 85.8102L111.463 86.6032C113.104 87.5484 114.116 89.2965 114.116 91.1877V116.531C114.116 118.423 113.104 120.17 111.463 121.116L92.4395 132.079C91.6185 132.551 90.7033 132.788 89.7873 132.788C88.8706 132.788 87.9562 132.551 87.1351 132.079L68.1114 121.116C66.47 120.171 65.4592 118.423 65.4592 116.531V91.1877C65.4592 89.2965 66.47 87.5484 68.1114 86.6032L87.1351 75.6412C87.9562 75.1678 88.8706 74.9315 89.7873 74.9315C90.7033 74.9315 91.6185 75.1678 92.4395 75.6412L111.463 86.6039L111.922 85.8102Z" fill="#4F21C3"/>
</g>
</g>
<path d="M191.419 95.2061C192.691 95.2061 193.723 94.1988 193.723 92.9562C193.723 91.7136 192.691 90.7063 191.419 90.7063C190.146 90.7063 189.114 91.7136 189.114 92.9562C189.114 94.1988 190.146 95.2061 191.419 95.2061Z" fill="white"/>
<path d="M149.454 84.3816L163.374 77.182L177.382 84.3777C177.457 84.4162 177.532 84.4509 177.607 84.4817C177.634 84.4933 177.662 84.501 177.69 84.5125C177.733 84.528 177.776 84.5434 177.82 84.5549C177.863 84.5665 177.907 84.578 177.95 84.5857C177.982 84.5934 178.009 84.6011 178.041 84.605C178.088 84.6127 178.135 84.6204 178.179 84.6243C178.207 84.6281 178.238 84.632 178.266 84.6358C178.309 84.6397 178.353 84.6397 178.396 84.6435C178.431 84.6435 178.463 84.6474 178.499 84.6474C178.534 84.6474 178.57 84.6435 178.609 84.6435C178.648 84.6435 178.692 84.6397 178.731 84.6358C178.759 84.632 178.79 84.6281 178.818 84.6243C178.865 84.6166 178.913 84.6127 178.96 84.6011C178.984 84.5973 179.008 84.5896 179.031 84.5857C179.082 84.5742 179.134 84.5626 179.181 84.5472C179.205 84.5395 179.228 84.5318 179.252 84.5241C179.3 84.5087 179.347 84.4933 179.394 84.474C179.43 84.4586 179.465 84.4432 179.501 84.4239C179.532 84.4085 179.568 84.397 179.599 84.3777C179.67 84.3392 179.741 84.3007 179.809 84.2545L181.722 83.0064C182.807 82.3014 183.099 80.8684 182.377 79.8091C181.655 78.7498 180.187 78.4647 179.102 79.1697L178.345 79.6627L164.471 72.5363C163.781 72.1819 162.956 72.1819 162.266 72.5402L147.244 80.306C146.092 80.9031 145.65 82.2976 146.261 83.4224C146.873 84.5511 148.301 84.9787 149.454 84.3816Z" fill="white"/>
<path d="M156.627 82.0464C155.542 82.0464 154.658 82.9055 154.658 83.9688C154.658 85.0282 155.538 85.8912 156.627 85.8912H170.221C171.306 85.8912 172.19 85.0321 172.19 83.9688C172.19 82.9094 171.31 82.0464 170.221 82.0464H156.627Z" fill="white"/>
<path d="M166.688 99.9122L163.587 101.931C162.502 102.636 162.21 104.069 162.932 105.129C163.654 106.188 165.122 106.473 166.207 105.768L169.308 103.749C170.393 103.044 170.685 101.611 169.963 100.552C169.241 99.4923 167.773 99.2034 166.688 99.9122Z" fill="white"/>
<path d="M184.853 94.9443L177.364 99.6324V97.4482C177.36 96.5584 177.072 95.7186 176.499 95.0252C176.211 94.6786 175.848 94.3704 175.399 94.1393C175.008 93.9389 174.542 93.808 174.061 93.781V90.3372C174.061 89.9173 173.954 89.5129 173.773 89.17C173.505 88.6538 173.098 88.2802 172.648 88.0298C172.195 87.7794 171.686 87.6484 171.153 87.6484H155.429C154.719 87.6523 154.048 87.8796 153.503 88.3226C153.231 88.546 152.991 88.8272 152.809 89.17C152.631 89.5129 152.521 89.9173 152.521 90.3372V93.781C152.04 93.808 151.574 93.9389 151.183 94.1393C150.509 94.4859 150.027 95.0021 149.704 95.5684C149.384 96.1385 149.214 96.778 149.214 97.4444V102.479L146.965 103.943C145.88 104.648 145.588 106.081 146.31 107.14C147.032 108.199 148.5 108.485 149.585 107.78L152.091 106.15H156.179C156.451 106.162 156.723 106.127 156.988 106.046L156.995 106.042C157.063 106.023 157.13 106 157.193 105.973C157.224 105.961 157.256 105.946 157.287 105.931C157.323 105.915 157.358 105.9 157.39 105.881C157.469 105.838 157.548 105.792 157.619 105.742L160.685 103.746C161.77 103.042 162.062 101.609 161.34 100.549C160.618 99.4899 159.15 99.2048 158.065 99.9097L155.567 101.535H153.941V98.3766H172.641V103.527C172.641 103.581 172.644 103.635 172.648 103.685C172.613 104.162 172.727 104.656 173.015 105.091C173.718 106.162 175.182 106.474 176.279 105.788L187.406 98.8234C188.503 98.1378 188.822 96.7086 188.12 95.6377C187.414 94.5707 185.954 94.2587 184.853 94.9443ZM156.459 91.489H170.123V93.7695H156.459V91.489Z" fill="white"/>
<path d="M272.161 78.0829C271.438 77.0236 269.971 76.7385 268.886 77.4435L267.205 78.5375C266.514 78.9882 266.147 79.7278 266.155 80.4828C266.155 80.4905 266.155 80.4982 266.155 80.5097V93.0368L254.87 79.0344C254.247 78.264 253.193 77.9596 252.242 78.2832C251.291 78.6029 250.652 79.4812 250.652 80.4635V96.5114L245.136 100.125C244.055 100.834 243.763 102.267 244.493 103.326C245.219 104.381 246.687 104.666 247.772 103.954L254.251 99.7087C254.479 99.5585 254.673 99.3736 254.831 99.1656C255.174 98.7649 255.379 98.2526 255.379 97.6902V87.1161L266.66 101.119C267.284 101.889 268.337 102.193 269.288 101.87C270.239 101.55 270.878 100.672 270.878 99.6894V81.6885L271.506 81.2802C272.591 80.5752 272.887 79.1422 272.161 78.0829Z" fill="white"/>
<path d="M220.181 87.1663C219.676 85.0284 218.745 83.3103 217.613 82.0122C216.764 81.0376 215.813 80.3057 214.886 79.7625C213.485 78.9497 212.14 78.5568 211.122 78.3565C210.104 78.1562 209.413 78.1523 209.295 78.1523H207.05C205.744 78.1523 204.686 79.1847 204.686 80.4598C204.686 81.7348 205.744 82.7672 207.05 82.7672H209.275C209.283 82.7672 209.753 82.7787 210.408 82.929C210.901 83.0407 211.501 83.2294 212.096 83.5299C212.546 83.7572 212.996 84.0461 213.422 84.4159C214.061 84.9744 214.649 85.7102 215.115 86.7888C215.577 87.8674 215.904 89.3081 215.904 91.2611C215.904 92.4475 215.782 93.4452 215.581 94.2889C215.225 95.7604 214.653 96.7504 214.014 97.49C213.533 98.0408 213 98.4569 212.459 98.7727C211.647 99.2504 210.806 99.5046 210.179 99.6279C209.867 99.6895 209.615 99.7203 209.449 99.7358C209.366 99.7435 209.311 99.7473 209.279 99.7473H209.259H204.596V86.1763C204.596 86.1609 204.592 86.1455 204.592 86.1301C204.592 86.0954 204.588 86.0607 204.588 86.0261C204.584 85.9721 204.58 85.9221 204.572 85.8681C204.572 85.8604 204.568 85.8527 204.568 85.8412C204.402 84.7279 203.42 83.8689 202.236 83.8689C201.699 83.8689 201.206 84.0461 200.808 84.3388L196.061 87.1624C194.948 87.825 194.593 89.2426 195.272 90.3327C195.95 91.419 197.402 91.7657 198.519 91.1032L199.876 90.2981V102.047C199.876 102.656 200.129 103.249 200.567 103.676C201.005 104.104 201.616 104.351 202.236 104.351H209.291H209.303C209.425 104.351 210.135 104.339 211.177 104.127C211.958 103.965 212.929 103.692 213.967 103.203C214.744 102.837 215.561 102.347 216.346 101.7C217.526 100.73 218.627 99.3852 219.4 97.6441C220.177 95.9029 220.627 93.7804 220.623 91.2534C220.627 89.7472 220.469 88.3874 220.181 87.1663Z" fill="white"/>
<path d="M245.705 94.9208L237.83 79.4276C237.431 78.6418 236.61 78.1449 235.715 78.1487C234.819 78.1487 233.998 78.6456 233.6 79.4315L223.869 98.615L221.411 100.079C220.298 100.741 219.947 102.163 220.626 103.249C221.305 104.335 222.761 104.678 223.873 104.016L226.912 102.201C226.927 102.19 226.943 102.178 226.959 102.171C227.002 102.144 227.042 102.117 227.085 102.086C227.109 102.067 227.133 102.051 227.156 102.032C227.192 102.005 227.227 101.974 227.263 101.943C227.286 101.92 227.314 101.897 227.338 101.874C227.369 101.843 227.397 101.816 227.425 101.785C227.452 101.758 227.476 101.728 227.5 101.701C227.523 101.674 227.547 101.643 227.571 101.612C227.594 101.577 227.622 101.546 227.646 101.512C227.665 101.485 227.685 101.458 227.701 101.427C227.724 101.389 227.744 101.35 227.768 101.311C227.78 101.292 227.792 101.273 227.799 101.254L235.719 85.6411L241.476 96.9663C242.056 98.1065 243.472 98.5726 244.64 98.0064C245.808 97.4478 246.285 96.0649 245.705 94.9208Z" fill="white"/>
<path d="M147.434 123.174C147.1 123.174 146.858 123.094 146.709 122.933C146.57 122.772 146.501 122.537 146.501 122.227C146.501 121.928 146.57 121.698 146.709 121.537C146.858 121.365 147.1 121.279 147.434 121.279H161.474C161.808 121.279 162.044 121.365 162.182 121.537C162.332 121.698 162.407 121.928 162.407 122.227C162.407 122.537 162.332 122.772 162.182 122.933C162.044 123.094 161.808 123.174 161.474 123.174H157.623V123.967H160.024C160.461 123.967 160.806 123.995 161.06 124.053C161.313 124.11 161.503 124.214 161.63 124.363C161.768 124.501 161.854 124.69 161.889 124.932C161.923 125.161 161.94 125.454 161.94 125.81V127.189C161.94 127.556 161.917 127.861 161.871 128.102C161.825 128.332 161.733 128.521 161.595 128.671C161.457 128.808 161.261 128.906 161.008 128.963C160.766 129.021 160.438 129.05 160.024 129.05H154.186C154.474 129.371 154.514 129.704 154.307 130.049H161.837C162.159 130.049 162.389 130.129 162.528 130.29C162.677 130.451 162.752 130.675 162.752 130.962C162.752 131.203 162.677 131.416 162.528 131.6C162.389 131.772 162.159 131.858 161.837 131.858H159.747C159.459 132.226 159.143 132.593 158.797 132.961C158.463 133.328 158.112 133.662 157.744 133.96C158.274 134.098 158.803 134.236 159.333 134.374C159.862 134.523 160.403 134.678 160.956 134.839C161.44 134.965 161.739 135.143 161.854 135.373C161.981 135.614 161.986 135.901 161.871 136.235C161.768 136.522 161.595 136.705 161.353 136.786C161.111 136.878 160.766 136.843 160.317 136.683C159.58 136.441 158.815 136.194 158.02 135.942C157.226 135.7 156.426 135.465 155.62 135.235C154.676 135.695 153.576 136.068 152.321 136.355C151.078 136.642 149.644 136.832 148.021 136.924C147.48 136.947 147.112 136.872 146.916 136.7C146.732 136.539 146.639 136.309 146.639 136.011C146.639 135.7 146.737 135.471 146.933 135.321C147.14 135.172 147.532 135.086 148.107 135.063C148.522 135.051 148.942 135.023 149.368 134.977C149.806 134.942 150.226 134.891 150.629 134.822C151.043 134.764 151.435 134.695 151.803 134.615C152.183 134.546 152.528 134.471 152.839 134.391C152.356 134.265 151.861 134.15 151.354 134.046C150.859 133.954 150.433 133.863 150.076 133.771C149.8 133.702 149.581 133.598 149.42 133.46C149.27 133.323 149.172 133.168 149.126 132.995C149.092 132.811 149.109 132.622 149.178 132.427C149.259 132.231 149.391 132.042 149.575 131.858L147.296 131.875C146.996 131.875 146.772 131.783 146.622 131.6C146.473 131.416 146.398 131.203 146.398 130.962C146.398 130.675 146.473 130.451 146.622 130.29C146.772 130.129 146.996 130.049 147.296 130.049H151.734C151.861 129.923 151.987 129.79 152.114 129.653C152.252 129.515 152.385 129.377 152.511 129.239C152.546 129.205 152.58 129.176 152.615 129.153C152.649 129.119 152.684 129.084 152.718 129.05H149.04C148.625 129.05 148.292 129.027 148.038 128.981C147.797 128.923 147.607 128.826 147.468 128.688C147.342 128.538 147.255 128.343 147.209 128.102C147.163 127.861 147.14 127.551 147.14 127.172V125.759C147.14 125.345 147.163 125.024 147.209 124.794C147.267 124.553 147.365 124.375 147.503 124.26C147.641 124.133 147.831 124.053 148.073 124.018C148.326 123.984 148.649 123.967 149.04 123.967H151.371V123.174H147.434ZM152.062 132.478C152.546 132.593 153.064 132.725 153.616 132.875C154.169 133.024 154.739 133.173 155.326 133.323C155.695 133.093 156.028 132.857 156.328 132.616C156.627 132.375 156.892 132.122 157.122 131.858H152.356C152.298 131.916 152.235 131.967 152.166 132.013C152.108 132.048 152.051 132.094 151.993 132.151C151.866 132.243 151.803 132.312 151.803 132.358C151.815 132.392 151.901 132.432 152.062 132.478ZM153.254 127.223H155.741V125.81H153.254V127.223ZM157.623 125.81V127.223H159.782C159.897 127.223 159.972 127.2 160.006 127.154C160.041 127.108 160.058 127.022 160.058 126.896V126.052C160.058 125.96 160.041 125.897 160.006 125.862C159.972 125.828 159.897 125.81 159.782 125.81H157.623ZM149.005 126.982C149.005 127.074 149.046 127.137 149.126 127.172C149.207 127.206 149.299 127.223 149.403 127.223H151.371V125.81H149.403C149.218 125.81 149.103 125.833 149.057 125.879C149.023 125.925 149.005 125.994 149.005 126.086V126.982ZM153.254 123.967H155.741V123.174H153.254V123.967Z" fill="white"/>
<path d="M193.078 130.979C192.675 130.979 192.416 130.91 192.301 130.773C192.185 130.623 192.128 130.348 192.128 129.946C192.128 129.589 192.197 129.337 192.335 129.187C192.485 129.038 192.732 128.963 193.078 128.963H195.513C195.559 128.734 195.593 128.493 195.616 128.24C195.651 127.976 195.68 127.711 195.703 127.447C195.726 127.149 195.743 126.815 195.755 126.448C195.766 126.069 195.778 125.638 195.789 125.156H193.682C193.291 125.156 193.037 125.087 192.922 124.949C192.807 124.811 192.75 124.547 192.75 124.156C192.75 123.812 192.801 123.559 192.905 123.398C193.02 123.226 193.279 123.14 193.682 123.14H195.789V121.744C195.789 121.308 195.858 120.997 195.996 120.814C196.134 120.618 196.411 120.521 196.825 120.521C197.263 120.521 197.539 120.618 197.654 120.814C197.781 120.997 197.844 121.308 197.844 121.744V123.14H199.761C200.164 123.14 200.492 123.163 200.745 123.209C201.01 123.243 201.212 123.324 201.35 123.45C201.5 123.576 201.603 123.76 201.661 124.001C201.718 124.242 201.747 124.564 201.747 124.966V128.963H202.11C202.478 128.963 202.737 129.027 202.887 129.153C203.037 129.279 203.111 129.544 203.111 129.946C203.111 130.313 203.037 130.577 202.887 130.738C202.737 130.899 202.478 130.979 202.11 130.979H198.483C198.782 131.462 199.076 131.904 199.364 132.306C199.663 132.708 199.968 133.076 200.279 133.409C200.59 133.73 200.918 134.023 201.264 134.288C201.609 134.563 201.983 134.816 202.386 135.046C202.685 135.206 202.893 135.407 203.008 135.649C203.123 135.89 203.065 136.212 202.835 136.614C202.628 136.935 202.409 137.102 202.179 137.113C201.949 137.125 201.62 137.004 201.194 136.751C200.354 136.28 199.594 135.654 198.915 134.873C198.247 134.092 197.568 133.104 196.877 131.91C196.52 132.886 196.037 133.771 195.426 134.563C194.828 135.367 194.039 136.114 193.06 136.803H193.043C192.56 137.136 192.174 137.286 191.886 137.251C191.61 137.217 191.38 137.016 191.195 136.648L191.23 136.7C191.057 136.424 191.011 136.148 191.092 135.873C191.172 135.608 191.408 135.344 191.8 135.08C192.629 134.517 193.296 133.908 193.803 133.254C194.31 132.599 194.713 131.841 195.012 130.979H193.078ZM190.781 136.166C190.781 136.522 190.694 136.774 190.522 136.924C190.361 137.085 190.13 137.165 189.831 137.165C189.497 137.165 189.255 137.085 189.106 136.924C188.956 136.774 188.881 136.522 188.881 136.166V125.5C188.847 125.81 188.801 126.201 188.743 126.672C188.685 127.131 188.622 127.602 188.553 128.085C188.484 128.567 188.415 129.027 188.346 129.463C188.277 129.9 188.208 130.244 188.139 130.497C188.012 130.991 187.857 131.33 187.672 131.514C187.5 131.697 187.246 131.743 186.912 131.651C186.602 131.548 186.423 131.364 186.377 131.1C186.343 130.824 186.371 130.468 186.463 130.032C186.556 129.641 186.642 129.216 186.722 128.757C186.803 128.297 186.878 127.832 186.947 127.361C187.016 126.89 187.074 126.431 187.12 125.983C187.177 125.535 187.218 125.138 187.241 124.794C187.287 124.323 187.373 124.007 187.5 123.846C187.638 123.685 187.908 123.611 188.311 123.622C188.645 123.634 188.835 123.886 188.881 124.38V121.537C188.881 121.181 188.956 120.929 189.106 120.779C189.255 120.618 189.497 120.538 189.831 120.538C190.13 120.538 190.361 120.618 190.522 120.779C190.694 120.929 190.781 121.181 190.781 121.537V124.139C190.884 123.886 191.017 123.743 191.178 123.708C191.443 123.651 191.685 123.691 191.903 123.829C192.122 123.967 192.278 124.283 192.37 124.777C192.416 125.041 192.456 125.282 192.491 125.5C192.537 125.707 192.577 125.914 192.611 126.121C192.657 126.327 192.698 126.557 192.732 126.81C192.778 127.051 192.83 127.338 192.888 127.671C192.968 128.085 192.968 128.383 192.888 128.567C192.807 128.739 192.617 128.877 192.318 128.981C191.949 129.061 191.702 129.015 191.575 128.843C191.46 128.659 191.374 128.395 191.316 128.05C191.282 127.809 191.241 127.539 191.195 127.24C191.149 126.942 191.103 126.655 191.057 126.379C191.011 126.092 190.965 125.828 190.919 125.586C190.884 125.345 190.85 125.156 190.815 125.018L190.781 136.166ZM197.723 127.533C197.689 128.039 197.637 128.515 197.568 128.963H199.727V125.483C199.727 125.357 199.704 125.27 199.657 125.225C199.623 125.179 199.542 125.156 199.416 125.156H197.827C197.804 125.937 197.769 126.729 197.723 127.533Z" fill="white"/>
<path d="M234.508 129.859H229.845C229.407 129.859 229.051 129.825 228.774 129.756C228.509 129.676 228.308 129.555 228.17 129.394C228.043 129.233 227.968 129.032 227.945 128.791C227.922 128.538 227.934 128.24 227.98 127.895C228.037 127.539 228.095 127.154 228.152 126.741C228.222 126.327 228.285 125.908 228.342 125.483C228.4 125.058 228.458 124.639 228.515 124.225C228.584 123.812 228.648 123.433 228.705 123.088C228.786 122.571 228.953 122.209 229.206 122.003C229.459 121.784 229.805 121.687 230.242 121.71C231.002 121.767 231.848 121.779 232.781 121.744C233.725 121.698 234.646 121.635 235.544 121.555C236.453 121.463 237.277 121.359 238.013 121.244C238.762 121.13 239.32 121.02 239.689 120.917C240.092 120.779 240.408 120.745 240.638 120.814C240.869 120.883 241.047 121.055 241.174 121.331C241.508 122.089 241.249 122.571 240.397 122.778C239.948 122.904 239.361 123.019 238.635 123.122C237.91 123.226 237.115 123.318 236.252 123.398C235.4 123.479 234.519 123.542 233.61 123.588C232.7 123.634 231.848 123.662 231.054 123.674C230.904 123.674 230.789 123.691 230.708 123.726C230.628 123.76 230.576 123.84 230.553 123.967L230.035 127.447C230.012 127.597 230.046 127.706 230.139 127.775C230.242 127.844 230.426 127.878 230.691 127.878H234.508V125.19C234.508 124.811 234.583 124.553 234.732 124.415C234.893 124.265 235.152 124.191 235.509 124.191C235.843 124.191 236.091 124.265 236.252 124.415C236.413 124.553 236.494 124.811 236.494 125.19V127.878H241.899C242.222 127.878 242.463 127.97 242.625 128.154C242.786 128.326 242.866 128.573 242.866 128.895C242.866 129.193 242.797 129.429 242.659 129.601C242.532 129.773 242.279 129.859 241.899 129.859H236.494V135.201C236.494 135.752 236.338 136.189 236.027 136.51C235.728 136.832 235.25 136.993 234.594 136.993C234.387 136.993 234.185 136.987 233.99 136.975C233.805 136.975 233.615 136.958 233.42 136.924C233.224 136.901 233.011 136.861 232.781 136.803C232.562 136.746 232.314 136.665 232.038 136.562C231.393 136.321 231.203 135.878 231.468 135.235C231.595 134.971 231.773 134.799 232.004 134.718C232.234 134.638 232.539 134.655 232.919 134.77C233.276 134.885 233.558 134.96 233.765 134.994C233.984 135.04 234.145 135.051 234.249 135.028C234.364 135.005 234.433 134.954 234.456 134.873C234.49 134.793 234.508 134.69 234.508 134.563V129.859ZM242.953 134.822C243.148 135.166 243.235 135.465 243.212 135.718C243.2 135.97 243.027 136.171 242.694 136.321C242.36 136.516 242.083 136.568 241.865 136.476C241.657 136.395 241.45 136.183 241.243 135.838C240.863 135.149 240.443 134.494 239.982 133.874C239.533 133.242 239.09 132.668 238.652 132.151C238.376 131.829 238.232 131.548 238.221 131.307C238.221 131.066 238.336 130.836 238.566 130.618C238.865 130.353 239.13 130.244 239.361 130.29C239.591 130.325 239.838 130.497 240.103 130.807C240.299 131.037 240.518 131.312 240.759 131.634C241.013 131.956 241.266 132.3 241.519 132.668C241.784 133.024 242.037 133.392 242.279 133.771C242.532 134.138 242.757 134.489 242.953 134.822ZM231.831 132.03C231.37 132.789 230.893 133.466 230.398 134.064C229.914 134.661 229.379 135.27 228.791 135.89C228.527 136.166 228.25 136.315 227.963 136.338C227.675 136.361 227.427 136.269 227.22 136.062C226.978 135.798 226.875 135.534 226.909 135.27C226.955 135.017 227.111 134.758 227.375 134.494C227.606 134.265 227.847 134.012 228.101 133.736C228.354 133.449 228.602 133.156 228.843 132.857C229.085 132.559 229.315 132.254 229.534 131.944C229.753 131.634 229.943 131.33 230.104 131.031C230.472 130.376 230.939 130.193 231.503 130.48C231.871 130.709 232.055 130.956 232.055 131.221C232.067 131.485 231.992 131.755 231.831 132.03Z" fill="white"/>
<path d="M271.05 131.755C270.348 131.755 269.997 131.439 269.997 130.807V123.26C269.997 122.629 270.348 122.313 271.05 122.313C271.384 122.313 271.643 122.387 271.828 122.537C272.012 122.675 272.104 122.927 272.104 123.295V130.773C272.104 131.14 272.012 131.399 271.828 131.548C271.643 131.686 271.384 131.755 271.05 131.755ZM271.05 133.271C271.258 133.271 271.448 133.311 271.62 133.392C271.805 133.472 271.966 133.581 272.104 133.719C272.242 133.857 272.351 134.012 272.432 134.184C272.513 134.368 272.553 134.563 272.553 134.77C272.553 134.977 272.513 135.166 272.432 135.339C272.351 135.522 272.242 135.683 272.104 135.821C271.966 135.959 271.805 136.068 271.62 136.148C271.448 136.229 271.258 136.269 271.05 136.269C270.843 136.269 270.647 136.229 270.463 136.148C270.291 136.068 270.135 135.959 269.997 135.821C269.859 135.683 269.749 135.522 269.669 135.339C269.588 135.166 269.548 134.977 269.548 134.77C269.548 134.563 269.588 134.368 269.669 134.184C269.749 134.012 269.859 133.857 269.997 133.719C270.135 133.581 270.291 133.472 270.463 133.392C270.647 133.311 270.843 133.271 271.05 133.271Z" fill="white"/>
</g>
<path d="M211.369 25.0901C209.502 21.6322 203.426 21.6427 202.158 26.2503C200.89 30.8579 197.48 31.6641 194.347 30.0024C191.214 28.3408 186.828 28.9143 185.216 33.7959C183.605 38.6776 178.779 39.2639 176.059 36.711" stroke="black" stroke-width="4" stroke-linecap="round" stroke-linejoin="round"/>
<path d="M39.0548 150.441C37.833 146.707 31.8516 145.64 29.7835 149.95C27.7153 154.259 24.2162 154.448 21.4287 152.257C18.6412 150.067 14.2232 149.854 11.7678 154.372C9.31246 158.89 4.4592 158.612 2.23688 155.617" stroke="black" stroke-width="4" stroke-linecap="round" stroke-linejoin="round"/>
<path d="M327.894 150.472C330.014 147.594 327.636 142.617 323.348 143.374C319.059 144.13 317.066 141.65 317.213 138.434C317.36 135.217 315.179 131.846 310.53 132.428C305.882 133.009 303.518 129.282 304.56 126.057" stroke="white" stroke-width="4" stroke-linecap="round" stroke-linejoin="round"/>
<path d="M18.3105 54.6053C16.7708 51.3195 19.2603 47.5689 22.8934 47.7008C26.6849 47.8384 28.8595 52.0659 26.7633 55.2239C24.6671 58.382 19.9173 58.0343 18.3105 54.6053Z" fill="#FF4A6B"/>
<path d="M317.515 73.2851C320.881 73.3623 322.977 76.9674 321.372 79.9211C319.698 83.003 315.288 83.0634 313.524 80.0286C311.76 76.9937 314.002 73.2046 317.515 73.2851Z" fill="#FF4A6B"/>
<path d="M243.004 49.274C242.599 46.3117 245.477 43.9719 248.303 44.9644C251.256 46.0013 251.933 49.8639 249.507 51.8364C247.081 53.809 243.426 52.3687 243.004 49.274Z" fill="#FF4A6B"/>
<path d="M22.0444 106.059C22.6156 108.988 19.8804 111.483 17.007 110.654C14.0057 109.788 13.1126 105.977 15.418 103.874C17.7234 101.771 21.4478 102.999 22.0444 106.059Z" fill="#FFCF3B"/>
<path d="M132.83 47.1831C130.502 45.2707 131.026 41.5719 133.794 40.3778C136.679 39.1329 139.813 41.5243 139.373 44.6348C138.932 47.7453 135.257 49.1769 132.83 47.1831Z" fill="#FFCF3B"/>
<path d="M289.872 27.238C292.677 24.7683 297.17 26.1512 298.094 29.7683C299.059 33.5513 295.449 36.9862 291.715 35.8371C287.982 34.6879 286.938 29.8209 289.872 27.238Z" fill="#FFCF3B"/>
<path d="M255.048 156.026C257.557 153.817 261.513 155.034 262.339 158.27C263.202 161.654 260.022 164.68 256.682 163.652C253.342 162.624 252.423 158.336 255.048 156.026Z" fill="#FFCF3B"/>
<path d="M67.8311 13.5586C67.6058 9.83161 71.4077 7.18732 74.8347 8.68743L75.7991 9.10957C79.3802 10.6771 79.8615 15.5522 76.6553 17.7822L75.7543 18.4088C72.5482 20.6388 68.13 18.5019 67.8945 14.6074L67.8311 13.5586Z" fill="white"/>
<defs>
<filter id="filter0_d" x="32.9309" y="54.0911" width="273.458" height="113.535" filterUnits="userSpaceOnUse" color-interpolation-filters="sRGB">
<feFlood flood-opacity="0" result="BackgroundImageFix"/>
<feColorMatrix in="SourceAlpha" type="matrix" values="0 0 0 0 0 0 0 0 0 0 0 0 0 0 0 0 0 0 127 0"/>
<feOffset dy="7"/>
<feGaussianBlur stdDeviation="9"/>
<feColorMatrix type="matrix" values="0 0 0 0 0.215686 0 0 0 0 0.176471 0 0 0 0 0.815686 0 0 0 0.3 0"/>
<feBlend mode="normal" in2="BackgroundImageFix" result="effect1_dropShadow"/>
<feBlend mode="normal" in="SourceGraphic" in2="effect1_dropShadow" result="shape"/>
</filter>
<filter id="filter1_d" x="32.9309" y="54.0911" width="113.714" height="113.535" filterUnits="userSpaceOnUse" color-interpolation-filters="sRGB">
<feFlood flood-opacity="0" result="BackgroundImageFix"/>
<feColorMatrix in="SourceAlpha" type="matrix" values="0 0 0 0 0 0 0 0 0 0 0 0 0 0 0 0 0 0 127 0"/>
<feOffset dy="7"/>
<feGaussianBlur stdDeviation="9"/>
<feColorMatrix type="matrix" values="0 0 0 0 0 0 0 0 0 0 0 0 0 0 0 0 0 0 0.07 0"/>
<feBlend mode="normal" in2="BackgroundImageFix" result="effect1_dropShadow"/>
<feBlend mode="normal" in="SourceGraphic" in2="effect1_dropShadow" result="shape"/>
</filter>
<clipPath id="clip0">
<rect x="50.9309" y="65.0911" width="77.7137" height="77.535" fill="white"/>
</clipPath>
</defs>
</svg>
