<svg width="36" height="24" viewBox="0 0 36 24" fill="none" xmlns="http://www.w3.org/2000/svg">
<path d="M5.976 18.48C6.376 18.48 6.704 18.616 6.96 18.888C7.216 19.144 7.344 19.456 7.344 19.824C7.344 20.224 7.216 20.56 6.96 20.832C6.704 21.088 6.376 21.216 5.976 21.216C5.576 21.216 5.24 21.088 4.968 20.832C4.712 20.56 4.584 20.224 4.584 19.824C4.584 19.456 4.712 19.144 4.968 18.888C5.24 18.616 5.576 18.48 5.976 18.48ZM7.368 15.672C7.368 16.04 7.24 16.36 6.984 16.632C6.744 16.904 6.416 17.04 6 17.04C5.632 17.04 5.312 16.928 5.04 16.704C4.784 16.464 4.64 16.168 4.608 15.816L4.584 15.552C4.584 15.216 4.648 14.888 4.776 14.568C4.904 14.232 5.064 13.928 5.256 13.656C5.416 13.432 5.592 13.216 5.784 13.008C5.976 12.784 6.184 12.56 6.408 12.336C6.664 12.064 6.912 11.784 7.152 11.496C7.408 11.208 7.632 10.92 7.824 10.632C8.016 10.344 8.168 10.048 8.28 9.744C8.408 9.44 8.472 9.128 8.472 8.808C8.472 8.04 8.256 7.384 7.824 6.84C7.408 6.28 6.816 6 6.048 6C5.408 6 4.864 6.152 4.416 6.456C3.968 6.744 3.624 7.168 3.384 7.728C3.256 7.984 3.08 8.2 2.856 8.376C2.632 8.552 2.384 8.64 2.112 8.64H1.872C1.52 8.512 1.24 8.32 1.032 8.064C0.824 7.808 0.72 7.536 0.72 7.248C0.72 7.104 0.728 7.008 0.744 6.96C0.952 6.368 1.232 5.848 1.584 5.4C1.936 4.936 2.336 4.552 2.784 4.248C3.248 3.928 3.744 3.688 4.272 3.528C4.816 3.368 5.376 3.288 5.952 3.288C6.704 3.288 7.4 3.432 8.04 3.72C8.696 3.992 9.256 4.376 9.72 4.872C10.2 5.352 10.568 5.928 10.824 6.6C11.096 7.256 11.232 7.976 11.232 8.76C11.232 9.352 11.144 9.904 10.968 10.416C10.808 10.912 10.592 11.392 10.32 11.856C10.048 12.304 9.736 12.736 9.384 13.152C9.032 13.552 8.672 13.952 8.304 14.352H8.328C8.168 14.528 8.008 14.704 7.848 14.88C7.688 15.04 7.536 15.208 7.392 15.384C7.392 15.416 7.384 15.448 7.368 15.48C7.368 15.512 7.368 15.544 7.368 15.576V15.672ZM17.9526 18.48C18.3526 18.48 18.6806 18.616 18.9366 18.888C19.1926 19.144 19.3206 19.456 19.3206 19.824C19.3206 20.224 19.1926 20.56 18.9366 20.832C18.6806 21.088 18.3526 21.216 17.9526 21.216C17.5526 21.216 17.2166 21.088 16.9446 20.832C16.6886 20.56 16.5606 20.224 16.5606 19.824C16.5606 19.456 16.6886 19.144 16.9446 18.888C17.2166 18.616 17.5526 18.48 17.9526 18.48ZM19.3446 15.672C19.3446 16.04 19.2166 16.36 18.9606 16.632C18.7206 16.904 18.3926 17.04 17.9766 17.04C17.6086 17.04 17.2886 16.928 17.0166 16.704C16.7606 16.464 16.6166 16.168 16.5846 15.816L16.5606 15.552C16.5606 15.216 16.6246 14.888 16.7526 14.568C16.8806 14.232 17.0406 13.928 17.2326 13.656C17.3926 13.432 17.5686 13.216 17.7606 13.008C17.9526 12.784 18.1606 12.56 18.3846 12.336C18.6406 12.064 18.8886 11.784 19.1286 11.496C19.3846 11.208 19.6086 10.92 19.8006 10.632C19.9926 10.344 20.1446 10.048 20.2566 9.744C20.3846 9.44 20.4486 9.128 20.4486 8.808C20.4486 8.04 20.2326 7.384 19.8006 6.84C19.3846 6.28 18.7926 6 18.0246 6C17.3846 6 16.8406 6.152 16.3926 6.456C15.9446 6.744 15.6006 7.168 15.3606 7.728C15.2326 7.984 15.0566 8.2 14.8326 8.376C14.6086 8.552 14.3606 8.64 14.0886 8.64H13.8486C13.4966 8.512 13.2166 8.32 13.0086 8.064C12.8006 7.808 12.6966 7.536 12.6966 7.248C12.6966 7.104 12.7046 7.008 12.7206 6.96C12.9286 6.368 13.2086 5.848 13.5606 5.4C13.9126 4.936 14.3126 4.552 14.7606 4.248C15.2246 3.928 15.7206 3.688 16.2486 3.528C16.7926 3.368 17.3526 3.288 17.9286 3.288C18.6806 3.288 19.3766 3.432 20.0166 3.72C20.6726 3.992 21.2326 4.376 21.6966 4.872C22.1766 5.352 22.5446 5.928 22.8006 6.6C23.0726 7.256 23.2086 7.976 23.2086 8.76C23.2086 9.352 23.1206 9.904 22.9446 10.416C22.7846 10.912 22.5686 11.392 22.2966 11.856C22.0246 12.304 21.7126 12.736 21.3606 13.152C21.0086 13.552 20.6486 13.952 20.2806 14.352H20.3046C20.1446 14.528 19.9846 14.704 19.8246 14.88C19.6646 15.04 19.5126 15.208 19.3686 15.384C19.3686 15.416 19.3606 15.448 19.3446 15.48C19.3446 15.512 19.3446 15.544 19.3446 15.576V15.672ZM29.9291 18.48C30.3291 18.48 30.6571 18.616 30.9131 18.888C31.1691 19.144 31.2971 19.456 31.2971 19.824C31.2971 20.224 31.1691 20.56 30.9131 20.832C30.6571 21.088 30.3291 21.216 29.9291 21.216C29.5291 21.216 29.1931 21.088 28.9211 20.832C28.6651 20.56 28.5371 20.224 28.5371 19.824C28.5371 19.456 28.6651 19.144 28.9211 18.888C29.1931 18.616 29.5291 18.48 29.9291 18.48ZM31.3211 15.672C31.3211 16.04 31.1931 16.36 30.9371 16.632C30.6971 16.904 30.3691 17.04 29.9531 17.04C29.5851 17.04 29.2651 16.928 28.9931 16.704C28.7371 16.464 28.5931 16.168 28.5611 15.816L28.5371 15.552C28.5371 15.216 28.6011 14.888 28.7291 14.568C28.8571 14.232 29.0171 13.928 29.2091 13.656C29.3691 13.432 29.5451 13.216 29.7371 13.008C29.9291 12.784 30.1371 12.56 30.3611 12.336C30.6171 12.064 30.8651 11.784 31.1051 11.496C31.3611 11.208 31.5851 10.92 31.7771 10.632C31.9691 10.344 32.1211 10.048 32.2331 9.744C32.3611 9.44 32.4251 9.128 32.4251 8.808C32.4251 8.04 32.2091 7.384 31.7771 6.84C31.3611 6.28 30.7691 6 30.0011 6C29.3611 6 28.8171 6.152 28.3691 6.456C27.9211 6.744 27.5771 7.168 27.3371 7.728C27.2091 7.984 27.0331 8.2 26.8091 8.376C26.5851 8.552 26.3371 8.64 26.0651 8.64H25.8251C25.4731 8.512 25.1931 8.32 24.9851 8.064C24.7771 7.808 24.6731 7.536 24.6731 7.248C24.6731 7.104 24.6811 7.008 24.6971 6.96C24.9051 6.368 25.1851 5.848 25.5371 5.4C25.8891 4.936 26.2891 4.552 26.7371 4.248C27.2011 3.928 27.6971 3.688 28.2251 3.528C28.7691 3.368 29.3291 3.288 29.9051 3.288C30.6571 3.288 31.3531 3.432 31.9931 3.72C32.6491 3.992 33.2091 4.376 33.6731 4.872C34.1531 5.352 34.5211 5.928 34.7771 6.6C35.0491 7.256 35.1851 7.976 35.1851 8.76C35.1851 9.352 35.0971 9.904 34.9211 10.416C34.7611 10.912 34.5451 11.392 34.2731 11.856C34.0011 12.304 33.6891 12.736 33.3371 13.152C32.9851 13.552 32.6251 13.952 32.2571 14.352H32.2811C32.1211 14.528 31.9611 14.704 31.8011 14.88C31.6411 15.04 31.4891 15.208 31.3451 15.384C31.3451 15.416 31.3371 15.448 31.3211 15.48C31.3211 15.512 31.3211 15.544 31.3211 15.576V15.672Z" fill="#2D210D"/>
</svg>
