<svg width="379" height="145" viewBox="0 0 379 145" fill="none" xmlns="http://www.w3.org/2000/svg">
<g filter="url(#filter0_d)">
<mask id="mask0" mask-type="alpha" maskUnits="userSpaceOnUse" x="18" y="11" width="343" height="109">
<rect x="18" y="11" width="343" height="109" rx="24" fill="#F5F8FB"/>
</mask>
<g mask="url(#mask0)">
<rect x="18" y="11" width="343" height="109" rx="24" fill="url(#paint0_linear)"/>
<path d="M297.394 108.011C316.626 104.737 330.662 92.9484 328.743 81.6805C326.825 70.4126 309.679 63.9326 290.447 67.2069C271.215 70.4812 257.179 82.2699 259.098 93.5378C261.016 104.806 278.162 111.286 297.394 108.011Z" fill="#1C2D6D"/>
<path d="M304.929 152.881C324.161 149.607 337.247 132.242 334.158 114.095C331.068 95.9487 312.973 83.8923 293.741 87.1666C274.509 90.4409 261.423 107.806 264.512 125.953C267.602 144.099 285.697 156.156 304.929 152.881Z" fill="#1C2D6D"/>
<path d="M328.736 81.6816L259.099 93.5376L264.614 125.935L334.252 114.079L328.736 81.6816Z" fill="#1C2D6D"/>
<path d="M302.22 135.511C341.562 128.813 370.635 106.818 367.156 86.3842C363.677 65.9504 328.964 54.8154 289.622 61.5134C250.279 68.2115 221.207 90.2062 224.686 110.64C228.164 131.074 262.878 142.209 302.22 135.511Z" fill="#D70051"/>
<path d="M300.514 125.489C335.82 119.478 361.91 99.7412 358.788 81.405C355.666 63.0688 324.515 53.0772 289.209 59.088C253.904 65.0988 227.814 84.8359 230.936 103.172C234.057 121.508 265.209 131.5 300.514 125.489Z" fill="#E73C65"/>
<path d="M297.146 106.265C317.78 102.752 332.765 89.6658 330.615 77.0369C328.465 64.408 309.994 57.0181 289.36 60.5311C268.725 64.0442 253.741 77.1299 255.891 89.7588C258.041 102.388 276.511 109.778 297.146 106.265Z" fill="#D70051"/>
<path d="M296.726 103.801C315.958 100.526 329.993 88.7375 328.075 77.4696C326.157 66.2017 309.011 59.7216 289.779 62.9959C270.547 66.2702 256.511 78.059 258.429 89.3269C260.348 100.595 277.494 107.075 296.726 103.801Z" fill="#D70051"/>
<path d="M250.671 88.2635C253.774 87.7353 255.182 80.8019 253.816 72.7774C252.45 64.7529 248.827 58.676 245.724 59.2043C242.621 59.7325 241.213 66.6659 242.58 74.6904C243.946 82.7149 247.569 88.7918 250.671 88.2635Z" fill="#F4F8FB"/>
<path d="M250.667 88.2663L261.077 86.4939L256.128 57.4268L245.718 59.1992L250.667 88.2663Z" fill="#F4F8FB"/>
<path d="M264.232 71.0524C262.941 63.0152 259.374 56.9045 256.267 57.4038C253.159 57.9031 251.687 64.8233 252.978 72.8605C254.27 80.8978 257.836 87.0084 260.944 86.5091C264.051 86.0098 265.524 79.0896 264.232 71.0524Z" fill="#C9CACA"/>
<path fill-rule="evenodd" clip-rule="evenodd" d="M258.426 89.3057C258.427 89.3128 258.428 89.3199 258.429 89.3271C260.348 100.595 277.493 107.075 296.726 103.801C315.958 100.526 329.993 88.7377 328.075 77.4698C328.05 77.3243 328.023 77.1796 327.993 77.0358L322.551 45.0736L322.528 45.0776C319.42 26.9312 301.318 14.879 282.08 18.1543C262.831 21.4315 249.733 38.813 252.825 56.9768C252.964 57.7932 253.134 58.5972 253.332 59.388L258.426 89.3057Z" fill="url(#paint1_linear)" fill-opacity="0.9"/>
<mask id="mask1" mask-type="alpha" maskUnits="userSpaceOnUse" x="263" y="30" width="52" height="53">
<path d="M293.195 81.6809C307.077 79.3173 316.414 66.1369 314.048 52.2415C311.683 38.3462 298.51 28.9979 284.628 31.3615C270.745 33.725 261.408 46.9055 263.774 60.8008C266.14 74.6962 279.312 84.0445 293.195 81.6809Z" fill="#FFCF3C"/>
</mask>
<g mask="url(#mask1)">
<path d="M293.195 81.6809C307.077 79.3173 316.414 66.1369 314.048 52.2415C311.683 38.3462 298.51 28.9979 284.628 31.3615C270.745 33.725 261.408 46.9055 263.774 60.8008C266.14 74.6962 279.312 84.0445 293.195 81.6809Z" fill="#FFC102"/>
<path d="M282.078 69.0481C293.553 67.0945 301.27 56.2004 299.315 44.7154C297.359 33.2304 286.472 25.5036 274.997 27.4572C263.523 29.4108 255.806 40.305 257.761 51.79C259.716 63.275 270.604 71.0017 282.078 69.0481Z" fill="#FFCF3B"/>
<path d="M276.15 51.4168C276.955 51.2798 277.496 50.5158 277.359 49.7103C277.222 48.9049 276.458 48.363 275.654 48.5C274.849 48.637 274.308 49.401 274.445 50.2065C274.582 51.0119 275.345 51.5538 276.15 51.4168Z" fill="#1F2020"/>
<path d="M289.422 49.3655C290.226 49.2285 290.768 48.4645 290.63 47.659C290.493 46.8536 289.73 46.3117 288.925 46.4487C288.12 46.5857 287.579 47.3497 287.716 48.1552C287.853 48.9607 288.617 49.5026 289.422 49.3655Z" fill="#1F2020"/>
<path d="M280.802 49.4531C280.802 49.4531 282.4 50.457 284.435 48.9871" stroke="#1F2020" stroke-width="2" stroke-miterlimit="10" stroke-linecap="round" stroke-linejoin="round"/>
</g>
<path d="M328.592 74.9985C331.695 74.4703 333.103 67.5369 331.736 59.5124C330.37 51.4879 326.747 45.411 323.645 45.9393C320.542 46.4675 319.134 53.4009 320.5 61.4254C321.866 69.4499 325.489 75.5268 328.592 74.9985Z" fill="#F4F8FB"/>
<path d="M328.588 75.0006L338.998 73.2283L334.049 44.1612L323.639 45.9336L328.588 75.0006Z" fill="#F4F8FB"/>
<path d="M342.152 57.7836C340.86 49.7464 337.294 43.6357 334.186 44.135C331.079 44.6343 329.606 51.5545 330.898 59.5918C332.189 67.629 335.755 73.7396 338.863 73.2403C341.971 72.741 343.443 65.8208 342.152 57.7836Z" fill="#C9CACA"/>
<path d="M41.154 75.5006C40.37 75.7666 39.516 76.0186 38.606 76.2566V73.7366H42.05C42.162 74.8006 42.316 75.7246 42.512 76.5226C42.652 77.0686 42.806 77.5866 42.974 78.0626C41.952 79.0286 40.762 79.7706 39.39 80.2746L39.936 81.1426C41.21 80.6386 42.358 79.9386 43.366 79.0426C43.59 79.5466 43.856 79.9946 44.136 80.3726C44.78 81.2126 45.382 81.6326 45.956 81.6326C46.6 81.6326 47.09 80.6386 47.426 78.6506L46.544 78.1886C46.32 79.7566 46.082 80.5406 45.802 80.5546C45.536 80.5546 45.172 80.2046 44.724 79.5326C44.5 79.2106 44.304 78.8046 44.108 78.3286C44.99 77.3906 45.746 76.2706 46.39 74.9546L45.522 74.4926C45.018 75.5286 44.416 76.4526 43.744 77.2646C43.646 76.9566 43.548 76.6346 43.464 76.2706C43.296 75.5846 43.17 74.7446 43.072 73.7366H47.314V72.7706H42.988C42.904 71.6786 42.862 70.4326 42.848 69.0186H41.84C41.84 70.3906 41.882 71.6366 41.966 72.7706H38.606V70.6706C39.334 70.4746 40.034 70.2646 40.678 70.0406L40.342 69.0886C38.802 69.6906 37.038 70.0966 35.05 70.3206L35.26 71.2866C36.058 71.1746 36.828 71.0486 37.57 70.8946V72.7706H34.686V73.7366H37.57V76.4946C36.66 76.6906 35.694 76.8586 34.672 77.0266L34.812 78.0486C35.764 77.8946 36.674 77.7126 37.57 77.5166V80.1766C37.57 80.5546 37.374 80.7506 36.982 80.7506C36.52 80.7506 36.044 80.7226 35.554 80.6806L35.764 81.6466H37.318C38.172 81.6466 38.606 81.2406 38.606 80.4286V77.2786C39.502 77.0406 40.342 76.7886 41.154 76.5226V75.5006ZM44.388 69.1726L43.716 69.8166C44.78 70.5586 45.606 71.2586 46.222 71.9026L46.95 71.1746C46.25 70.5026 45.396 69.8446 44.388 69.1726ZM50.8 69.4666V74.3246H59.312V69.4666H50.8ZM58.318 73.4706H51.794V72.3226H58.318V73.4706ZM51.794 71.4966V70.3346H58.318V71.4966H51.794ZM54.65 76.2846V80.4706C54.356 80.4146 54.104 80.3446 53.88 80.2746C53.152 80.0086 52.48 79.3926 51.892 78.4126C52.074 77.9506 52.228 77.4606 52.368 76.9426L51.416 76.7746C50.954 78.5246 50.072 79.9246 48.784 80.9606L49.442 81.7866C50.282 81.1006 50.982 80.2466 51.528 79.2106C52.088 80.1346 52.732 80.7506 53.446 81.0726C54.272 81.4226 55.84 81.6046 58.15 81.6046C58.948 81.6186 59.844 81.6326 60.852 81.6326L61.132 80.6806C60.306 80.7086 59.284 80.7226 58.08 80.7226C57.156 80.7226 56.344 80.6806 55.672 80.6246V78.7626H59.704V77.8666H55.672V76.2846H61.202V75.3606H48.812V76.2846H54.65ZM66.102 72.1966V72.6586H71.884V72.1826C72.752 72.6726 73.732 73.1346 74.852 73.5546L75.398 72.7006C72.598 71.6506 70.61 70.4326 69.448 69.0466H68.524C67.124 70.5586 65.15 71.8046 62.588 72.7566L63.134 73.5966C64.198 73.2046 65.192 72.7426 66.102 72.1966ZM71.282 71.8186H66.704C67.544 71.2586 68.3 70.6286 68.986 69.9286C69.602 70.6006 70.358 71.2306 71.282 71.8186ZM65.388 73.6246V76.5926H72.668V73.6246H65.388ZM71.702 75.7666H66.354V74.4506H71.702V75.7666ZM73.76 77.5026H64.24V80.4986H62.77V81.4086H75.188V80.4986H73.76V77.5026ZM65.206 80.4986V78.4126H67.026V80.4986H65.206ZM67.992 80.4986V78.4126H69.938V80.4986H67.992ZM70.904 80.4986V78.4126H72.794V80.4986H70.904ZM77.008 70.4326V80.4286H80.48C82.048 80.4286 83.252 79.9666 84.092 79.0566C84.89 78.1886 85.296 76.9706 85.296 75.4306C85.296 73.8626 84.918 72.6446 84.176 71.8046C83.364 70.8806 82.174 70.4326 80.592 70.4326H77.008ZM78.156 71.4266H80.41C81.726 71.4266 82.678 71.7626 83.294 72.4486C83.868 73.0926 84.162 74.0866 84.162 75.4306C84.162 76.7326 83.84 77.7266 83.224 78.3986C82.566 79.0846 81.586 79.4346 80.284 79.4346H78.156V71.4266ZM89.8188 70.4326L85.8848 80.4286H87.1168L88.1808 77.6286H92.7728L93.8368 80.4286H95.0828L91.1488 70.4326H89.8188ZM88.5448 76.6626L90.4628 71.6646H90.5188L92.4088 76.6626H88.5448ZM96.0939 70.4326V80.4286H97.2419V72.2106H97.2839L102.968 80.4286H104.144V70.4326H102.996V78.5666H102.954L97.2979 70.4326H96.0939ZM105.96 71.7346V72.7006H108.004C107.542 74.4506 106.772 76.0046 105.694 77.3626L106.128 78.4546C106.912 77.3066 107.556 76.0466 108.046 74.6466V81.7586H109.054V74.3806C109.446 74.9266 109.908 75.6406 110.44 76.5226L111.028 75.6546C110.356 74.8286 109.698 74.0866 109.054 73.4146V72.7006H110.79V71.7346H109.054V69.0046H108.046V71.7346H105.96ZM110.132 81.1426L110.958 81.8846C111.616 80.8766 112.064 79.8406 112.302 78.7486C112.554 77.7126 112.68 76.4246 112.68 74.8846V70.5306H115.172V80.2746C115.172 81.0866 115.62 81.4926 116.516 81.4926H117.09C117.538 81.4926 117.874 81.4086 118.098 81.2546C118.322 81.0586 118.462 80.7226 118.518 80.2186C118.574 79.6866 118.616 78.9306 118.616 77.9226L117.692 77.6286C117.692 78.9726 117.65 79.7706 117.594 80.0506C117.566 80.2466 117.496 80.3726 117.384 80.4566C117.286 80.5126 117.16 80.5406 116.992 80.5406H116.516C116.292 80.5406 116.194 80.4146 116.194 80.1766V69.5786H111.672V74.8846C111.672 76.3266 111.574 77.4746 111.392 78.3286C111.154 79.3226 110.734 80.2606 110.132 81.1426ZM121.108 69.5226V72.9246H125.378V69.5226H121.108ZM124.454 72.0706H122.018V70.3906H124.454V72.0706ZM126.932 69.5226V72.9246H131.286V69.5226H126.932ZM130.376 72.0706H127.856V70.3906H130.376V72.0706ZM119.974 74.3246V75.2206H123.838C122.858 76.0606 121.486 76.7466 119.694 77.2786L120.156 78.1046C120.548 77.9786 120.926 77.8526 121.304 77.7126V81.8426H122.186V81.2406H124.58V81.8426H125.476V77.4326H121.962C123.278 76.8446 124.328 76.1166 125.112 75.2206H127.478C128.178 76.0746 129.214 76.8166 130.558 77.4326H126.82V81.8426H127.716V81.2406H130.334V81.8426H131.23V77.7266C131.538 77.8386 131.86 77.9646 132.21 78.0766L132.616 77.2226C130.81 76.7326 129.452 76.0606 128.542 75.2206H132.322V74.3246H130.39C130.166 73.8906 129.914 73.4846 129.62 73.0926L128.766 73.3726C128.99 73.6526 129.2 73.9746 129.396 74.3246H125.784C125.98 73.9886 126.162 73.6526 126.302 73.2886L125.336 73.1906C125.168 73.5826 124.958 73.9606 124.692 74.3246H119.974ZM122.186 80.3726V78.2726H124.58V80.3726H122.186ZM127.716 80.3726V78.2726H130.334V80.3726H127.716ZM140.652 69.0186H139.63C139.63 69.5506 139.616 70.2926 139.602 71.2446C139.476 75.2766 137.488 78.4826 133.638 80.8486L134.254 81.7446C137.362 79.7426 139.35 77.2226 140.19 74.1706C141.184 77.3346 143.116 79.8546 145.972 81.7306L146.63 80.8486C143.368 78.8466 141.338 75.9346 140.554 72.1266C140.61 71.2586 140.652 70.2226 140.652 69.0186ZM149.752 78.7626C149.472 78.7626 149.262 78.8326 149.094 79.0006C148.926 79.1546 148.842 79.3646 148.842 79.6306C148.842 79.8686 148.926 80.0786 149.094 80.2466C149.262 80.4146 149.458 80.4986 149.696 80.4986C149.836 80.4986 149.948 80.4706 150.004 80.4426C150.004 80.7786 149.906 81.0866 149.696 81.3806C149.472 81.6606 149.178 81.8706 148.814 81.9966V82.6826C149.402 82.5286 149.892 82.2206 150.256 81.7726C150.62 81.2966 150.802 80.7506 150.802 80.1346C150.802 79.7286 150.704 79.4066 150.522 79.1546C150.326 78.8886 150.06 78.7626 149.752 78.7626ZM161.918 69.8306V70.8106H171.55V80.0786C171.55 80.5546 171.312 80.8066 170.864 80.8066C170.164 80.8066 169.422 80.7786 168.652 80.7506L168.876 81.7306H171.214C172.11 81.7306 172.558 81.2546 172.558 80.3306V70.8106H174.406V69.8306H161.918ZM168.988 72.9526H163.542V79.3226H164.522V78.0906H168.988V72.9526ZM164.522 77.1666V73.8626H168.022V77.1666H164.522ZM180.426 70.5166L179.586 71.0346C180.818 72.4766 181.784 73.7786 182.498 74.9546L183.352 74.3666C182.68 73.2746 181.7 71.9866 180.426 70.5166ZM185.242 77.3766C186.306 78.8466 187.16 80.2326 187.818 81.5486L188.588 80.7786C187.804 79.3226 186.838 77.8666 185.69 76.4106C185.774 76.2006 185.844 75.9906 185.914 75.7806C186.502 73.9326 186.796 71.6926 186.796 69.0326H185.746C185.732 71.7346 185.438 73.9606 184.85 75.7106C184.08 77.7826 182.498 79.4906 180.118 80.8626L180.79 81.6886C182.834 80.5126 184.318 79.0706 185.242 77.3766ZM176.954 80.2326C178.592 79.6306 180.132 78.9166 181.56 78.0906L181.28 77.1106C180.202 77.7546 179.124 78.3006 178.032 78.7486V69.3966H176.996V78.5106C176.996 78.8326 176.87 79.0846 176.618 79.2806L176.954 80.2326ZM191.724 69.3406L190.954 69.8866C191.71 70.6706 192.34 71.4126 192.83 72.1126L193.614 71.5666C193.166 70.9226 192.536 70.1806 191.724 69.3406ZM196.652 75.2486L195.84 75.7526C196.792 76.8446 197.534 77.8526 198.094 78.7486L198.976 78.1326C198.43 77.3206 197.66 76.3546 196.652 75.2486ZM194.902 68.9906V70.6566C194.888 71.2726 194.86 71.8606 194.818 72.4486H190.352V73.4286H194.706C194.524 74.8286 194.216 76.0466 193.782 77.0826C193.054 78.6646 191.738 79.9246 189.862 80.8766L190.436 81.7726C192.34 80.8346 193.698 79.5326 194.524 77.8666C195.098 76.6626 195.49 75.1926 195.714 73.4286H200.558C200.558 75.2206 200.502 76.8866 200.39 78.4126C200.278 79.9246 199.816 80.7226 199.032 80.7786C198.444 80.7786 197.8 80.7506 197.086 80.6946L197.352 81.6746C197.828 81.7026 198.402 81.7306 199.088 81.7306C200.026 81.7306 200.684 81.1846 201.048 80.0926C201.398 79.0006 201.58 76.4526 201.58 72.4486H195.812C195.854 71.8746 195.882 71.2726 195.896 70.6566V68.9906H194.902ZM205.472 74.0586V81.8286H206.48V72.5046C207.04 71.5246 207.502 70.4746 207.866 69.3686L206.928 68.9206C206.242 71.1326 205.136 73.1066 203.624 74.8146L203.946 75.8786C204.492 75.3046 204.996 74.7026 205.472 74.0586ZM214.488 74.5626L213.592 74.8566C214.278 76.4246 214.908 78.2446 215.468 80.2886L216.35 79.8966C215.818 77.9926 215.202 76.2146 214.488 74.5626ZM209.672 71.6786H214.978C214.768 72.4066 214.502 73.0506 214.18 73.6386L215.146 73.9186C215.496 73.0786 215.776 72.2246 216 71.3566V70.6986H210.036C210.204 70.2086 210.372 69.6906 210.512 69.1446L209.56 68.9486C209.084 70.8386 208.314 72.5606 207.25 74.1146L208.118 74.6466C208.706 73.7506 209.224 72.7706 209.672 71.6786ZM211.422 81.7306C212.192 81.7306 212.584 81.3386 212.584 80.5546V72.8546H211.604V80.3026C211.604 80.6666 211.422 80.8486 211.072 80.8486C210.54 80.8486 209.966 80.8206 209.378 80.7786L209.588 81.7306H211.422ZM209.322 74.6746C208.748 76.7186 208.076 78.3986 207.32 79.7146L208.258 80.0506C209.07 78.5806 209.728 76.8726 210.232 74.9266L209.322 74.6746ZM36.59 88.9086H38.018C37.99 89.3846 37.948 89.8326 37.864 90.2666H34.798V91.1906H37.612L37.472 91.5266C37.01 92.4786 36.058 93.2766 34.602 93.9206L35.274 94.7466C36.66 94.1026 37.64 93.2906 38.2 92.3106C39.152 92.8706 39.908 93.4026 40.496 93.9346L41.21 93.2206C40.482 92.6606 39.586 92.1146 38.522 91.5826C38.55 91.4566 38.592 91.3306 38.634 91.1906H41.476V90.2666H38.844C38.9 89.8466 38.942 89.3846 38.97 88.9086H41.084V88.0126H37.08C37.206 87.7326 37.332 87.4246 37.458 87.0886L36.548 86.8926C36.086 88.0126 35.526 88.8806 34.854 89.4966L35.456 90.2526C35.876 89.8746 36.254 89.4266 36.59 88.9086ZM42.064 87.9426V93.0666H46.67V87.9426H42.064ZM45.69 92.1706H43.044V88.8386H45.69V92.1706ZM45.676 94.0746H36.716V99.8566H37.724V99.2266H44.654V99.8566H45.676V94.0746ZM37.724 98.3306V97.1266H44.654V98.3306H37.724ZM37.724 96.2446V94.9706H44.654V96.2446H37.724ZM50.506 95.0266H53.74V96.3286H50.506V95.0266ZM53.74 94.1866H50.506V92.8286H53.74V94.1866ZM50.506 97.1826H53.74V98.3166C53.74 98.6666 53.558 98.8486 53.208 98.8486L52.158 98.8066L52.41 99.7586H53.53C54.314 99.7586 54.706 99.3386 54.706 98.5266V91.9466H49.54V99.8566H50.506V97.1826ZM59.62 93.1086C60.11 93.1086 60.474 92.9966 60.698 92.7866C60.95 92.5346 61.132 91.8346 61.23 90.6866L60.292 90.3926C60.236 91.2606 60.152 91.7786 60.012 91.9746C59.9 92.1146 59.704 92.1986 59.424 92.1986H57.59C57.212 92.1986 57.03 91.9746 57.03 91.5266V89.7766C58.57 89.5526 59.928 89.2866 61.104 88.9926L60.782 88.1106C59.816 88.3626 58.57 88.6146 57.03 88.8526V87.0326H56.036V91.7366C56.036 92.6466 56.456 93.1086 57.31 93.1086H59.62ZM57.03 96.2726C58.486 96.1466 59.844 95.9086 61.104 95.5446L60.782 94.6486C59.676 94.9846 58.43 95.2226 57.03 95.3626V93.6406H56.036V98.4986C56.036 99.2406 56.442 99.6186 57.282 99.6186H59.662C60.166 99.6186 60.53 99.5066 60.754 99.2966C61.02 99.0446 61.202 98.3586 61.286 97.2246L60.376 96.9446C60.32 97.7986 60.222 98.3166 60.068 98.5126C59.956 98.6386 59.746 98.7086 59.466 98.7086H57.562C57.198 98.7086 57.03 98.5546 57.03 98.2746V96.2726ZM53.698 87.9846L52.914 88.4746C53.25 88.9506 53.572 89.4266 53.866 89.8746C52.55 90.0426 51.304 90.1546 50.128 90.2246C50.912 89.5106 51.612 88.5306 52.256 87.2846L51.304 86.9906C50.744 88.1106 50.016 89.1186 49.148 90.0146C49.022 90.1266 48.868 90.2246 48.686 90.2806L48.966 91.1206C51.038 91.0086 52.83 90.8406 54.328 90.6026C54.51 90.9106 54.678 91.2186 54.832 91.5266L55.658 90.9386C55.196 90.0986 54.538 89.1186 53.698 87.9846ZM67.138 88.6706V89.5946H70.694V90.9526H67.586V99.8006H68.524V96.7626H70.694V99.7306H71.646V96.7626H73.886V98.3586C73.886 98.6946 73.718 98.8626 73.41 98.8626L72.346 98.8206L72.612 99.7446H73.704C74.446 99.7446 74.824 99.3526 74.824 98.5686V90.9526H71.646V89.5946H75.384V88.6706H73.914L74.502 88.2506C74.25 87.8726 73.872 87.4386 73.382 86.9486L72.696 87.3686C73.144 87.8446 73.494 88.2786 73.76 88.6706H71.646V87.0046H70.694V88.6706H67.138ZM70.694 91.8626V93.4166H68.524V91.8626H70.694ZM68.524 94.3126H70.694V95.8666H68.524V94.3126ZM73.886 95.8666H71.646V94.3126H73.886V95.8666ZM73.886 93.4166H71.646V91.8626H73.886V93.4166ZM64.31 99.7026C65.094 99.7026 65.5 99.2966 65.5 98.5126V94.4526C66.004 94.2426 66.494 94.0186 66.97 93.7806V92.7586C66.48 93.0106 65.99 93.2486 65.5 93.4586V90.6446H66.914V89.6786H65.5V87.0326H64.492V89.6786H62.784V90.6446H64.492V93.8506C63.862 94.0606 63.218 94.2426 62.574 94.3966L62.826 95.4046C63.386 95.2366 63.932 95.0406 64.492 94.8446V98.2466C64.492 98.5966 64.31 98.7786 63.96 98.7786C63.596 98.7786 63.232 98.7506 62.84 98.7226L63.05 99.7026H64.31ZM87.592 98.6946C86.948 98.6666 86.402 98.6246 85.954 98.5406V95.2226H88.992V94.2986H85.954V91.9886H88.516V87.5786H82.118V91.9886H84.974V98.2466C84.512 98.0366 84.092 97.6866 83.728 97.2106C83.392 96.7346 83.126 96.1746 82.944 95.5306C83.126 94.8306 83.28 94.0746 83.406 93.2626L82.44 93.0946C82.076 95.6006 81.376 97.6026 80.34 99.0866L80.984 99.8846C81.6 99.0586 82.132 98.0366 82.552 96.8326C83 97.8546 83.602 98.5826 84.386 99.0166C85.002 99.4086 86.206 99.6046 87.97 99.6186H89.272L89.454 98.6526C89.006 98.6806 88.376 98.6946 87.592 98.6946ZM78.45 99.6746C79.234 99.6746 79.626 99.2686 79.626 98.4566V94.3966C80.144 94.1586 80.662 93.9066 81.166 93.6266V92.6326C80.662 92.9126 80.158 93.1786 79.626 93.4306V90.5326H81.082V89.5666H79.626V87.0046H78.66V89.5666H76.952V90.5326H78.66V93.8226C78.03 94.0606 77.386 94.2566 76.714 94.4246L76.966 95.4186C77.526 95.2366 78.1 95.0266 78.66 94.8026V98.2186C78.66 98.5966 78.478 98.7926 78.114 98.7926C77.764 98.7926 77.414 98.7646 77.05 98.7226L77.26 99.6746H78.45ZM87.55 91.0646H83.098V88.5026H87.55V91.0646ZM100.962 94.5646H93.094V99.8566H94.088V99.1846H99.954V99.8566H100.962V94.5646ZM94.088 98.2046V95.5166H99.954V98.2046H94.088ZM95.138 86.8926C94.186 88.5446 92.954 89.8886 91.456 90.9246L92.1 91.7086C92.814 91.2046 93.472 90.6306 94.074 89.9866C94.662 90.6866 95.348 91.3306 96.132 91.8906C94.578 92.7586 92.744 93.3606 90.63 93.7106L91.064 94.6206C93.36 94.1866 95.334 93.4726 97.014 92.4646C98.638 93.4586 100.612 94.1586 102.936 94.5646L103.37 93.6546C101.242 93.3186 99.408 92.7306 97.868 91.9046C99.03 91.0786 100.024 90.0846 100.85 88.9366V88.1246H95.544C95.754 87.8026 95.95 87.4666 96.146 87.1166L95.138 86.8926ZM94.662 89.3146C94.718 89.2306 94.788 89.1466 94.872 89.0626H99.59C98.862 89.9446 97.994 90.7146 96.986 91.3866C96.09 90.7986 95.306 90.0986 94.662 89.3146ZM113.114 87.0466V89.5106H110.398V95.8526H111.364V95.1386H113.114V99.8286H114.136V95.1386H115.942V95.8526H116.922V89.5106H114.136V87.0466H113.114ZM111.364 94.2006V90.4626H113.114V94.2006H111.364ZM114.136 94.2006V90.4626H115.942V94.2006H114.136ZM104.966 88.9786C105.638 88.8946 106.268 88.8106 106.884 88.7126V90.8266H104.728V91.7926H106.786C106.324 93.3886 105.554 94.8166 104.462 96.0766L104.882 97.1266C105.722 96.0206 106.38 94.7886 106.884 93.4446V99.8846H107.864V93.3746C108.298 93.9346 108.816 94.6626 109.418 95.5586L109.978 94.7186C109.264 93.8926 108.564 93.1506 107.864 92.4926V91.7926H109.67V90.8266H107.864V88.5166C108.508 88.3766 109.11 88.2086 109.684 88.0266L109.334 87.0886C108.004 87.5646 106.478 87.8726 104.77 88.0406L104.966 88.9786ZM120.506 88.9786V92.1286H118.938V93.0386H120.506V96.5666C119.904 96.7626 119.288 96.9446 118.644 97.1266L118.924 98.1486C120.604 97.6446 122.06 97.0846 123.32 96.4966V95.4746C122.76 95.7266 122.158 95.9786 121.528 96.2166V93.0386H122.998V92.1286H121.528V88.9786H123.292V88.0406H118.742V88.9786H120.506ZM125.322 92.7446V93.7246C125.28 96.1886 124.132 97.9806 121.892 99.1006L122.648 99.7586C125.028 98.4846 126.246 96.4686 126.288 93.7246V92.7446H127.954V98.3166C127.954 98.6806 128.052 99.0026 128.262 99.2546C128.458 99.4926 128.752 99.6186 129.144 99.6186H130.068C130.516 99.6186 130.838 99.4926 131.034 99.2546C131.216 99.0026 131.356 98.1906 131.454 96.8326L130.516 96.5106C130.474 97.7146 130.376 98.3866 130.236 98.5266C130.152 98.6386 130.026 98.6946 129.858 98.6946H129.466C129.13 98.6946 128.976 98.4846 128.976 98.0926V92.7446H130.978V91.7506H123.488V92.7446H125.322ZM123.978 87.8166V88.7826H130.53V87.8166H123.978ZM143.2 87.5366H134.8V96.1046H132.784V97.0426H136.858C135.836 97.7986 134.576 98.4566 133.064 99.0446L133.68 99.8426C135.248 99.2266 136.55 98.4986 137.614 97.6726L136.886 97.0426H140.806L140.33 97.7426C141.702 98.2466 143.046 98.9466 144.362 99.8146L144.922 98.9606C143.746 98.2186 142.43 97.5746 140.988 97.0426H145.216V96.1046H143.2V87.5366ZM135.822 96.1046V94.7886H142.178V96.1046H135.822ZM135.822 93.9766V92.6886H142.178V93.9766H135.822ZM135.822 91.8626V90.5606H142.178V91.8626H135.822ZM135.822 89.7626V88.4886H142.178V89.7626H135.822ZM148.156 91.9886V99.8566H149.15V90.3366C149.64 89.3846 150.046 88.3766 150.382 87.2986L149.444 86.8646C148.814 89.0486 147.82 90.9946 146.448 92.6886L146.77 93.7666C147.274 93.2066 147.736 92.6046 148.156 91.9886ZM150.326 88.8386V89.7906H159.44V88.8386H155.03L155.562 88.6426C155.394 88.1246 155.17 87.5646 154.876 86.9486L153.91 87.2146C154.19 87.7466 154.428 88.2786 154.638 88.8386H150.326ZM151.614 90.9246V91.8346H158.236V90.9246H151.614ZM151.614 92.8986V93.8226H158.236V92.8986H151.614ZM158.488 94.9706H151.348V99.8286H152.328V99.0726H157.508V99.8286H158.488V94.9706ZM152.328 98.1206V95.9086H157.508V98.1206H152.328ZM162.674 88.0266V94.8726H171.438V88.0266H166.818C166.986 87.7186 167.126 87.3966 167.238 87.0466L166.188 86.9066C166.09 87.2986 165.95 87.6626 165.754 88.0266H162.674ZM170.458 94.0046H163.654V92.8286H170.458V94.0046ZM163.654 92.0166V90.8686H170.458V92.0166H163.654ZM163.654 90.0566V88.9086H170.458V90.0566H163.654ZM161.974 95.8246C161.708 96.9166 161.274 97.9246 160.672 98.8206L161.526 99.3666C162.128 98.4146 162.59 97.3086 162.926 96.0206L161.974 95.8246ZM168.722 99.6186C169.254 99.6186 169.66 99.5066 169.912 99.2966C170.192 99.0306 170.388 98.3166 170.5 97.1406L169.534 96.8326C169.478 97.7426 169.352 98.2886 169.184 98.4846C169.072 98.6246 168.848 98.7086 168.526 98.7086H165.418C165.096 98.7086 164.942 98.5406 164.942 98.2186V95.7546H163.92V98.4286C163.92 99.2126 164.312 99.6186 165.124 99.6186H168.722ZM166.846 95.2506L166.104 95.7126C166.832 96.4406 167.392 97.0986 167.812 97.7006L168.582 97.1686C168.176 96.6226 167.602 95.9786 166.846 95.2506ZM171.368 95.5726L170.584 96.0626C171.438 97.1686 172.124 98.1766 172.628 99.0866L173.426 98.5266C172.95 97.6866 172.264 96.6926 171.368 95.5726ZM178.508 88.1386H175.106V98.4846H176.072V97.4346H177.542V98.1906H178.508V88.1386ZM176.072 96.4546V89.1186H177.542V96.4546H176.072ZM180.482 99.7306C181.336 99.7306 181.77 99.3106 181.77 98.4706V95.0406C182.19 94.9006 182.596 94.7606 183.002 94.6206V93.6126C182.596 93.7666 182.19 93.9066 181.77 94.0466V91.8206H183.646C183.702 93.1086 183.786 94.2426 183.898 95.1946C183.954 95.6706 184.038 96.1186 184.122 96.5526C183.562 97.2526 182.918 97.7986 182.19 98.2046L182.736 99.0306C183.338 98.6806 183.898 98.2326 184.402 97.6726C184.514 98.0226 184.64 98.3446 184.78 98.6386C185.144 99.3526 185.55 99.7166 185.998 99.7166C186.572 99.7166 187.062 98.8486 187.468 97.1406L186.754 96.5386C186.502 97.8966 186.25 98.5966 185.998 98.6246C185.648 98.5826 185.34 97.9946 185.074 96.8466C185.788 95.8386 186.39 94.5926 186.88 93.0946L186.096 92.6886C185.746 93.7666 185.326 94.7186 184.836 95.5306C184.696 94.5506 184.598 93.3046 184.542 91.8206H186.95V90.8546H184.5C184.458 89.7206 184.444 88.4466 184.444 87.0326H183.548C183.548 88.4186 183.562 89.6926 183.604 90.8546H181.77V88.7406C182.218 88.4606 182.624 88.1246 182.96 87.7466L182.232 87.1446C181.532 87.9286 180.454 88.5026 179.012 88.8386L179.418 89.7066C179.908 89.5806 180.37 89.4266 180.804 89.2446V90.8546H178.998V91.8206H180.804V94.3266C180.174 94.4946 179.53 94.6346 178.886 94.7466L179.124 95.7546C179.684 95.6286 180.244 95.4886 180.804 95.3346V98.2186C180.804 98.6386 180.58 98.8486 180.146 98.8486C179.824 98.8486 179.488 98.8206 179.138 98.7786L179.348 99.7306H180.482ZM185.424 87.3966L184.738 87.9146C185.298 88.5026 185.858 89.1886 186.418 90.0006L187.16 89.4266C186.614 88.6986 186.04 88.0126 185.424 87.3966ZM190.058 92.3386C189.442 92.3386 188.84 92.7866 188.252 93.7106L188.952 94.2006C189.358 93.5566 189.722 93.2346 190.058 93.2346C190.338 93.2346 190.772 93.4306 191.388 93.8366C191.99 94.2426 192.508 94.4526 192.942 94.4526C193.544 94.4526 194.146 93.9906 194.748 93.0806L194.048 92.5766C193.628 93.2206 193.264 93.5566 192.942 93.5566C192.676 93.5566 192.242 93.3466 191.64 92.9546C191.024 92.5346 190.492 92.3386 190.058 92.3386Z" fill="white"/>
<path d="M34 41C34 33.268 40.268 27 48 27H164C172.837 27 180 34.1634 180 43V55H48C40.268 55 34 48.732 34 41Z" fill="white"/>
<path d="M51.12 35.576V47H52.864V41.88H58.848V47H60.592V35.576H58.848V40.392H52.864V35.576H51.12ZM66.1828 38.504C64.9668 38.504 63.9908 38.92 63.2868 39.768C62.5508 40.6 62.1988 41.624 62.1988 42.856C62.1988 44.216 62.5828 45.288 63.3508 46.088C64.0548 46.84 65.0308 47.224 66.2468 47.224C67.3508 47.224 68.2628 46.904 68.9828 46.28C69.5588 45.768 69.9268 45.112 70.1188 44.344H68.4228C68.1988 44.824 67.9588 45.192 67.6708 45.416C67.3028 45.688 66.8228 45.832 66.2308 45.832C65.5588 45.832 65.0308 45.608 64.6468 45.192C64.2628 44.76 64.0548 44.136 63.9908 43.336H70.2628C70.2468 41.864 69.9108 40.712 69.2708 39.88C68.5668 38.952 67.5268 38.504 66.1828 38.504ZM66.2308 39.896C67.5748 39.896 68.3268 40.616 68.4868 42.056H64.0228C64.1188 41.352 64.3588 40.824 64.7108 40.456C65.0948 40.072 65.5908 39.896 66.2308 39.896ZM71.902 35.352V47H73.598V35.352H71.902ZM75.902 35.352V47H77.598V35.352H75.902ZM83.518 38.504C82.27 38.504 81.262 38.92 80.51 39.752C79.758 40.568 79.39 41.608 79.39 42.872C79.39 44.12 79.758 45.16 80.494 45.96C81.262 46.792 82.27 47.224 83.518 47.224C84.766 47.224 85.774 46.792 86.542 45.96C87.278 45.16 87.646 44.12 87.646 42.872C87.646 41.608 87.262 40.568 86.526 39.752C85.774 38.92 84.766 38.504 83.518 38.504ZM83.518 39.896C84.302 39.896 84.91 40.2 85.358 40.824C85.742 41.352 85.934 42.04 85.934 42.872C85.934 43.688 85.742 44.36 85.358 44.904C84.91 45.512 84.302 45.832 83.518 45.832C82.734 45.832 82.126 45.512 81.694 44.904C81.31 44.376 81.134 43.704 81.134 42.872C81.134 42.04 81.31 41.352 81.694 40.824C82.126 40.2 82.734 39.896 83.518 39.896ZM90.4889 44.712C90.1049 44.712 89.8009 44.808 89.5769 45.032C89.3209 45.256 89.2089 45.544 89.2089 45.912C89.2089 46.248 89.3209 46.536 89.5449 46.76C89.7689 46.984 90.0569 47.096 90.3769 47.096C90.5529 47.096 90.6809 47.08 90.7769 47.048C90.7769 47.432 90.6329 47.8 90.3609 48.168C90.0729 48.52 89.7049 48.76 89.2889 48.92V49.912C90.0889 49.688 90.7289 49.272 91.2089 48.664C91.6729 48.056 91.9129 47.352 91.9129 46.536C91.9129 45.992 91.7849 45.56 91.5289 45.208C91.2409 44.872 90.9049 44.712 90.4889 44.712ZM106.928 36.44V37.672C106.88 42.248 105.6 45.56 103.104 47.64L104.272 48.664C106.992 46.36 108.368 42.696 108.432 37.672V36.44H111.264C111.232 40.984 111.184 43.672 111.088 44.472C110.96 46.152 110.48 47 109.68 47C109.136 47 108.464 46.968 107.696 46.92L108.064 48.312C108.96 48.36 109.584 48.392 109.936 48.392C111.488 48.392 112.368 47.304 112.56 45.16C112.72 43.88 112.816 40.488 112.816 34.984H104.672V36.44H106.928ZM100.768 42.584V48.632H102.224V42.264C102.864 42.872 103.488 43.592 104.128 44.424L104.944 43.144C104.592 42.76 104.208 42.408 103.808 42.056C104.32 41.688 104.8 41.192 105.248 40.584L104.336 39.672C103.856 40.376 103.376 40.92 102.88 41.304C102.672 41.144 102.448 41 102.224 40.84V40.808C103.008 39.704 103.584 38.6 103.968 37.48V36.248H102.4C102.192 35.528 101.888 34.728 101.504 33.848L100.032 34.232C100.352 34.888 100.64 35.56 100.896 36.248H98.9124V37.624H102.48C101.808 39.288 100.496 41 98.5444 42.76L98.9924 44.296C99.6324 43.72 100.224 43.144 100.768 42.584ZM121.84 37.64H127.264C126.944 38.824 126.56 39.88 126.096 40.776L127.584 41.192C128.128 39.864 128.56 38.52 128.896 37.176V36.184H122.24C122.4 35.512 122.528 34.808 122.656 34.04L121.136 33.8C120.768 36.584 119.936 38.76 118.656 40.328L119.92 41.224C120.704 40.328 121.344 39.144 121.84 37.64ZM123.184 38.6C123.152 40.648 122.896 42.312 122.4 43.608C121.728 45.144 120.32 46.44 118.208 47.496L119.2 48.712C121.648 47.464 123.2 45.896 123.856 43.992C123.936 43.752 124.016 43.512 124.08 43.272C125.088 45.416 126.56 47.208 128.48 48.68L129.488 47.512C127.088 45.896 125.44 43.704 124.528 40.936C124.608 40.2 124.656 39.432 124.656 38.6H123.184ZM115.904 34.488L114.672 35.256C115.856 36.488 116.784 37.608 117.488 38.632L118.688 37.8C118.032 36.84 117.104 35.736 115.904 34.488ZM117.424 41.384C116.608 43.48 115.632 45.528 114.512 47.528L115.92 48.168C116.976 46.216 117.92 44.12 118.768 41.896L117.424 41.384ZM142.736 34.472H132.976V43.432H134.512V35.96H141.2V43.416H142.736V34.472ZM136.992 36.872V39.864C136.896 41.8 136.448 43.368 135.616 44.584C134.768 45.736 133.152 46.68 130.784 47.416L131.6 48.696C133.968 47.96 135.68 46.936 136.736 45.592C137.312 44.824 137.744 43.928 138.048 42.872V46.296C138.048 47.656 138.624 48.344 139.776 48.344H142.928C143.472 48.312 143.904 48.168 144.224 47.912C144.496 47.624 144.72 46.712 144.896 45.16L143.44 44.68C143.376 45.864 143.248 46.536 143.072 46.696C142.912 46.84 142.72 46.92 142.528 46.92H140.192C139.776 46.92 139.568 46.616 139.568 46.024V42.248H138.208C138.368 41.512 138.464 40.728 138.496 39.864V36.872H136.992ZM146.816 34.424V35.88H153.296C153.184 36.456 153.024 37.016 152.816 37.56H147.616V48.696H149.088V48.024H158.928V48.696H160.4V37.56H154.352C154.56 37.016 154.72 36.456 154.848 35.88H161.152V34.424H146.816ZM149.088 46.616V38.952H150.912V46.616H149.088ZM152.336 46.616V44.888H155.632V46.616H152.336ZM157.056 46.616V38.952H158.928V46.616H157.056ZM152.336 43.592V41.928H155.632V43.592H152.336ZM152.336 40.616V38.952H155.632V40.616H152.336Z" fill="#564DE2"/>
</g>
</g>
<defs>
<filter id="filter0_d" x="0" y="0" width="379" height="145" filterUnits="userSpaceOnUse" color-interpolation-filters="sRGB">
<feFlood flood-opacity="0" result="BackgroundImageFix"/>
<feColorMatrix in="SourceAlpha" type="matrix" values="0 0 0 0 0 0 0 0 0 0 0 0 0 0 0 0 0 0 127 0"/>
<feOffset dy="7"/>
<feGaussianBlur stdDeviation="9"/>
<feColorMatrix type="matrix" values="0 0 0 0 0.215686 0 0 0 0 0.176471 0 0 0 0 0.815686 0 0 0 0.3 0"/>
<feBlend mode="normal" in2="BackgroundImageFix" result="effect1_dropShadow"/>
<feBlend mode="normal" in="SourceGraphic" in2="effect1_dropShadow" result="shape"/>
</filter>
<linearGradient id="paint0_linear" x1="361" y1="120" x2="163.525" y2="-112.567" gradientUnits="userSpaceOnUse">
<stop stop-color="#554CE1"/>
<stop offset="1" stop-color="#7067FF"/>
</linearGradient>
<linearGradient id="paint1_linear" x1="332" y1="71.9999" x2="216.501" y2="43.4996" gradientUnits="userSpaceOnUse">
<stop stop-color="white"/>
<stop offset="1" stop-color="white" stop-opacity="0"/>
</linearGradient>
</defs>
</svg>
