<svg width="170" height="24" viewBox="0 0 170 24" fill="none" xmlns="http://www.w3.org/2000/svg">
<path d="M23.408 11.888C23.6 12.0053 23.7227 12.1333 23.776 12.272C23.84 12.4107 23.824 12.608 23.728 12.864H24.768L24.752 12.832C24.592 12.5867 24.5333 12.3733 24.576 12.192C24.6293 12 24.7467 11.8453 24.928 11.728C25.1093 11.6107 25.3013 11.568 25.504 11.6C25.7173 11.632 25.8827 11.7333 26 11.904C26.0853 12.0533 26.1653 12.208 26.24 12.368C26.3253 12.528 26.4107 12.6933 26.496 12.864H28.672C28.9707 12.864 29.168 12.9227 29.264 13.04C29.36 13.1467 29.408 13.3227 29.408 13.568C29.408 13.8133 29.3493 13.9947 29.232 14.112C29.1253 14.2187 28.9387 14.272 28.672 14.272H26.56V14.96H28.336C28.6133 14.96 28.8053 15.0187 28.912 15.136C29.0187 15.2427 29.072 15.4187 29.072 15.664C29.072 15.9413 29.0187 16.128 28.912 16.224C28.8053 16.32 28.6133 16.368 28.336 16.368H26.56V17.024H28.336C28.6133 17.024 28.8053 17.072 28.912 17.168C29.0187 17.264 29.072 17.4507 29.072 17.728C29.072 17.9733 29.0187 18.1493 28.912 18.256C28.8053 18.3733 28.6133 18.432 28.336 18.432H26.56V19.04H28.592C28.8587 19.04 29.0453 19.0933 29.152 19.2C29.2693 19.3067 29.328 19.4987 29.328 19.776C29.328 20.0533 29.264 20.24 29.136 20.336C29.0187 20.432 28.8373 20.48 28.592 20.48H22.944C22.912 20.6507 22.8373 20.768 22.72 20.832C22.6133 20.9067 22.448 20.944 22.224 20.944C21.904 20.944 21.6907 20.8747 21.584 20.736C21.4773 20.608 21.424 20.4107 21.424 20.144V15.808C21.0293 16.096 20.6987 16.0587 20.432 15.696C20.2613 15.4827 20.1867 15.2853 20.208 15.104C20.24 14.912 20.3787 14.704 20.624 14.48C21.0293 14.096 21.376 13.7227 21.664 13.36C21.9627 12.9973 22.2187 12.6133 22.432 12.208C22.56 11.984 22.7093 11.856 22.88 11.824C23.0613 11.7813 23.232 11.8027 23.392 11.888H23.408ZM30.176 11.056C29.8987 11.1093 29.6747 11.072 29.504 10.944C29.3333 10.8053 29.2373 10.56 29.216 10.208C29.1947 9.86667 29.2427 9.632 29.36 9.504C29.4773 9.36533 29.6747 9.27467 29.952 9.232L30.56 9.184C30.5387 8.768 30.528 8.336 30.528 7.888C30.528 7.44 30.528 6.97067 30.528 6.48C30.528 6.17067 30.592 5.92533 30.72 5.744C30.8587 5.552 31.0667 5.456 31.344 5.456C31.6427 5.456 31.856 5.552 31.984 5.744C32.1227 5.92533 32.192 6.16533 32.192 6.464V9.056L34.304 8.896C34.6133 8.87467 34.832 8.91733 34.96 9.024C35.088 9.13067 35.1787 9.33867 35.232 9.648C35.2853 10.0213 35.248 10.2827 35.12 10.432C35.0027 10.5707 34.7947 10.6667 34.496 10.72L32.224 10.896C32.2453 11.5467 32.2773 12.144 32.32 12.688C32.3733 13.2213 32.432 13.728 32.496 14.208C32.7947 13.5893 33.0613 12.8427 33.296 11.968C33.3813 11.6907 33.504 11.4773 33.664 11.328C33.824 11.1787 34.064 11.136 34.384 11.2C34.6827 11.2853 34.8747 11.424 34.96 11.616C35.0453 11.808 35.0293 12.0853 34.912 12.448C34.6453 13.28 34.3573 14.0267 34.048 14.688C33.7493 15.3493 33.392 15.984 32.976 16.592C33.0187 16.72 33.056 16.848 33.088 16.976C33.1307 17.104 33.1733 17.2373 33.216 17.376C33.312 17.696 33.3973 17.9413 33.472 18.112C33.5467 18.2933 33.616 18.368 33.68 18.336C33.7547 18.304 33.824 18.1547 33.888 17.888C33.952 17.6213 34.0213 17.2 34.096 16.624C34.16 16.144 34.2667 15.8507 34.416 15.744C34.5653 15.6267 34.7787 15.5947 35.056 15.648C35.344 15.7013 35.5413 15.8133 35.648 15.984C35.7547 16.1547 35.7707 16.4747 35.696 16.944C35.5787 17.52 35.4667 18.032 35.36 18.48C35.264 18.9387 35.1573 19.3493 35.04 19.712C34.912 20.1173 34.736 20.4 34.512 20.56C34.2987 20.7307 34.0213 20.816 33.68 20.816C33.4133 20.816 33.1467 20.6987 32.88 20.464C32.6133 20.2293 32.3893 19.872 32.208 19.392C32.1227 19.1573 32.0373 18.928 31.952 18.704C31.8773 18.48 31.8027 18.2507 31.728 18.016C31.5467 18.1867 31.3547 18.352 31.152 18.512C30.96 18.6827 30.7573 18.848 30.544 19.008C30.2347 19.2427 29.952 19.3387 29.696 19.296C29.4507 19.2533 29.2533 19.104 29.104 18.848C28.9547 18.5707 28.944 18.3253 29.072 18.112C29.2107 17.8987 29.4293 17.6853 29.728 17.472C30.0267 17.2587 30.2987 17.0453 30.544 16.832C30.7893 16.608 31.0187 16.3787 31.232 16.144C31.0827 15.408 30.9547 14.6293 30.848 13.808C30.752 12.9867 30.6773 12.0587 30.624 11.024L30.16 11.056H30.176ZM22.688 9.264C22.5067 9.40267 22.3467 9.456 22.208 9.424C22.08 9.38133 21.9253 9.25333 21.744 9.04C21.6373 8.92267 21.5307 8.80533 21.424 8.688C21.3173 8.56 21.2053 8.43733 21.088 8.32C20.9493 8.192 20.8533 8.06933 20.8 7.952C20.7573 7.83467 20.7733 7.70133 20.848 7.552C20.6987 7.53067 20.592 7.472 20.528 7.376C20.464 7.28 20.432 7.09867 20.432 6.832C20.432 6.53333 20.4907 6.34133 20.608 6.256C20.736 6.17067 20.928 6.128 21.184 6.128H23.024C23.344 6.128 23.6053 6.15467 23.808 6.208C24.0213 6.26133 24.192 6.352 24.32 6.48C24.448 6.608 24.5333 6.784 24.576 7.008C24.6293 7.232 24.656 7.51467 24.656 7.856V11.2C24.656 11.4453 24.608 11.6373 24.512 11.776C24.416 11.9147 24.224 11.984 23.936 11.984C23.4027 11.984 23.136 11.7227 23.136 11.2V10.896C22.9333 11.0453 22.6933 11.2053 22.416 11.376C22.1387 11.536 21.8613 11.6907 21.584 11.84C21.3707 11.9467 21.1733 11.9787 20.992 11.936C20.8213 11.8827 20.688 11.7493 20.592 11.536C20.368 11.0987 20.5067 10.768 21.008 10.544C21.264 10.416 21.5307 10.2613 21.808 10.08C22.0853 9.888 22.3147 9.728 22.496 9.6C22.7413 9.39733 22.9547 9.32267 23.136 9.376V7.744C23.136 7.62667 23.0933 7.568 23.008 7.568H22.144C22.2613 7.67467 22.3627 7.776 22.448 7.872C22.5333 7.968 22.6187 8.06933 22.704 8.176C23.0667 8.592 23.072 8.944 22.72 9.232L22.688 9.264ZM29.152 11.344C29.152 11.5893 29.104 11.7813 29.008 11.92C28.912 12.0587 28.72 12.128 28.432 12.128C28.1333 12.128 27.9253 12.064 27.808 11.936C27.7013 11.808 27.648 11.6107 27.648 11.344V10.496C27.456 10.6453 27.216 10.8107 26.928 10.992C26.64 11.1627 26.3573 11.3173 26.08 11.456C25.888 11.552 25.7067 11.584 25.536 11.552C25.3653 11.5093 25.2373 11.3813 25.152 11.168C24.9387 10.72 25.072 10.3947 25.552 10.192C25.7653 10.0747 25.9893 9.94667 26.224 9.808C26.4693 9.65867 26.6987 9.50933 26.912 9.36C27.2107 9.14667 27.456 9.09333 27.648 9.2V7.776C27.648 7.63733 27.584 7.568 27.456 7.568H26.528C26.6133 7.65333 26.688 7.73867 26.752 7.824C26.816 7.89867 26.8907 7.984 26.976 8.08C27.3067 8.496 27.3067 8.85333 26.976 9.152L26.944 9.184C26.7627 9.312 26.6027 9.36 26.464 9.328C26.336 9.296 26.1867 9.17333 26.016 8.96C25.92 8.84267 25.824 8.72533 25.728 8.608C25.632 8.48 25.5307 8.35733 25.424 8.24C25.2 8.016 25.1413 7.78667 25.248 7.552C25.088 7.53067 24.9707 7.472 24.896 7.376C24.8213 7.26933 24.784 7.088 24.784 6.832C24.784 6.544 24.8427 6.352 24.96 6.256C25.088 6.16 25.28 6.112 25.536 6.112H27.536C27.856 6.112 28.1173 6.13867 28.32 6.192C28.5333 6.24533 28.6987 6.336 28.816 6.464C28.944 6.592 29.0293 6.768 29.072 6.992C29.1253 7.216 29.152 7.504 29.152 7.856V11.344ZM35.088 7.296C35.248 7.54133 35.3227 7.77067 35.312 7.984C35.312 8.19733 35.1893 8.39467 34.944 8.576C34.7093 8.71467 34.5013 8.75733 34.32 8.704C34.1493 8.65067 33.9733 8.496 33.792 8.24C33.6747 8.08 33.5733 7.952 33.488 7.856C33.4133 7.74933 33.344 7.65867 33.28 7.584C33.216 7.49867 33.152 7.424 33.088 7.36C33.0347 7.296 32.976 7.22133 32.912 7.136C32.6987 6.90133 32.592 6.69867 32.592 6.528C32.6027 6.34667 32.6987 6.13333 32.88 5.888C33.0827 5.70667 33.28 5.62133 33.472 5.632C33.664 5.632 33.8613 5.75467 34.064 6C34.192 6.14933 34.2933 6.272 34.368 6.368C34.4533 6.45333 34.528 6.53867 34.592 6.624C34.656 6.70933 34.7253 6.80533 34.8 6.912C34.8747 7.008 34.9707 7.136 35.088 7.296ZM22.976 14.96H25.024V14.272H22.976V14.96ZM22.976 17.024H25.024V16.368H22.976V17.024ZM22.976 19.04H25.024V18.432H22.976V19.04ZM44.528 6.656C44.528 6.42133 44.5387 6.23467 44.56 6.096C44.592 5.95733 44.64 5.85067 44.704 5.776C44.768 5.70133 44.8533 5.65333 44.96 5.632C45.0773 5.6 45.2267 5.584 45.408 5.584C45.7493 5.584 45.9893 5.664 46.128 5.824C46.2773 5.984 46.352 6.26133 46.352 6.656C46.352 7.2 46.368 7.77067 46.4 8.368C46.432 8.96533 46.4853 9.57333 46.56 10.192H49.104C49.0507 10.1387 48.9973 10.0853 48.944 10.032C48.8907 9.97867 48.8373 9.91467 48.784 9.84C48.5493 9.56267 48.2987 9.29067 48.032 9.024C47.776 8.75733 47.472 8.45333 47.12 8.112C46.8427 7.83467 46.6827 7.58933 46.64 7.376C46.5973 7.16267 46.6827 6.93333 46.896 6.688C47.1093 6.44267 47.3227 6.32 47.536 6.32C47.7493 6.30933 47.9947 6.42667 48.272 6.672C48.6133 6.96 48.9653 7.29067 49.328 7.664C49.7013 8.03733 50.0213 8.384 50.288 8.704C50.5547 9.01333 50.6827 9.28 50.672 9.504C50.6613 9.71733 50.5173 9.94667 50.24 10.192H50.88C51.232 10.192 51.4613 10.272 51.568 10.432C51.6853 10.592 51.744 10.816 51.744 11.104C51.744 11.424 51.6853 11.6587 51.568 11.808C51.4613 11.9573 51.232 12.032 50.88 12.032H49.968C50.0107 12.2133 49.9733 12.4907 49.856 12.864C49.408 14.1653 48.8213 15.3173 48.096 16.32C48.4587 17.1093 48.8587 17.7973 49.296 18.384C49.3813 18.5013 49.4347 18.5547 49.456 18.544C49.488 18.5333 49.52 18.4693 49.552 18.352C49.6053 18.1707 49.648 17.9627 49.68 17.728C49.712 17.4827 49.7387 17.2693 49.76 17.088C49.792 16.704 49.8933 16.4533 50.064 16.336C50.2453 16.208 50.4907 16.1547 50.8 16.176C51.1307 16.1973 51.3493 16.2827 51.456 16.432C51.5627 16.5813 51.6053 16.7947 51.584 17.072C51.5307 17.8187 51.44 18.4373 51.312 18.928C51.1947 19.4293 51.0187 19.888 50.784 20.304C50.6667 20.5173 50.5173 20.6773 50.336 20.784C50.1547 20.9013 49.9627 20.9653 49.76 20.976C49.5573 20.9973 49.3547 20.9707 49.152 20.896C48.9493 20.8213 48.768 20.6987 48.608 20.528C48.2667 20.1653 47.936 19.7653 47.616 19.328C47.3067 18.9013 47.0133 18.416 46.736 17.872C46.3413 18.2347 45.9093 18.576 45.44 18.896C44.9813 19.2267 44.48 19.5413 43.936 19.84C43.5307 20.064 43.2213 20.1493 43.008 20.096C42.8053 20.0533 42.64 19.9093 42.512 19.664C42.352 19.3547 42.304 19.0773 42.368 18.832C42.4427 18.5867 42.6507 18.3733 42.992 18.192C43.632 17.872 44.192 17.5413 44.672 17.2C45.152 16.8587 45.5787 16.4853 45.952 16.08C45.696 15.376 45.4827 14.6933 45.312 14.032C45.1413 13.3707 45.0027 12.704 44.896 12.032H42.096V13.888C42.3947 13.792 42.6933 13.696 42.992 13.6C43.3013 13.504 43.616 13.4027 43.936 13.296C44.2453 13.1893 44.48 13.2 44.64 13.328C44.8107 13.456 44.9387 13.6587 45.024 13.936C45.1093 14.2133 45.104 14.4373 45.008 14.608C44.912 14.7787 44.7147 14.9173 44.416 15.024C44.0107 15.1627 43.616 15.296 43.232 15.424C42.848 15.5413 42.4693 15.6587 42.096 15.776V18.784C42.096 19.4667 41.904 19.9947 41.52 20.368C41.1467 20.7413 40.6187 20.928 39.936 20.928C39.6267 20.928 39.28 20.88 38.896 20.784C38.5227 20.688 38.112 20.5333 37.664 20.32L37.68 20.336C37.36 20.1973 37.1573 20 37.072 19.744C36.9973 19.4987 37.024 19.248 37.152 18.992C37.3013 18.7253 37.4773 18.56 37.68 18.496C37.8933 18.432 38.1707 18.4747 38.512 18.624C39.152 18.9013 39.6373 19.04 39.968 19.04C40.1387 19.04 40.224 18.9333 40.224 18.72V16.304C39.8293 16.4 39.44 16.496 39.056 16.592C38.672 16.6773 38.2773 16.7627 37.872 16.848C37.5307 16.9227 37.2693 16.9227 37.088 16.848C36.9173 16.7627 36.7893 16.5707 36.704 16.272C36.6187 15.9627 36.6293 15.7067 36.736 15.504C36.8427 15.2907 37.0987 15.1413 37.504 15.056C37.9947 14.9493 38.4587 14.848 38.896 14.752C39.3333 14.6453 39.776 14.5333 40.224 14.416V12.032H37.136C36.784 12.032 36.5493 11.9573 36.432 11.808C36.3253 11.6587 36.272 11.424 36.272 11.104C36.272 10.816 36.3253 10.592 36.432 10.432C36.5493 10.272 36.784 10.192 37.136 10.192H40.224V8.8C39.9467 8.85333 39.648 8.90667 39.328 8.96C39.008 9.00267 38.656 9.04533 38.272 9.088C37.8987 9.13067 37.616 9.104 37.424 9.008C37.2427 8.90133 37.136 8.672 37.104 8.32C37.072 7.94667 37.136 7.68 37.296 7.52C37.456 7.36 37.7333 7.25333 38.128 7.2C38.6933 7.136 39.184 7.072 39.6 7.008C40.016 6.93333 40.3947 6.85333 40.736 6.768C41.088 6.672 41.424 6.56533 41.744 6.448C42.064 6.33067 42.4107 6.192 42.784 6.032C43.1467 5.872 43.44 5.83467 43.664 5.92C43.888 6.00533 44.0587 6.192 44.176 6.48C44.2933 6.78933 44.3093 7.04533 44.224 7.248C44.1387 7.44 43.9093 7.61067 43.536 7.76C43.2587 7.87733 43.0027 7.97867 42.768 8.064C42.5333 8.13867 42.3093 8.21867 42.096 8.304V10.192H44.656C44.6027 9.616 44.5653 9.03467 44.544 8.448C44.5333 7.86133 44.528 7.264 44.528 6.656ZM48.112 12.256C48.1333 12.1813 48.1653 12.1067 48.208 12.032H46.832C46.9067 12.4053 46.9813 12.768 47.056 13.12C47.1307 13.472 47.216 13.8187 47.312 14.16C47.4613 13.872 47.6 13.5733 47.728 13.264C47.8667 12.944 47.9947 12.608 48.112 12.256ZM59.968 9.488H65.616C65.9573 9.488 66.2347 9.54133 66.448 9.648C66.672 9.744 66.8373 9.87733 66.944 10.048C67.0613 10.208 67.12 10.4 67.12 10.624C67.1307 10.848 67.0933 11.088 67.008 11.344C66.4853 12.784 65.904 13.9733 65.264 14.912C65.776 15.3707 66.3413 15.92 66.96 16.56C67.2267 16.8373 67.36 17.0933 67.36 17.328C67.3707 17.552 67.2747 17.7867 67.072 18.032C66.6133 18.416 66.144 18.352 65.664 17.84C65.3653 17.5413 65.088 17.264 64.832 17.008C64.576 16.752 64.3253 16.5173 64.08 16.304C63.6747 16.688 63.2213 17.008 62.72 17.264C62.2293 17.52 61.6747 17.7867 61.056 18.064C60.5867 18.2667 60.2507 18.3307 60.048 18.256C59.8453 18.1813 59.68 18.0213 59.552 17.776C59.4133 17.4667 59.4027 17.2107 59.52 17.008C59.648 16.8053 59.92 16.6187 60.336 16.448C60.784 16.2667 61.2053 16.08 61.6 15.888C61.9947 15.6853 62.3627 15.424 62.704 15.104C62.352 14.816 62.0053 14.5387 61.664 14.272C61.3227 14.0053 60.9653 13.728 60.592 13.44C60.3147 13.2587 60.1707 13.0613 60.16 12.848C60.1493 12.6347 60.2187 12.4267 60.368 12.224C60.5493 11.968 60.7573 11.8453 60.992 11.856C61.2267 11.856 61.4507 11.936 61.664 12.096C62.048 12.384 62.416 12.6613 62.768 12.928C63.1307 13.184 63.4987 13.456 63.872 13.744C64.352 13.0613 64.7573 12.2827 65.088 11.408C65.1307 11.2693 65.088 11.2 64.96 11.2H59.968V11.424C59.968 12.1173 59.9467 12.7147 59.904 13.216C59.872 13.7173 59.8133 14.1707 59.728 14.576C59.6427 14.9707 59.5307 15.344 59.392 15.696C59.264 16.0373 59.104 16.4 58.912 16.784C58.6667 17.2747 58.4213 17.5627 58.176 17.648C57.9413 17.7333 57.7013 17.712 57.456 17.584C57.168 17.4347 57.0133 17.2427 56.992 17.008C56.9813 16.7733 57.0773 16.4587 57.28 16.064C57.472 15.7013 57.6267 15.3653 57.744 15.056C57.872 14.7467 57.968 14.4267 58.032 14.096C58.096 13.7547 58.1387 13.3813 58.16 12.976C58.192 12.5707 58.208 12.096 58.208 11.552V8.224C58.208 7.552 58.336 7.088 58.592 6.832C58.8587 6.56533 59.232 6.42133 59.712 6.4C60.6827 6.35733 61.712 6.29333 62.8 6.208C63.888 6.112 64.9973 5.97867 66.128 5.808C66.4907 5.75467 66.7733 5.80267 66.976 5.952C67.1893 6.09067 67.296 6.32 67.296 6.64C67.296 6.91733 67.2267 7.13067 67.088 7.28C66.9493 7.42933 66.6827 7.53067 66.288 7.584C65.232 7.73333 64.1813 7.856 63.136 7.952C62.1013 8.03733 61.184 8.10133 60.384 8.144C60.2027 8.15467 60.0853 8.176 60.032 8.208C59.9893 8.22933 59.968 8.288 59.968 8.384V9.488ZM67.68 19.664C67.68 20.0267 67.616 20.2667 67.488 20.384C67.36 20.512 67.12 20.576 66.768 20.576H59.68C59.1147 20.576 58.6347 20.5493 58.24 20.496C57.8453 20.4533 57.4987 20.3733 57.2 20.256C56.9013 20.1493 56.6347 20.0053 56.4 19.824C56.1653 19.6427 55.9307 19.4187 55.696 19.152C55.4827 19.4933 55.232 19.7813 54.944 20.016C54.656 20.2613 54.3573 20.4853 54.048 20.688C53.7707 20.8693 53.4987 20.9333 53.232 20.88C52.976 20.8373 52.768 20.688 52.608 20.432C52.4267 20.176 52.3627 19.9307 52.416 19.696C52.4693 19.4613 52.6987 19.2267 53.104 18.992C53.264 18.896 53.4293 18.768 53.6 18.608C53.7707 18.4587 53.9253 18.288 54.064 18.096C54.2027 17.904 54.3147 17.7067 54.4 17.504C54.4853 17.3013 54.528 17.104 54.528 16.912V12.56C54.528 12.3787 54.496 12.256 54.432 12.192C54.3787 12.1173 54.272 12.08 54.112 12.08H53.296C52.944 12.08 52.704 12.0107 52.576 11.872C52.448 11.7227 52.384 11.4827 52.384 11.152C52.384 10.8213 52.448 10.5813 52.576 10.432C52.704 10.272 52.944 10.192 53.296 10.192H54.864C55.1627 10.192 55.408 10.2187 55.6 10.272C55.8027 10.3147 55.9627 10.4053 56.08 10.544C56.1973 10.6827 56.2773 10.8693 56.32 11.104C56.3733 11.3387 56.4 11.6373 56.4 12V16.72C56.4 16.8053 56.4 16.8853 56.4 16.96C56.4 17.024 56.3947 17.088 56.384 17.152C56.5973 17.4933 56.8053 17.7707 57.008 17.984C57.2213 18.1973 57.4507 18.3627 57.696 18.48C57.952 18.5973 58.2347 18.6773 58.544 18.72C58.864 18.7627 59.2427 18.784 59.68 18.784H66.768C67.12 18.784 67.36 18.848 67.488 18.976C67.616 19.104 67.68 19.3333 67.68 19.664ZM56.016 9.152C55.7387 9.36533 55.488 9.44 55.264 9.376C55.0507 9.312 54.832 9.152 54.608 8.896C54.48 8.75733 54.3627 8.63467 54.256 8.528C54.1493 8.41067 54.0373 8.304 53.92 8.208C53.8133 8.10133 53.7013 7.99467 53.584 7.888C53.4667 7.77067 53.3333 7.64267 53.184 7.504C52.9493 7.28 52.816 7.05067 52.784 6.816C52.752 6.58133 52.848 6.336 53.072 6.08C53.264 5.888 53.472 5.792 53.696 5.792C53.92 5.78133 54.1813 5.89867 54.48 6.144C54.7787 6.38933 55.04 6.624 55.264 6.848C55.4987 7.06133 55.7547 7.31733 56.032 7.616C56.2667 7.88267 56.4 8.144 56.432 8.4C56.464 8.656 56.3253 8.90667 56.016 9.152ZM82.736 18.56C82.736 18.9227 82.7147 19.2213 82.672 19.456C82.6293 19.6907 82.544 19.8773 82.416 20.016C82.288 20.1653 82.1067 20.2667 81.872 20.32C81.6373 20.384 81.328 20.416 80.944 20.416H70.88C70.496 20.416 70.1867 20.384 69.952 20.32C69.728 20.2667 69.552 20.1653 69.424 20.016C69.296 19.8773 69.2107 19.6907 69.168 19.456C69.1253 19.2213 69.104 18.9227 69.104 18.56V8.256C69.104 7.872 69.1253 7.56267 69.168 7.328C69.2213 7.08267 69.312 6.896 69.44 6.768C69.5787 6.62933 69.76 6.53867 69.984 6.496C70.2187 6.44267 70.5173 6.416 70.88 6.416H80.944C81.328 6.416 81.6373 6.448 81.872 6.512C82.1067 6.56533 82.288 6.66133 82.416 6.8C82.544 6.93867 82.6293 7.13067 82.672 7.376C82.7147 7.61067 82.736 7.904 82.736 8.256V18.56ZM79.52 15.28C79.52 15.6427 79.4987 15.9413 79.456 16.176C79.4133 16.4107 79.328 16.6027 79.2 16.752C79.072 16.8907 78.8907 16.992 78.656 17.056C78.432 17.1093 78.128 17.136 77.744 17.136H73.984C73.6213 17.136 73.3227 17.1093 73.088 17.056C72.864 17.0027 72.688 16.912 72.56 16.784C72.432 16.6453 72.3413 16.4587 72.288 16.224C72.2453 15.9787 72.224 15.664 72.224 15.28V11.536C72.224 11.152 72.2453 10.8427 72.288 10.608C72.3413 10.3733 72.432 10.1867 72.56 10.048C72.688 9.90933 72.864 9.81867 73.088 9.776C73.3227 9.72267 73.6213 9.696 73.984 9.696H77.744C78.1173 9.696 78.4213 9.728 78.656 9.792C78.8907 9.84533 79.072 9.94133 79.2 10.08C79.328 10.2187 79.4133 10.4053 79.456 10.64C79.4987 10.8747 79.52 11.1733 79.52 11.536V15.28ZM80.8 8.816C80.8 8.496 80.656 8.336 80.368 8.336H71.44C71.1733 8.336 71.04 8.496 71.04 8.816V17.984C71.04 18.1973 71.0667 18.336 71.12 18.4C71.184 18.464 71.2907 18.496 71.44 18.496H80.368C80.528 18.496 80.64 18.4533 80.704 18.368C80.768 18.2827 80.8 18.1547 80.8 17.984V8.816ZM77.584 12.016C77.584 11.8667 77.5573 11.76 77.504 11.696C77.4507 11.632 77.3333 11.6 77.152 11.6H74.592C74.4107 11.6 74.2933 11.6373 74.24 11.712C74.1867 11.7867 74.16 11.888 74.16 12.016V14.8C74.16 14.9707 74.1867 15.0827 74.24 15.136C74.304 15.1893 74.4213 15.216 74.592 15.216H77.152C77.3333 15.216 77.4507 15.184 77.504 15.12C77.5573 15.0453 77.584 14.9387 77.584 14.8V12.016ZM88.8 15.568C88.4053 16.5067 88 17.3547 87.584 18.112C87.168 18.88 86.72 19.6 86.24 20.272C85.9947 20.6133 85.7387 20.7947 85.472 20.816C85.2053 20.8373 84.9813 20.7573 84.8 20.576C84.5547 20.416 84.416 20.2133 84.384 19.968C84.352 19.7333 84.4747 19.4133 84.752 19.008C85.1147 18.496 85.488 17.8933 85.872 17.2C86.256 16.5067 86.6453 15.7067 87.04 14.8C87.1893 14.4587 87.3653 14.24 87.568 14.144C87.7707 14.0373 88.016 14.032 88.304 14.128C88.624 14.2347 88.832 14.3893 88.928 14.592C89.0347 14.7947 88.992 15.12 88.8 15.568ZM88.432 13.232C88.2187 13.4773 87.984 13.5947 87.728 13.584C87.472 13.5733 87.2053 13.4613 86.928 13.248C86.736 13.088 86.5547 12.9493 86.384 12.832C86.224 12.704 86.064 12.5867 85.904 12.48C85.744 12.3733 85.5787 12.272 85.408 12.176C85.2373 12.0693 85.0453 11.9573 84.832 11.84C84.5653 11.6907 84.384 11.5093 84.288 11.296C84.192 11.0827 84.2347 10.8213 84.416 10.512C84.5973 10.2027 84.8 10.032 85.024 10C85.248 9.968 85.5147 10.0427 85.824 10.224C86.2507 10.4587 86.6347 10.6933 86.976 10.928C87.328 11.152 87.7067 11.424 88.112 11.744C88.4213 11.9787 88.5973 12.2347 88.64 12.512C88.6827 12.7893 88.6133 13.0293 88.432 13.232ZM88.288 7.632C88.5867 7.856 88.7627 8.10133 88.816 8.368C88.8693 8.63467 88.8213 8.86933 88.672 9.072C88.4373 9.37067 88.1867 9.51467 87.92 9.504C87.664 9.48267 87.3867 9.344 87.088 9.088C86.7467 8.81067 86.4427 8.58667 86.176 8.416C85.92 8.24533 85.6213 8.05333 85.28 7.84C84.9707 7.65867 84.768 7.45067 84.672 7.216C84.576 6.98133 84.64 6.72 84.864 6.432C85.0453 6.16533 85.248 6.02667 85.472 6.016C85.7067 5.99467 85.984 6.08533 86.304 6.288C86.464 6.384 86.6187 6.48 86.768 6.576C86.9173 6.672 87.0667 6.77333 87.216 6.88C87.376 6.98667 87.5413 7.09867 87.712 7.216C87.8827 7.33333 88.0747 7.472 88.288 7.632ZM90.704 8.688C90.4693 8.69867 90.2773 8.69333 90.128 8.672C89.9787 8.65067 89.8613 8.608 89.776 8.544C89.6907 8.48 89.6267 8.39467 89.584 8.288C89.5413 8.17067 89.5147 8.02667 89.504 7.856C89.4827 7.45067 89.5627 7.18933 89.744 7.072C89.936 6.944 90.2507 6.88 90.688 6.88C91.3493 6.88 91.984 6.85867 92.592 6.816C93.2 6.77333 93.792 6.70933 94.368 6.624C94.944 6.53867 95.5093 6.43733 96.064 6.32C96.6293 6.192 97.1947 6.048 97.76 5.888C97.888 5.84533 98.016 5.81867 98.144 5.808C98.2827 5.78667 98.4107 5.792 98.528 5.824C98.6453 5.856 98.7467 5.92533 98.832 6.032C98.9173 6.128 98.9813 6.272 99.024 6.464C99.0773 6.77333 99.0347 7.008 98.896 7.168C98.7573 7.328 98.512 7.472 98.16 7.6C97.8507 7.696 97.424 7.80267 96.88 7.92C96.3467 8.03733 95.744 8.14933 95.072 8.256V10.08H98.816C99.424 10.08 99.728 10.3733 99.728 10.96C99.728 11.2907 99.6533 11.52 99.504 11.648C99.3547 11.776 99.1253 11.84 98.816 11.84H95.072V13.52H97.2C97.7653 13.52 98.1707 13.632 98.416 13.856C98.6613 14.08 98.784 14.496 98.784 15.104V18.816C98.784 19.1147 98.7573 19.3653 98.704 19.568C98.6507 19.7707 98.5653 19.9307 98.448 20.048C98.3307 20.176 98.1653 20.2667 97.952 20.32C97.7493 20.3733 97.4987 20.4 97.2 20.4H91.136C90.5707 20.4 90.1653 20.288 89.92 20.064C89.6853 19.84 89.568 19.424 89.568 18.816V15.104C89.568 14.496 89.6853 14.08 89.92 13.856C90.1653 13.632 90.5707 13.52 91.136 13.52H93.2V11.84H89.632C89.024 11.84 88.72 11.5413 88.72 10.944C88.72 10.6773 88.7947 10.4693 88.944 10.32C89.0933 10.16 89.3227 10.08 89.632 10.08H93.2V8.512C92.8267 8.55467 92.416 8.592 91.968 8.624C91.52 8.64533 91.0987 8.66667 90.704 8.688ZM96.976 15.744C96.976 15.5947 96.9333 15.4827 96.848 15.408C96.7627 15.3227 96.608 15.28 96.384 15.28H91.952C91.728 15.28 91.5733 15.328 91.488 15.424C91.4133 15.52 91.376 15.696 91.376 15.952V17.984C91.376 18.2293 91.4187 18.3947 91.504 18.48C91.6 18.576 91.7547 18.624 91.968 18.624H96.4C96.6453 18.624 96.8 18.5707 96.864 18.464C96.9387 18.3573 96.976 18.1653 96.976 17.888V15.744ZM104.944 14.512C104.859 14.32 104.811 14.16 104.8 14.032C104.789 13.8933 104.8 13.7707 104.832 13.664C104.875 13.5573 104.939 13.4667 105.024 13.392C105.109 13.3173 105.216 13.2427 105.344 13.168C105.611 13.0613 105.84 13.056 106.032 13.152C106.235 13.248 106.395 13.4507 106.512 13.76C106.725 14.2293 106.944 14.7787 107.168 15.408C107.392 16.0373 107.579 16.7093 107.728 17.424C107.76 17.5947 107.781 17.744 107.792 17.872C107.813 17.9893 107.819 18.1013 107.808 18.208C108.139 17.6427 108.416 17.0613 108.64 16.464C108.864 15.8667 109.045 15.232 109.184 14.56C109.333 13.8773 109.44 13.152 109.504 12.384C109.579 11.6053 109.632 10.752 109.664 9.824H108.864C108.523 9.824 108.24 9.76533 108.016 9.648C107.792 9.53067 107.68 9.25867 107.68 8.832C107.68 8.608 107.712 8.432 107.776 8.304C107.84 8.176 107.925 8.08 108.032 8.016C108.149 7.94133 108.277 7.89867 108.416 7.888C108.555 7.86667 108.704 7.856 108.864 7.856H109.68V6.512C109.68 6.224 109.76 5.99467 109.92 5.824C110.091 5.64267 110.32 5.552 110.608 5.552C110.864 5.552 111.083 5.64267 111.264 5.824C111.445 5.99467 111.536 6.224 111.536 6.512V7.856H113.408C113.717 7.856 113.979 7.88267 114.192 7.936C114.416 7.98933 114.597 8.112 114.736 8.304C114.875 8.496 114.976 8.77867 115.04 9.152C115.104 9.51467 115.136 10.0053 115.136 10.624C115.136 11.4773 115.12 12.336 115.088 13.2C115.067 14.0533 115.029 14.8533 114.976 15.6C114.933 16.336 114.875 16.992 114.8 17.568C114.725 18.1333 114.645 18.5547 114.56 18.832C114.411 19.312 114.219 19.7013 113.984 20C113.76 20.2987 113.493 20.512 113.184 20.64C112.875 20.7787 112.523 20.8373 112.128 20.816C111.744 20.8053 111.312 20.7307 110.832 20.592C110.491 20.496 110.256 20.3467 110.128 20.144C110.011 19.9413 110 19.648 110.096 19.264C110.181 18.9547 110.341 18.7573 110.576 18.672C110.811 18.5867 111.067 18.6027 111.344 18.72C111.707 18.848 112 18.8693 112.224 18.784C112.459 18.7093 112.635 18.4427 112.752 17.984C112.837 17.6533 112.917 17.2747 112.992 16.848C113.067 16.4213 113.125 15.9147 113.168 15.328C113.221 14.7307 113.253 14.032 113.264 13.232C113.285 12.432 113.285 11.4933 113.264 10.416C113.253 10.1707 113.2 10.0107 113.104 9.936C113.008 9.86133 112.848 9.824 112.624 9.824H111.52C111.477 12.0427 111.248 14.0267 110.832 15.776C110.416 17.5147 109.781 18.9653 108.928 20.128C108.629 20.5333 108.331 20.7573 108.032 20.8C107.744 20.8533 107.477 20.7573 107.232 20.512C107.04 20.32 106.949 20.1067 106.96 19.872C106.971 19.6373 107.115 19.3067 107.392 18.88C107.413 18.8373 107.456 18.7733 107.52 18.688C107.488 18.7093 107.429 18.7413 107.344 18.784C107.056 18.912 106.816 18.9387 106.624 18.864C106.443 18.7893 106.283 18.576 106.144 18.224C105.771 18.3307 105.424 18.4267 105.104 18.512C104.784 18.5973 104.453 18.672 104.112 18.736C103.781 18.8107 103.429 18.88 103.056 18.944C102.683 19.0187 102.267 19.088 101.808 19.152C101.477 19.2053 101.205 19.1787 100.992 19.072C100.779 18.976 100.624 18.832 100.528 18.64C100.432 18.4587 100.389 18.2453 100.4 18C100.421 17.7547 100.496 17.5147 100.624 17.28C100.997 16.576 101.355 15.808 101.696 14.976C102.037 14.144 102.363 13.2747 102.672 12.368H101.152C100.821 12.368 100.597 12.2933 100.48 12.144C100.363 11.9947 100.304 11.76 100.304 11.44C100.304 11.1307 100.363 10.912 100.48 10.784C100.597 10.6453 100.821 10.576 101.152 10.576H106.976C107.627 10.576 107.952 10.8747 107.952 11.472C107.952 11.792 107.867 12.0213 107.696 12.16C107.525 12.2987 107.285 12.368 106.976 12.368H104.528C104.24 13.264 103.968 14.0373 103.712 14.688C103.456 15.328 103.195 15.9413 102.928 16.528C102.843 16.6987 102.805 16.8373 102.816 16.944C102.837 17.04 102.939 17.072 103.12 17.04C103.376 16.9973 103.605 16.96 103.808 16.928C104.021 16.896 104.224 16.8587 104.416 16.816C104.619 16.7733 104.816 16.7253 105.008 16.672C105.211 16.6187 105.429 16.5547 105.664 16.48C105.536 16.0427 105.403 15.6693 105.264 15.36C105.136 15.0507 105.024 14.768 104.928 14.512H104.944ZM106.976 7.28C106.976 6.97067 106.917 6.74667 106.8 6.608C106.683 6.46933 106.453 6.4 106.112 6.4H101.856C101.557 6.4 101.339 6.46933 101.2 6.608C101.072 6.74667 101.008 6.97067 101.008 7.28C101.008 7.86667 101.291 8.16 101.856 8.16H106.112C106.453 8.16 106.683 8.08533 106.8 7.936C106.917 7.776 106.976 7.55733 106.976 7.28ZM130.176 7.968C130.368 7.968 130.523 7.99467 130.64 8.048C130.757 8.09067 130.848 8.15467 130.912 8.24C130.976 8.32533 131.019 8.42667 131.04 8.544C131.061 8.66133 131.072 8.784 131.072 8.912C131.072 9.18933 131.019 9.408 130.912 9.568C130.805 9.728 130.56 9.808 130.176 9.808H124.992V12.8H129.632C129.995 12.8 130.235 12.88 130.352 13.04C130.469 13.1893 130.528 13.4133 130.528 13.712C130.528 14 130.469 14.2293 130.352 14.4C130.235 14.56 129.995 14.64 129.632 14.64H124.992V18.432H130.832C131.195 18.432 131.435 18.512 131.552 18.672C131.669 18.8427 131.728 19.072 131.728 19.36C131.728 19.6267 131.669 19.8507 131.552 20.032C131.435 20.224 131.195 20.32 130.832 20.32H117.216C116.843 20.32 116.597 20.224 116.48 20.032C116.373 19.8507 116.32 19.6267 116.32 19.36C116.32 19.072 116.373 18.8427 116.48 18.672C116.597 18.512 116.843 18.432 117.216 18.432H123.008V14.64H118.496C118.123 14.64 117.877 14.56 117.76 14.4C117.653 14.2293 117.6 14 117.6 13.712C117.6 13.4133 117.653 13.1893 117.76 13.04C117.877 12.88 118.123 12.8 118.496 12.8H123.008V9.808H117.888C117.504 9.808 117.259 9.728 117.152 9.568C117.045 9.408 116.992 9.18933 116.992 8.912C116.992 8.784 117.003 8.66133 117.024 8.544C117.045 8.42667 117.088 8.32533 117.152 8.24C117.216 8.15467 117.307 8.09067 117.424 8.048C117.541 7.99467 117.696 7.968 117.888 7.968H123.12L122.368 7.216C122.091 6.96 121.931 6.74133 121.888 6.56C121.845 6.368 121.936 6.112 122.16 5.792C122.373 5.568 122.603 5.456 122.848 5.456C123.104 5.456 123.371 5.59467 123.648 5.872C123.776 6 123.883 6.10667 123.968 6.192C124.053 6.27733 124.133 6.36267 124.208 6.448C124.293 6.52267 124.373 6.60267 124.448 6.688C124.533 6.76267 124.635 6.85333 124.752 6.96C125.051 7.28 125.099 7.616 124.896 7.968H130.176ZM133.76 8.368C133.44 8.368 133.211 8.29867 133.072 8.16C132.944 8.02133 132.88 7.78133 132.88 7.44C132.88 7.09867 132.939 6.85867 133.056 6.72C133.173 6.58133 133.408 6.512 133.76 6.512H146.352C146.693 6.512 146.928 6.59733 147.056 6.768C147.184 6.928 147.248 7.16267 147.248 7.472C147.248 7.84533 147.173 8.09067 147.024 8.208C146.885 8.31467 146.661 8.368 146.352 8.368H140.736C140.683 8.61333 140.629 8.848 140.576 9.072C140.523 9.28533 140.459 9.49333 140.384 9.696H144.64C144.939 9.696 145.189 9.71733 145.392 9.76C145.595 9.80267 145.755 9.88267 145.872 10C145.989 10.1173 146.075 10.2773 146.128 10.48C146.181 10.6827 146.213 10.9493 146.224 11.28V16.816C146.224 17.1787 146.133 17.4293 145.952 17.568C145.781 17.7067 145.552 17.776 145.264 17.776C144.955 17.776 144.715 17.7067 144.544 17.568C144.384 17.4293 144.304 17.1787 144.304 16.816V11.984C144.304 11.824 144.272 11.712 144.208 11.648C144.155 11.5733 144.053 11.536 143.904 11.536H136.4C136.24 11.536 136.128 11.5573 136.064 11.6C136 11.632 135.968 11.7387 135.968 11.92V16.864C135.968 17.2373 135.877 17.488 135.696 17.616C135.525 17.744 135.296 17.808 135.008 17.808C134.688 17.808 134.448 17.744 134.288 17.616C134.139 17.488 134.064 17.2373 134.064 16.864V11.248C134.064 10.6827 134.171 10.2827 134.384 10.048C134.608 9.81333 135.024 9.696 135.632 9.696H138.416C138.501 9.49333 138.581 9.28533 138.656 9.072C138.731 8.85867 138.795 8.624 138.848 8.368H133.76ZM140 17.12C139.733 17.632 139.429 18.0747 139.088 18.448C138.757 18.8213 138.368 19.152 137.92 19.44C137.483 19.728 136.981 19.984 136.416 20.208C135.851 20.432 135.205 20.6507 134.48 20.864C134.011 20.992 133.675 21.0027 133.472 20.896C133.269 20.8 133.12 20.608 133.024 20.32C132.907 19.968 132.907 19.6907 133.024 19.488C133.152 19.296 133.445 19.1307 133.904 18.992C134.533 18.8213 135.072 18.6613 135.52 18.512C135.968 18.3627 136.352 18.1973 136.672 18.016C136.992 17.8453 137.259 17.6533 137.472 17.44C137.696 17.2267 137.893 16.9707 138.064 16.672C138.224 16.4053 138.357 16.144 138.464 15.888C138.571 15.6213 138.656 15.3387 138.72 15.04C138.784 14.7307 138.832 14.3893 138.864 14.016C138.896 13.6427 138.917 13.216 138.928 12.736C138.928 12.3947 138.997 12.1653 139.136 12.048C139.285 11.92 139.531 11.856 139.872 11.856C140.256 11.856 140.512 11.9307 140.64 12.08C140.768 12.2293 140.832 12.5013 140.832 12.896C140.832 13.8027 140.763 14.5973 140.624 15.28C140.496 15.952 140.288 16.5653 140 17.12ZM146.384 19.136C146.661 19.3173 146.832 19.5413 146.896 19.808C146.96 20.0853 146.875 20.352 146.64 20.608C146.459 20.8213 146.256 20.9333 146.032 20.944C145.819 20.9547 145.557 20.8533 145.248 20.64C144.821 20.3627 144.427 20.1067 144.064 19.872C143.701 19.648 143.349 19.4293 143.008 19.216C142.677 19.0027 142.341 18.7947 142 18.592C141.669 18.4 141.317 18.1973 140.944 17.984C140.688 17.8347 140.507 17.664 140.4 17.472C140.293 17.2693 140.315 17.0133 140.464 16.704C140.571 16.4587 140.757 16.3093 141.024 16.256C141.291 16.192 141.563 16.24 141.84 16.4C142.277 16.656 142.677 16.8907 143.04 17.104C143.403 17.3173 143.76 17.5307 144.112 17.744C144.464 17.9467 144.821 18.16 145.184 18.384C145.547 18.608 145.947 18.8587 146.384 19.136ZM154.176 9.6C154.293 9.38667 154.405 9.14667 154.512 8.88C154.619 8.60267 154.72 8.36267 154.816 8.16H149.536C149.163 8.16 148.917 8.09067 148.8 7.952C148.683 7.80267 148.624 7.58933 148.624 7.312C148.624 7.04533 148.683 6.82133 148.8 6.64C148.917 6.45867 149.163 6.368 149.536 6.368H162.592C162.965 6.368 163.211 6.448 163.328 6.608C163.445 6.75733 163.504 6.96533 163.504 7.232C163.504 7.50933 163.445 7.73333 163.328 7.904C163.211 8.07467 162.965 8.16 162.592 8.16H156.896C156.811 8.37333 156.72 8.61867 156.624 8.896C156.539 9.16267 156.443 9.39733 156.336 9.6H161.024C161.376 9.6 161.664 9.62133 161.888 9.664C162.123 9.696 162.304 9.77067 162.432 9.888C162.56 10.0053 162.651 10.176 162.704 10.4C162.757 10.624 162.784 10.928 162.784 11.312V18.672C162.784 19.024 162.757 19.3173 162.704 19.552C162.661 19.7867 162.576 19.9733 162.448 20.112C162.32 20.2507 162.139 20.3467 161.904 20.4C161.68 20.464 161.387 20.496 161.024 20.496H151.088C150.747 20.496 150.464 20.4693 150.24 20.416C150.016 20.3733 149.835 20.2827 149.696 20.144C149.568 20.016 149.477 19.8293 149.424 19.584C149.371 19.3493 149.344 19.0453 149.344 18.672V11.312C149.344 10.9387 149.365 10.64 149.408 10.416C149.451 10.192 149.536 10.0213 149.664 9.904C149.792 9.776 149.968 9.696 150.192 9.664C150.427 9.62133 150.725 9.6 151.088 9.6H154.176ZM159.312 11.392V18.704H160.576C160.736 18.704 160.832 18.6773 160.864 18.624C160.907 18.5813 160.928 18.4907 160.928 18.352V11.744C160.928 11.5947 160.912 11.4987 160.88 11.456C160.848 11.4133 160.752 11.392 160.592 11.392H159.312ZM151.152 18.384C151.152 18.512 151.168 18.5973 151.2 18.64C151.232 18.6827 151.323 18.704 151.472 18.704H152.736V11.392H151.472C151.344 11.392 151.259 11.408 151.216 11.44C151.173 11.472 151.152 11.5573 151.152 11.696V18.384ZM154.56 18.704H157.488V17.264H154.56V18.704ZM154.56 15.616H157.488V14.304H154.56V15.616ZM154.56 12.64H157.488V11.392H154.56V12.64Z" fill="#FFD202"/>
<path d="M6.74404 11.4108C7.06947 11.0854 7.59711 11.0854 7.92255 11.4108C8.24798 11.7363 8.24798 12.2639 7.92255 12.5893L7.34514 13.1667H10.6666C11.1269 13.1667 11.5 13.5398 11.5 14.0001C11.5 14.4603 11.1269 14.8334 10.6666 14.8334H7.34514L7.92255 15.4108C8.24798 15.7363 8.24798 16.2639 7.92255 16.5893C7.59711 16.9148 7.06947 16.9148 6.74404 16.5893L4.74404 14.5893C4.4186 14.2639 4.4186 13.7363 4.74404 13.4108L6.74404 11.4108Z" fill="#FFD202"/>
<path fill-rule="evenodd" clip-rule="evenodd" d="M7.99996 7.16675C4.22601 7.16675 1.16663 10.2261 1.16663 14.0001C1.16663 17.774 4.22601 20.8334 7.99996 20.8334C11.7739 20.8334 14.8333 17.774 14.8333 14.0001C14.8333 10.2261 11.7739 7.16675 7.99996 7.16675ZM2.83329 14.0001C2.83329 11.1466 5.14649 8.83341 7.99996 8.83341C10.8534 8.83341 13.1666 11.1466 13.1666 14.0001C13.1666 16.8536 10.8534 19.1667 7.99996 19.1667C5.14649 19.1667 2.83329 16.8536 2.83329 14.0001Z" fill="#FFD202"/>
</svg>
