<svg width="52" height="52" viewBox="0 0 52 52" fill="none" xmlns="http://www.w3.org/2000/svg">
<circle cx="26" cy="26" r="26" fill="url(#paint0_linear)"/>
<path fill-rule="evenodd" clip-rule="evenodd" d="M21 14.75C18.6528 14.75 16.75 16.6528 16.75 19V33C16.75 34.7949 18.2051 36.25 20 36.25H34C34.6904 36.25 35.25 35.6904 35.25 35C35.25 34.3447 34.7457 33.8071 34.104 33.7543C34.044 33.5597 34 33.3021 34 33C34 32.6979 34.044 32.4403 34.104 32.2457C34.7457 32.1929 35.25 31.6553 35.25 31V19C35.25 16.6528 33.3472 14.75 31 14.75H21ZM32 33C32 33.2541 32.0191 33.5062 32.0571 33.75H20C19.5858 33.75 19.25 33.4142 19.25 33C19.25 32.5858 19.5858 32.25 20 32.25H32.0571C32.0191 32.4938 32 32.7459 32 33ZM32.75 29.75V19C32.75 18.0335 31.9665 17.25 31 17.25H21C20.0335 17.25 19.25 18.0335 19.25 19V29.837C19.4908 29.7801 19.7419 29.75 20 29.75H32.75ZM24.4658 23.541C24.6268 23.0155 25.0833 22.3466 25.6819 21.8691C26.3092 21.3688 26.7794 21.3103 27.0052 21.3794C27.231 21.4486 27.5878 21.7603 27.8275 22.5261C28.0561 23.2568 28.0599 24.0667 27.899 24.5922C27.6087 25.5403 26.6049 26.0735 25.6568 25.7832C24.7088 25.4929 24.1756 24.4891 24.4658 23.541ZM27.7371 18.989C26.3548 18.5657 25.0209 19.1985 24.123 19.9147C23.1965 20.6537 22.4069 21.7265 22.0754 22.8091C21.3809 25.0773 22.6567 27.4791 24.9249 28.1737C27.1932 28.8682 29.595 27.5924 30.2895 25.3241C30.621 24.2415 30.5673 22.9106 30.2134 21.7795C29.8704 20.6834 29.1195 19.4122 27.7371 18.989Z" fill="white"/>
<defs>
<linearGradient id="paint0_linear" x1="-5.17766e-07" y1="-0.634146" x2="47.0383" y2="58.818" gradientUnits="userSpaceOnUse">
<stop stop-color="#FFC102"/>
<stop offset="1" stop-color="#FF8A00"/>
</linearGradient>
</defs>
</svg>
