<svg width="46" height="22" viewBox="0 0 46 22" fill="none" xmlns="http://www.w3.org/2000/svg">
<rect width="46" height="22" rx="4" fill="url(#paint0_linear)"/>
<path d="M8.75992 15.552C8.75992 15.7387 8.68992 15.9067 8.54992 16.056C8.40992 16.2053 8.17659 16.28 7.84992 16.28C7.52326 16.28 7.28992 16.2007 7.14992 16.042C7.00992 15.8833 6.93992 15.72 6.93992 15.552V6.9C6.93992 6.732 6.98659 6.58267 7.07992 6.452C7.17326 6.312 7.38792 6.242 7.72392 6.242C7.91059 6.242 8.05992 6.298 8.17192 6.41C8.29326 6.522 8.39592 6.634 8.47992 6.746L12.9039 12.696V6.97C12.9039 6.802 12.9739 6.63867 13.1139 6.48C13.2539 6.32133 13.4873 6.242 13.8139 6.242C14.1406 6.242 14.3739 6.31667 14.5139 6.466C14.6539 6.61533 14.7239 6.78333 14.7239 6.97V15.65C14.7239 15.8087 14.6773 15.9533 14.5839 16.084C14.4906 16.2147 14.2806 16.28 13.9539 16.28C13.7673 16.28 13.6086 16.224 13.4779 16.112C13.3566 16 13.2539 15.888 13.1699 15.776L8.75992 10.022V15.552ZM20.3661 6.102C21.1221 6.102 21.7755 6.23733 22.3261 6.508C22.8861 6.76933 23.3481 7.13333 23.7121 7.6C24.0761 8.05733 24.3468 8.59867 24.5241 9.224C24.7015 9.84933 24.7901 10.526 24.7901 11.254C24.7901 11.982 24.7015 12.6633 24.5241 13.298C24.3468 13.9233 24.0761 14.4693 23.7121 14.936C23.3481 15.3933 22.8861 15.7527 22.3261 16.014C21.7755 16.2847 21.1221 16.42 20.3661 16.42C19.6381 16.42 18.9988 16.2893 18.4481 16.028C17.8975 15.776 17.4355 15.4213 17.0621 14.964C16.6888 14.5067 16.4088 13.9607 16.2221 13.326C16.0355 12.6913 15.9421 12.0007 15.9421 11.254C15.9421 10.5353 16.0261 9.86333 16.1941 9.238C16.3621 8.60333 16.6235 8.05733 16.9781 7.6C17.3421 7.13333 17.7995 6.76933 18.3501 6.508C18.9101 6.23733 19.5821 6.102 20.3661 6.102ZM20.3661 14.824C20.8608 14.824 21.2715 14.7353 21.5981 14.558C21.9341 14.3713 22.2048 14.1193 22.4101 13.802C22.6155 13.4847 22.7601 13.1113 22.8441 12.682C22.9281 12.2527 22.9701 11.7907 22.9701 11.296C22.9701 10.8013 22.9235 10.3347 22.8301 9.896C22.7368 9.45733 22.5875 9.07467 22.3821 8.748C22.1768 8.42133 21.9061 8.16467 21.5701 7.978C21.2435 7.79133 20.8421 7.698 20.3661 7.698C19.8901 7.698 19.4841 7.796 19.1481 7.992C18.8215 8.17867 18.5555 8.43533 18.3501 8.762C18.1448 9.07933 17.9955 9.45267 17.9021 9.882C17.8088 10.3113 17.7621 10.7687 17.7621 11.254C17.7621 11.6927 17.8041 12.1267 17.8881 12.556C17.9721 12.9853 18.1168 13.368 18.3221 13.704C18.5275 14.04 18.7935 14.3107 19.1201 14.516C19.4561 14.7213 19.8715 14.824 20.3661 14.824ZM35.0282 15.16C34.9535 15.58 34.8089 15.8693 34.5942 16.028C34.3889 16.196 34.1322 16.28 33.8242 16.28C33.6095 16.28 33.4042 16.21 33.2082 16.07C33.0122 15.93 32.8629 15.6873 32.7602 15.342L31.0242 9.196L29.2602 15.482C29.1015 16.0327 28.7515 16.2987 28.2102 16.28C28.0702 16.28 27.9349 16.2613 27.8042 16.224C27.6735 16.1867 27.5522 16.1167 27.4402 16.014C27.3282 15.9113 27.2255 15.7713 27.1322 15.594C27.0482 15.4073 26.9829 15.1693 26.9362 14.88L25.7182 7.082C25.6809 6.86733 25.7229 6.676 25.8442 6.508C25.9655 6.33067 26.1895 6.242 26.5162 6.242C26.7215 6.242 26.8989 6.27933 27.0482 6.354C27.2069 6.42867 27.3095 6.634 27.3562 6.97L28.2102 12.724C28.2569 13.0413 28.3082 13.1953 28.3642 13.186C28.4202 13.1767 28.4855 13.0227 28.5602 12.724L30.0442 6.998C30.1095 6.75533 30.2309 6.56867 30.4082 6.438C30.5855 6.30733 30.7815 6.242 30.9962 6.242C31.2389 6.242 31.4349 6.298 31.5842 6.41C31.7429 6.51267 31.8689 6.72733 31.9622 7.054C32.2329 8.01533 32.4989 8.958 32.7602 9.882C33.0309 10.806 33.3015 11.7487 33.5722 12.71C33.6562 12.9993 33.7169 13.158 33.7542 13.186C33.8009 13.214 33.8475 13.0553 33.8942 12.71L34.7202 7.04C34.7669 6.72267 34.8555 6.51267 34.9862 6.41C35.1262 6.298 35.3222 6.242 35.5742 6.242C35.8915 6.242 36.1062 6.32133 36.2182 6.48C36.3395 6.62933 36.3815 6.80667 36.3442 7.012L35.0282 15.16ZM38.1331 13.116C37.5638 13.116 37.2791 12.8593 37.2791 12.346V6.214C37.2791 5.70067 37.5638 5.444 38.1331 5.444C38.4038 5.444 38.6138 5.50467 38.7631 5.626C38.9125 5.738 38.9871 5.94333 38.9871 6.242V12.318C38.9871 12.6167 38.9125 12.8267 38.7631 12.948C38.6138 13.06 38.4038 13.116 38.1331 13.116ZM38.1331 14.236C37.8625 14.236 37.6338 14.3293 37.4471 14.516C37.2698 14.6933 37.1811 14.9173 37.1811 15.188C37.1811 15.4587 37.2698 15.6873 37.4471 15.874C37.6338 16.0513 37.8625 16.14 38.1331 16.14C38.4038 16.14 38.6278 16.0513 38.8051 15.874C38.9918 15.6873 39.0851 15.4587 39.0851 15.188C39.0851 14.9173 38.9918 14.6933 38.8051 14.516C38.6278 14.3293 38.4038 14.236 38.1331 14.236Z" fill="white"/>
<defs>
<linearGradient id="paint0_linear" x1="46" y1="22" x2="6.79306" y2="-8.68083" gradientUnits="userSpaceOnUse">
<stop stop-color="#554CE1"/>
<stop offset="1" stop-color="#7067FF"/>
</linearGradient>
</defs>
</svg>
