<svg width="121" height="64" viewBox="0 0 121 64" fill="none" xmlns="http://www.w3.org/2000/svg">
<g filter="url(#filter0_d)">
<path d="M46.3543 31.3346C47.2033 31.3346 47.8915 30.6612 47.8915 29.8305C47.8915 28.9998 47.2033 28.3264 46.3543 28.3264C45.5054 28.3264 44.8172 28.9998 44.8172 29.8305C44.8172 30.6612 45.5054 31.3346 46.3543 31.3346Z" fill="white"/>
<path d="M18.3604 24.0971L27.6463 19.2835L36.9902 24.0945C37.0402 24.1203 37.0902 24.1435 37.1402 24.1641C37.1586 24.1718 37.1771 24.1769 37.1955 24.1847C37.2244 24.195 37.2534 24.2053 37.2824 24.213C37.3113 24.2207 37.3403 24.2284 37.3692 24.2336C37.3903 24.2387 37.4087 24.2439 37.4297 24.2465C37.4613 24.2516 37.4929 24.2568 37.5219 24.2594C37.5403 24.2619 37.5614 24.2645 37.5798 24.2671C37.6087 24.2697 37.6377 24.2697 37.6666 24.2722C37.6903 24.2722 37.7114 24.2748 37.7351 24.2748C37.7588 24.2748 37.7824 24.2722 37.8088 24.2722C37.8351 24.2722 37.864 24.2697 37.8904 24.2671C37.9088 24.2645 37.9298 24.2619 37.9483 24.2594C37.9798 24.2542 38.0114 24.2516 38.043 24.2439C38.0588 24.2413 38.0746 24.2362 38.0904 24.2336C38.1246 24.2259 38.1588 24.2181 38.1904 24.2078C38.2062 24.2027 38.222 24.1975 38.2378 24.1924C38.2694 24.1821 38.301 24.1718 38.3325 24.1589C38.3562 24.1486 38.3799 24.1383 38.4036 24.1254C38.4247 24.1151 38.4484 24.1074 38.4694 24.0945C38.5168 24.0688 38.5642 24.043 38.6089 24.0121L39.8855 23.1776C40.6093 22.7063 40.8041 21.7482 40.3224 21.04C39.8407 20.3317 38.8616 20.1411 38.1378 20.6124L37.6324 20.9421L28.378 16.1774C27.9174 15.9404 27.3673 15.9404 26.9067 16.18L16.8864 21.3722C16.1178 21.7714 15.823 22.7037 16.231 23.4558C16.639 24.2104 17.5918 24.4963 18.3604 24.0971Z" fill="white"/>
<path d="M23.1465 22.5364C22.4227 22.5364 21.8331 23.1108 21.8331 23.8216C21.8331 24.5299 22.4201 25.1068 23.1465 25.1068H32.214C32.9378 25.1068 33.5274 24.5325 33.5274 23.8216C33.5274 23.1134 32.9405 22.5364 32.214 22.5364H23.1465Z" fill="white"/>
<path d="M29.8573 34.4816L27.7885 35.8312C27.0647 36.3025 26.8699 37.2606 27.3516 37.9689C27.8333 38.6771 28.8124 38.8677 29.5362 38.3964L31.605 37.0468C32.3288 36.5755 32.5236 35.6174 32.0419 34.9092C31.5603 34.2009 30.5811 34.0077 29.8573 34.4816Z" fill="white"/>
<path d="M41.9744 31.1598L36.9787 34.2942V32.8338C36.9761 32.2389 36.784 31.6774 36.4023 31.2138C36.2102 30.9821 35.968 30.776 35.668 30.6215C35.4074 30.4876 35.0968 30.4 34.7757 30.382V28.0794C34.7757 27.7987 34.7046 27.5283 34.5836 27.2991C34.4046 26.9539 34.1335 26.7041 33.8334 26.5367C33.5307 26.3693 33.1912 26.2817 32.8359 26.2817H22.347C21.8733 26.2843 21.4258 26.4363 21.0626 26.7325C20.881 26.8818 20.7204 27.0698 20.5993 27.2991C20.4809 27.5283 20.4072 27.7987 20.4072 28.0794V30.382C20.0861 30.4 19.7755 30.4876 19.5149 30.6215C19.0648 30.8533 18.7437 31.1984 18.5279 31.577C18.3147 31.9582 18.2015 32.3857 18.2015 32.8313V36.1975L16.7012 37.1762C15.9774 37.6475 15.7826 38.6056 16.2643 39.3138C16.746 40.0221 17.7251 40.2127 18.4489 39.7414L20.1203 38.6519H22.8471C23.0287 38.6597 23.2104 38.6365 23.3867 38.5824L23.392 38.5798C23.4367 38.5669 23.4815 38.5515 23.5236 38.5335C23.5446 38.5257 23.5657 38.5154 23.5867 38.5051C23.6104 38.4948 23.6341 38.4845 23.6552 38.4716C23.7078 38.4433 23.7605 38.4124 23.8078 38.3789L25.853 37.0448C26.5768 36.5735 26.7716 35.6154 26.2899 34.9071C25.8082 34.1989 24.8291 34.0083 24.1053 34.4796L22.4392 35.5665H21.3547V33.4545H33.8281V36.898C33.8281 36.9341 33.8308 36.9701 33.8334 37.0036C33.8097 37.323 33.8861 37.6526 34.0782 37.9437C34.5467 38.6597 35.5232 38.8683 36.2549 38.4098L43.6774 33.7533C44.4091 33.2949 44.6223 32.3393 44.1538 31.6234C43.6826 30.9099 42.7088 30.7013 41.9744 31.1598ZM23.034 28.8495H32.1489V30.3742H23.034V28.8495Z" fill="white"/>
<path d="M100.214 19.8865C99.7325 19.1783 98.7533 18.9877 98.0295 19.459L96.9083 20.1905C96.4476 20.4918 96.2029 20.9863 96.2081 21.4911C96.2081 21.4962 96.2081 21.5014 96.2081 21.5091V29.8847L88.6804 20.5227C88.2645 20.0076 87.5618 19.8041 86.9274 20.0205C86.2931 20.2342 85.8667 20.8215 85.8667 21.4782V32.2078L82.1871 34.6236C81.4659 35.0975 81.2711 36.0556 81.758 36.7639C82.2423 37.4696 83.2215 37.6602 83.9453 37.1837L88.2671 34.3455C88.4198 34.245 88.5488 34.1214 88.6541 33.9823C88.8831 33.7145 89.0199 33.3719 89.0199 32.9959V25.9261L96.545 35.2881C96.9609 35.8032 97.6637 36.0067 98.298 35.7903C98.9323 35.5766 99.3587 34.9894 99.3587 34.3326V22.2972L99.7772 22.0242C100.501 21.5529 100.698 20.5948 100.214 19.8865Z" fill="white"/>
<path d="M65.5408 25.9595C65.2039 24.5301 64.5828 23.3814 63.8273 22.5135C63.2614 21.8619 62.6271 21.3725 62.0086 21.0094C61.0742 20.4659 60.1767 20.2032 59.4976 20.0693C58.8185 19.9354 58.3579 19.9328 58.2789 19.9328H56.7813C55.9101 19.9328 55.2047 20.623 55.2047 21.4755C55.2047 22.328 55.9101 23.0183 56.7813 23.0183H58.2658C58.271 23.0183 58.5843 23.026 59.0212 23.1264C59.3502 23.2011 59.7503 23.3273 60.1477 23.5282C60.4478 23.6802 60.7478 23.8733 61.0321 24.1206C61.4585 24.494 61.8507 24.986 62.1612 25.7071C62.4692 26.4282 62.6877 27.3915 62.6877 28.6973C62.6877 29.4905 62.6061 30.1576 62.4718 30.7216C62.2349 31.7055 61.8533 32.3674 61.4269 32.8619C61.1058 33.2302 60.7504 33.5083 60.3899 33.7195C59.8476 34.0389 59.287 34.2089 58.8685 34.2913C58.6606 34.3325 58.4921 34.3531 58.3816 34.3634C58.3263 34.3686 58.2895 34.3711 58.2684 34.3711H58.2552H55.1441V25.2976C55.1441 25.2873 55.1415 25.277 55.1415 25.2667C55.1415 25.2435 55.1389 25.2203 55.1389 25.1971C55.1362 25.1611 55.1336 25.1276 55.1283 25.0916C55.1283 25.0864 55.1257 25.0813 55.1257 25.0735C55.0152 24.3292 54.3598 23.7549 53.5701 23.7549C53.2122 23.7549 52.8832 23.8733 52.6173 24.0691L49.4509 25.9569C48.7087 26.3999 48.4718 27.3477 48.9245 28.0766C49.3772 28.8029 50.3459 29.0347 51.0907 28.5917L51.9962 28.0534V35.9087C51.9962 36.3156 52.1646 36.7123 52.4568 36.9981C52.7489 37.284 53.1569 37.4489 53.5701 37.4489H58.2763H58.2842C58.3658 37.4489 58.8396 37.4411 59.5344 37.2995C60.0556 37.1913 60.7031 37.0085 61.3953 36.6814C61.9138 36.4367 62.4587 36.1096 62.9825 35.6769C63.7694 35.0279 64.5038 34.129 65.0197 32.9649C65.5382 31.8008 65.8383 30.3817 65.8356 28.6921C65.8383 27.6851 65.733 26.7759 65.5408 25.9595Z" fill="white"/>
<path d="M82.5667 31.144L77.313 20.7853C77.0472 20.2599 76.4997 19.9276 75.9022 19.9302C75.3048 19.9302 74.7573 20.2625 74.4915 20.7879L68.0007 33.6139L66.361 34.5926C65.6187 35.0356 65.3845 35.986 65.8372 36.7123C66.2899 37.4386 67.2611 37.6678 68.0034 37.2248L70.0301 36.0117C70.0406 36.004 70.0511 35.9963 70.0617 35.9911C70.0906 35.9731 70.1169 35.9551 70.1459 35.9345C70.1617 35.9216 70.1775 35.9113 70.1933 35.8984C70.217 35.8804 70.2406 35.8598 70.2643 35.8392C70.2801 35.8237 70.2985 35.8083 70.3143 35.7928C70.3354 35.7722 70.3538 35.7542 70.3722 35.7336C70.3907 35.7155 70.4065 35.6949 70.4223 35.6769C70.438 35.6589 70.4538 35.6383 70.4696 35.6177C70.4854 35.5945 70.5039 35.5739 70.5196 35.5507C70.5328 35.5327 70.546 35.5147 70.5565 35.4941C70.5723 35.4683 70.5854 35.4425 70.6012 35.4168C70.6091 35.4039 70.617 35.391 70.6223 35.3782L75.9049 24.9396L79.7451 32.5116C80.132 33.274 81.0769 33.5856 81.856 33.207C82.6351 32.8335 82.9536 31.9089 82.5667 31.144Z" fill="white"/>
</g>
<defs>
<filter id="filter0_d" x="-4" y="0" width="124.48" height="64" filterUnits="userSpaceOnUse" color-interpolation-filters="sRGB">
<feFlood flood-opacity="0" result="BackgroundImageFix"/>
<feColorMatrix in="SourceAlpha" type="matrix" values="0 0 0 0 0 0 0 0 0 0 0 0 0 0 0 0 0 0 127 0"/>
<feOffset dy="4"/>
<feGaussianBlur stdDeviation="10"/>
<feColorMatrix type="matrix" values="0 0 0 0 0.179167 0 0 0 0 0.116458 0 0 0 0 0.0119444 0 0 0 1 0"/>
<feBlend mode="normal" in2="BackgroundImageFix" result="effect1_dropShadow"/>
<feBlend mode="normal" in="SourceGraphic" in2="effect1_dropShadow" result="shape"/>
</filter>
</defs>
</svg>
