<svg width="87" height="95" viewBox="0 0 87 95" fill="none" xmlns="http://www.w3.org/2000/svg">
<mask id="mask0" mask-type="alpha" maskUnits="userSpaceOnUse" x="7" y="3" width="85" height="86">
<path d="M57.2537 88.1377C80.0939 84.5292 95.2745 62.6647 91.1605 39.3019C87.0465 15.9392 65.1959 -0.074848 42.3557 3.53364C19.5156 7.14213 4.33503 29.0066 8.44899 52.3694C12.563 75.7322 34.4136 91.7462 57.2537 88.1377Z" fill="#FFCF3C"/>
</mask>
<g mask="url(#mask0)">
<path d="M57.2537 88.1377C80.0939 84.5292 95.2745 62.6647 91.1605 39.3019C87.0465 15.9392 65.1959 -0.074848 42.3557 3.53364C19.5156 7.14213 4.33503 29.0066 8.44899 52.3694C12.563 75.7322 34.4136 91.7462 57.2537 88.1377Z" fill="#FFC102"/>
<path d="M38.7542 67.0837C57.6325 64.1012 70.1798 46.0293 66.7794 26.7191C63.3791 7.40891 45.3187 -5.82727 26.4405 -2.84472C7.56225 0.137831 -4.98505 18.2097 -1.58471 37.5199C1.81564 56.8301 19.876 70.0663 38.7542 67.0837Z" fill="#FFCF3B"/>
<path d="M28.6569 37.4014C29.9808 37.1923 30.8608 35.9249 30.6223 34.5706C30.3838 33.2163 29.1172 32.2881 27.7933 32.4972C26.4693 32.7064 25.5893 33.9738 25.8278 35.3281C26.0663 36.6823 27.3329 37.6106 28.6569 37.4014Z" fill="#1F2020"/>
<path d="M50.6715 33.9991C51.9954 33.7899 52.8754 32.5225 52.6369 31.1683C52.3985 29.814 51.1319 28.8857 49.8079 29.0949C48.4839 29.3041 47.604 30.5715 47.8424 31.9257C48.0809 33.28 49.3475 34.2083 50.6715 33.9991Z" fill="#1F2020"/>
<path d="M36.3534 34.0566C36.3534 34.0566 39.0166 35.856 42.3745 33.3516" stroke="#1F2020" stroke-width="3" stroke-miterlimit="10" stroke-linecap="round" stroke-linejoin="round"/>
</g>
</svg>
