<svg width="20" height="20" viewBox="0 0 20 20" fill="none" xmlns="http://www.w3.org/2000/svg">
<path fill-rule="evenodd" clip-rule="evenodd" d="M9.47247 18.0815C9.47247 18.0815 9.47293 18.0818 10 17.2564L9.47247 18.0815C9.79137 18.3057 10.2082 18.306 10.5271 18.0818L10 17.2564C10.5271 18.0818 10.5271 18.0818 10.5271 18.0818L10.5281 18.0811L10.5296 18.08L10.5342 18.0768L10.5488 18.0664C10.5611 18.0576 10.5783 18.0452 10.6 18.0293C10.6435 17.9976 10.7054 17.9519 10.7831 17.8929C10.9383 17.775 11.157 17.6039 11.4182 17.3859C11.9389 16.9513 12.6359 16.3239 13.3363 15.5547C14.694 14.0634 16.25 11.8384 16.25 9.33508C16.25 5.70285 13.4562 2.75 10 2.75C6.54384 2.75 3.75 5.70285 3.75 9.33508C3.75 11.8384 5.30599 14.0634 6.66374 15.5547C7.36407 16.3239 8.06109 16.9513 8.58184 17.3859C8.84297 17.6039 9.06169 17.775 9.21691 17.8929C9.29456 17.9519 9.35645 17.9976 9.39997 18.0293C9.42173 18.0452 9.4389 18.0576 9.45117 18.0664L9.46585 18.0768L9.47035 18.08L9.47247 18.0815ZM10 6.92307C8.74481 6.92307 7.72727 7.99069 7.72727 9.30767C7.72727 10.6247 8.74481 11.6923 10 11.6923C11.2552 11.6923 12.2727 10.6247 12.2727 9.30767C12.2727 7.99069 11.2552 6.92307 10 6.92307Z" fill="url(#paint0_linear)"/>
<defs>
<linearGradient id="paint0_linear" x1="16.25" y1="18.2498" x2="0.506033" y2="13.4979" gradientUnits="userSpaceOnUse">
<stop stop-color="#554CE1"/>
<stop offset="1" stop-color="#7067FF"/>
</linearGradient>
</defs>
</svg>
