<svg width="24" height="24" viewBox="0 0 24 24" fill="none" xmlns="http://www.w3.org/2000/svg">
<path fill-rule="evenodd" clip-rule="evenodd" d="M13.9265 1.82787C13.2596 2.00655 12.8639 2.69197 13.0426 3.3588C13.2213 4.02564 13.9067 4.42137 14.5735 4.24269L15.3665 4.0302L14.1768 6.09091C13.4062 5.86893 12.592 5.75 11.75 5.75C6.91751 5.75 3 9.66751 3 14.5C3 19.3325 6.91751 23.25 11.75 23.25C16.5825 23.25 20.5 19.3325 20.5 14.5C20.5 11.4037 18.8917 8.68297 16.4649 7.1277L17.6456 5.08271L17.9416 6.18723C18.1202 6.85406 18.8057 7.24979 19.4725 7.07112C20.1393 6.89244 20.5351 6.20702 20.3564 5.54018L19.3211 1.67648C19.1424 1.00965 18.457 0.613921 17.7902 0.792598L13.9265 1.82787ZM5.5 14.5C5.5 11.0482 8.29822 8.25 11.75 8.25C15.2018 8.25 18 11.0482 18 14.5C18 17.9518 15.2018 20.75 11.75 20.75C8.29822 20.75 5.5 17.9518 5.5 14.5ZM8.25 15C8.80228 15 9.25 14.5523 9.25 14C9.25 13.4477 8.80228 13 8.25 13C7.69772 13 7.25 13.4477 7.25 14C7.25 14.5523 7.69772 15 8.25 15ZM16.25 14C16.25 14.5523 15.8023 15 15.25 15C14.6977 15 14.25 14.5523 14.25 14C14.25 13.4477 14.6977 13 15.25 13C15.8023 13 16.25 13.4477 16.25 14ZM11.0376 13.6707C10.8557 13.4629 10.5398 13.4419 10.332 13.6238C10.1243 13.8057 10.1033 14.1216 10.2852 14.3293C10.6137 14.7046 11.1071 15 11.7501 15C12.3931 15 12.8865 14.7046 13.215 14.3293C13.3969 14.1216 13.3759 13.8057 13.1682 13.6238C12.9604 13.4419 12.6445 13.4629 12.4626 13.6707C12.2922 13.8653 12.0598 14 11.7501 14C11.4404 14 11.208 13.8653 11.0376 13.6707Z" fill="white"/>
</svg>
