<svg width="24" height="24" viewBox="0 0 24 24" fill="none" xmlns="http://www.w3.org/2000/svg">
<path d="M8.25 10.25C8.80228 10.25 9.25 9.80228 9.25 9.25C9.25 8.69772 8.80228 8.25 8.25 8.25C7.69772 8.25 7.25 8.69772 7.25 9.25C7.25 9.80228 7.69772 10.25 8.25 10.25Z" fill="white"/>
<path d="M16.25 9.25C16.25 9.80228 15.8023 10.25 15.25 10.25C14.6977 10.25 14.25 9.80228 14.25 9.25C14.25 8.69772 14.6977 8.25 15.25 8.25C15.8023 8.25 16.25 8.69772 16.25 9.25Z" fill="white"/>
<path d="M11.0376 8.92065C10.8557 8.71288 10.5398 8.6919 10.332 8.87379C10.1243 9.05569 10.1033 9.37157 10.2852 9.57935C10.6137 9.95458 11.1071 10.25 11.7501 10.25C12.3931 10.25 12.8865 9.95458 13.215 9.57935C13.3969 9.37157 13.3759 9.05569 13.1682 8.87379C12.9604 8.6919 12.6445 8.71288 12.4626 8.92065C12.2922 9.11529 12.0598 9.25 11.7501 9.25C11.4404 9.25 11.208 9.11529 11.0376 8.92065Z" fill="white"/>
<path fill-rule="evenodd" clip-rule="evenodd" d="M11.75 1C6.91751 1 3 4.91751 3 9.75C3 14.1581 6.25963 17.8049 10.5 18.4114V19H8.75C8.05964 19 7.5 19.5596 7.5 20.25C7.5 20.9404 8.05964 21.5 8.75 21.5H10.5V22.25C10.5 22.9404 11.0596 23.5 11.75 23.5C12.4404 23.5 13 22.9404 13 22.25V21.5H14.75C15.4404 21.5 16 20.9404 16 20.25C16 19.5596 15.4404 19 14.75 19H13V18.4114C17.2404 17.8049 20.5 14.1581 20.5 9.75C20.5 4.91751 16.5825 1 11.75 1ZM5.5 9.75C5.5 6.29822 8.29822 3.5 11.75 3.5C15.2018 3.5 18 6.29822 18 9.75C18 13.2018 15.2018 16 11.75 16C8.29822 16 5.5 13.2018 5.5 9.75Z" fill="white"/>
</svg>
