<svg width="24" height="24" viewBox="0 0 24 24" fill="none" xmlns="http://www.w3.org/2000/svg">
<path d="M8.25 14C8.80228 14 9.25 13.5523 9.25 13C9.25 12.4477 8.80228 12 8.25 12C7.69772 12 7.25 12.4477 7.25 13C7.25 13.5523 7.69772 14 8.25 14Z" fill="white"/>
<path d="M16.25 13C16.25 13.5523 15.8023 14 15.25 14C14.6977 14 14.25 13.5523 14.25 13C14.25 12.4477 14.6977 12 15.25 12C15.8023 12 16.25 12.4477 16.25 13Z" fill="white"/>
<path fill-rule="evenodd" clip-rule="evenodd" d="M13.75 14C13.75 15.1045 12.8546 16 11.75 16C10.6454 16 9.75 15.1045 9.75 14C9.75 12.8954 10.6454 12.5 11.75 12.5C12.8546 12.5 13.75 12.8954 13.75 14ZM12.75 14C12.75 14.5522 12.3023 15 11.75 15C11.1977 15 10.75 14.5522 10.75 14C10.75 13.8614 10.7772 13.7936 10.7922 13.7651C10.8064 13.7382 10.8297 13.7076 10.8835 13.6724C11.0139 13.5871 11.2894 13.5 11.75 13.5C12.2106 13.5 12.4861 13.5871 12.6165 13.6724C12.6703 13.7076 12.6936 13.7382 12.7078 13.7651C12.7228 13.7936 12.75 13.8614 12.75 14Z" fill="white"/>
<path fill-rule="evenodd" clip-rule="evenodd" d="M9.75 1.75C9.05964 1.75 8.5 2.30964 8.5 3C8.5 3.69036 9.05964 4.25 9.75 4.25C10.0329 4.25 10.1623 4.31727 10.2196 4.35685C10.2831 4.40067 10.3527 4.47701 10.4156 4.62201C10.4447 4.68917 10.4686 4.76276 10.4877 4.84038C6.25334 5.45219 3 9.09617 3 13.5C3 18.3325 6.91751 22.25 11.75 22.25C16.5825 22.25 20.5 18.3325 20.5 13.5C20.5 9.69342 18.0693 6.45457 14.6753 5.25095C14.6993 5.25033 14.7242 5.25 14.75 5.25C15.4404 5.25 16 4.69036 16 4C16 3.30964 15.4404 2.75 14.75 2.75C13.8799 2.75 13.1426 2.96195 12.5859 3.37197C12.3757 2.97894 12.0714 2.59736 11.6398 2.2994C11.1086 1.93273 10.4671 1.75 9.75 1.75ZM11.7311 7.25003C11.7446 7.25025 11.758 7.25025 11.7714 7.25004C15.2133 7.26158 18 10.0554 18 13.5C18 16.9518 15.2018 19.75 11.75 19.75C8.29822 19.75 5.5 16.9518 5.5 13.5C5.5 10.0545 8.28801 7.26022 11.7311 7.25003Z" fill="white"/>
</svg>
