<svg width="44" height="44" viewBox="0 0 44 44" fill="none" xmlns="http://www.w3.org/2000/svg">
<rect width="44" height="44" rx="8" fill="url(#paint0_linear)"/>
<path d="M13.5244 18.616C13.6844 17.88 13.9564 17.192 14.3404 16.552C14.7244 15.912 15.1964 15.36 15.7564 14.896C16.3324 14.416 16.9724 14.04 17.6764 13.768C18.3804 13.496 19.1244 13.36 19.9084 13.36C20.6284 13.36 21.2764 13.496 21.8524 13.768C22.4284 14.04 22.9004 14.416 23.2684 14.896C23.6524 15.376 23.9084 15.936 24.0364 16.576C24.1804 17.216 24.1724 17.904 24.0124 18.64L22.4764 25.96C22.3164 26.68 22.0284 27.36 21.6124 28C21.1964 28.624 20.7004 29.176 20.1244 29.656C19.5484 30.12 18.9164 30.496 18.2284 30.784C17.5404 31.056 16.8364 31.192 16.1164 31.192C15.4124 31.192 14.7644 31.056 14.1724 30.784C13.5964 30.512 13.1164 30.144 12.7324 29.68C12.3484 29.2 12.0764 28.656 11.9164 28.048C11.7724 27.424 11.7724 26.776 11.9164 26.104L13.5244 18.616ZM14.6764 26.008C14.5964 26.344 14.5964 26.664 14.6764 26.968C14.7564 27.256 14.8844 27.512 15.0604 27.736C15.2524 27.96 15.4844 28.136 15.7564 28.264C16.0284 28.392 16.3324 28.456 16.6684 28.456C17.0044 28.456 17.3324 28.392 17.6524 28.264C17.9884 28.136 18.2924 27.96 18.5644 27.736C18.8524 27.496 19.0924 27.232 19.2844 26.944C19.4924 26.64 19.6364 26.32 19.7164 25.984L21.3004 18.616C21.3644 18.264 21.3644 17.936 21.3004 17.632C21.2364 17.312 21.1084 17.04 20.9164 16.816C20.7404 16.576 20.5164 16.392 20.2444 16.264C19.9724 16.12 19.6604 16.048 19.3084 16.048C18.9564 16.048 18.6124 16.12 18.2764 16.264C17.9404 16.392 17.6364 16.576 17.3644 16.816C17.0924 17.04 16.8524 17.312 16.6444 17.632C16.4524 17.936 16.3244 18.264 16.2604 18.616L14.6764 26.008ZM27.9013 29.872C27.8213 30.272 27.6213 30.6 27.3013 30.856C26.9973 31.112 26.6453 31.24 26.2453 31.24C25.8773 31.24 25.5813 31.112 25.3573 30.856C25.1493 30.6 25.0853 30.272 25.1653 29.872L27.5653 18.616C27.3573 18.696 27.1573 18.736 26.9653 18.736C26.8053 18.736 26.6533 18.72 26.5093 18.688C26.3653 18.656 26.2453 18.584 26.1493 18.472H26.1733C25.8693 18.232 25.7653 17.864 25.8613 17.368C25.8933 17.224 25.9493 17.08 26.0293 16.936C26.1093 16.792 26.1973 16.664 26.2933 16.552C26.6933 16.136 27.1093 15.704 27.5413 15.256C27.9733 14.792 28.3893 14.352 28.7893 13.936L28.7653 13.96C29.1013 13.544 29.5253 13.336 30.0373 13.336C30.4373 13.336 30.7333 13.472 30.9253 13.744C31.1333 14 31.1973 14.312 31.1173 14.68L27.9013 29.872Z" fill="white"/>
<defs>
<linearGradient id="paint0_linear" x1="44" y1="44" x2="-9.03832" y2="24.1501" gradientUnits="userSpaceOnUse">
<stop stop-color="#554CE1"/>
<stop offset="1" stop-color="#7067FF"/>
</linearGradient>
</defs>
</svg>
