<svg width="52" height="52" viewBox="0 0 52 52" fill="none" xmlns="http://www.w3.org/2000/svg">
<circle cx="26" cy="26" r="26" fill="white"/>
<path fill-rule="evenodd" clip-rule="evenodd" d="M32 18.5H20C19.1716 18.5 18.5 19.1716 18.5 20V32C18.5 32.8284 19.1716 33.5 20 33.5H32C32.8284 33.5 33.5 32.8284 33.5 32V20C33.5 19.1716 32.8284 18.5 32 18.5ZM20 16C17.7909 16 16 17.7909 16 20V32C16 34.2091 17.7909 36 20 36H32C34.2091 36 36 34.2091 36 32V20C36 17.7909 34.2091 16 32 16H20ZM27.7848 20.7555C28.5612 19.945 29.5945 19.75 30.5 19.75C31.1904 19.75 31.75 20.3096 31.75 21C31.75 21.6904 31.1904 22.25 30.5 22.25C29.9055 22.25 29.6888 22.3819 29.5902 22.4849C29.4854 22.5943 29.2877 22.9074 29.2547 23.75H30C30.6904 23.75 31.25 24.3096 31.25 25C31.25 25.6904 30.6904 26.25 30 26.25H29.25V26.2562V26.2727V26.2891V26.3055V26.3219V26.3383V26.3546V26.3709V26.3872V26.4035V26.4198V26.4361V26.4523V26.4685V26.4847V26.5009V26.517V26.5332V26.5493V26.5654V26.5815V26.5975V26.6136V26.6296V26.6456V26.6616V26.6776V26.6935V26.7094V26.7253V26.7412V26.7571V26.7729V26.7887V26.8046V26.8203V26.8361V26.8519V26.8676V26.8833V26.899V26.9146V26.9303V26.9459V26.9615V26.9771V26.9927V27.0082V27.0238V27.0393V27.0548V27.0702V27.0857V27.1011V27.1165V27.1319V27.1473V27.1626V27.178V27.1933V27.2086V27.2238V27.2391V27.2543V27.2695V27.2847V27.2999V27.315V27.3301V27.3452V27.3603V27.3754V27.3904V27.4055V27.4205V27.4355V27.4504V27.4654V27.4803V27.4952V27.5101V27.5249V27.5398V27.5546V27.5694V27.5842V27.5989V27.6137V27.6284V27.6431V27.6578V27.6724V27.6871V27.7017V27.7163V27.7308V27.7454V27.7599V27.7744V27.7889V27.8034V27.8178V27.8323V27.8467V27.8611V27.8754V27.8898V27.9041V27.9184V27.9327V27.9469V27.9612V27.9754V27.9896V28.0038V28.0179V28.032V28.0462V28.0602V28.0743V28.0884V28.1024V28.1164V28.1304V28.1443V28.1583V28.1722V28.1861V28.2V28.2138V28.2277V28.2415V28.2553V28.2691V28.2828V28.2965V28.3102V28.3239V28.3376V28.3512V28.3649V28.3784V28.392V28.4056V28.4191V28.4326V28.4461V28.4596V28.473V28.4865V28.4999V28.5132V28.5266V28.5399V28.5533V28.5666V28.5798V28.5931V28.6063V28.6195V28.6327V28.6459V28.659V28.6721V28.6852V28.6983V28.7114V28.7244V28.7374V28.7504V28.7634V28.7763V28.7892V28.8021V28.815V28.8278V28.8407V28.8535V28.8663V28.879V28.8918V28.9045V28.9172V28.9299V28.9425V28.9552V28.9678V28.9804V28.9929V29.0055V29.018V29.0305V29.043V29.0554V29.0678V29.0803V29.0926V29.105V29.1173V29.1297V29.1419V29.1542V29.1665V29.1787V29.1909V29.2031V29.2152V29.2274V29.2395V29.2516V29.2636V29.2757V29.2877V29.2997V29.3117V29.3236V29.3356V29.3475V29.3594V29.3712V29.3831V29.3949V29.4067V29.4184V29.4302V29.4419V29.4536V29.4653V29.4769V29.4886V29.5002V29.5117V29.5233V29.5348V29.5464V29.5578V29.5693V29.5808V29.5922V29.6036V29.615V29.6263V29.6376V29.6489V29.6602V29.6715V29.6827V29.6939V29.7051V29.7163V29.7274V29.7385V29.7496V29.7607V29.7717V29.7828V29.7937V29.8047V29.8157V29.8266V29.8375V29.8484V29.8592V29.8701V29.8809V29.8917V29.9024V29.9132V29.9239V29.9346V29.9452V29.9559V29.9665V29.9771V29.9877V29.9982V30.0087V30.0192V30.0297V30.0401V30.0506V30.061V30.0714V30.0817V30.092V30.1023V30.1126V30.1229V30.1331V30.1433V30.1535V30.1637V30.1738V30.1839V30.194V30.2041V30.2141V30.2241V30.2341V30.2441V30.254V30.2639V30.2738V30.2837V30.2935V30.3033V30.3131V30.3229V30.3326V30.3424V30.3521V30.3617V30.3714V30.381V30.3906V30.4002V30.4097V30.4192V30.4287V30.4382V30.4477V30.4571V30.4665V30.4759V30.4852V30.4945V30.5038V30.5131V30.5224V30.5316V30.5408V30.55V30.5591V30.5682V30.5773V30.5864V30.5954V30.6045V30.6135V30.6224V30.6314V30.6403V30.6492V30.6581V30.6669V30.6758V30.6846V30.6933V30.7021V30.7108V30.7195V30.7282V30.7368V30.7454V30.754V30.7626V30.7711V30.7797V30.7882V30.7966V30.8051V30.8135V30.8219V30.8302V30.8386V30.8469V30.8552V30.8635V30.8717V30.8799V30.8881V30.8963V30.9044V30.9125V30.9206V30.9286V30.9367V30.9447V30.9527V30.9606V30.9685V30.9764V30.9843V30.9922V31C29.25 31.6904 28.6904 32.25 28 32.25C27.3096 32.25 26.75 31.6904 26.75 31V30.9922V30.9843V30.9764V30.9685V30.9606V30.9527V30.9447V30.9367V30.9286V30.9206V30.9125V30.9044V30.8963V30.8881V30.8799V30.8717V30.8635V30.8552V30.8469V30.8386V30.8302V30.8219V30.8135V30.8051V30.7966V30.7882V30.7797V30.7711V30.7626V30.754V30.7454V30.7368V30.7282V30.7195V30.7108V30.7021V30.6933V30.6846V30.6758V30.6669V30.6581V30.6492V30.6403V30.6314V30.6224V30.6135V30.6045V30.5954V30.5864V30.5773V30.5682V30.5591V30.55V30.5408V30.5316V30.5224V30.5131V30.5038V30.4945V30.4852V30.4759V30.4665V30.4571V30.4477V30.4382V30.4287V30.4192V30.4097V30.4002V30.3906V30.381V30.3714V30.3617V30.3521V30.3424V30.3326V30.3229V30.3131V30.3033V30.2935V30.2837V30.2738V30.2639V30.254V30.2441V30.2341V30.2241V30.2141V30.2041V30.194V30.1839V30.1738V30.1637V30.1535V30.1433V30.1331V30.1229V30.1126V30.1023V30.092V30.0817V30.0714V30.061V30.0506V30.0401V30.0297V30.0192V30.0087V29.9982V29.9877V29.9771V29.9665V29.9559V29.9452V29.9346V29.9239V29.9132V29.9024V29.8917V29.8809V29.8701V29.8592V29.8484V29.8375V29.8266V29.8157V29.8047V29.7937V29.7828V29.7717V29.7607V29.7496V29.7385V29.7274V29.7163V29.7051V29.6939V29.6827V29.6715V29.6602V29.6489V29.6376V29.6263V29.615V29.6036V29.5922V29.5808V29.5693V29.5578V29.5464V29.5348V29.5233V29.5117V29.5002V29.4886V29.4769V29.4653V29.4536V29.4419V29.4302V29.4184V29.4067V29.3949V29.3831V29.3712V29.3594V29.3475V29.3356V29.3236V29.3117V29.2997V29.2877V29.2757V29.2636V29.2516V29.2395V29.2274V29.2152V29.2031V29.1909V29.1787V29.1665V29.1542V29.1419V29.1297V29.1173V29.105V29.0926V29.0803V29.0678V29.0554V29.043V29.0305V29.018V29.0055V28.9929V28.9804V28.9678V28.9552V28.9425V28.9299V28.9172V28.9045V28.8918V28.879V28.8663V28.8535V28.8407V28.8278V28.815V28.8021V28.7892V28.7763V28.7634V28.7504V28.7374V28.7244V28.7114V28.6983V28.6852V28.6721V28.659V28.6459V28.6327V28.6195V28.6063V28.5931V28.5798V28.5666V28.5533V28.5399V28.5266V28.5132V28.4999V28.4865V28.473V28.4596V28.4461V28.4326V28.4191V28.4056V28.392V28.3784V28.3649V28.3512V28.3376V28.3239V28.3102V28.2965V28.2828V28.2691V28.2553V28.2415V28.2277V28.2138V28.2V28.1861V28.1722V28.1583V28.1443V28.1304V28.1164V28.1024V28.0884V28.0743V28.0602V28.0462V28.032V28.0179V28.0038V27.9896V27.9754V27.9612V27.9469V27.9327V27.9184V27.9041V27.8898V27.8754V27.8611V27.8467V27.8323V27.8178V27.8034V27.7889V27.7744V27.7599V27.7454V27.7308V27.7163V27.7017V27.6871V27.6724V27.6578V27.6431V27.6284V27.6137V27.5989V27.5842V27.5694V27.5546V27.5398V27.5249V27.5101V27.4952V27.4803V27.4654V27.4504V27.4355V27.4205V27.4055V27.3904V27.3754V27.3603V27.3452V27.3301V27.315V27.2999V27.2847V27.2695V27.2543V27.2391V27.2238V27.2086V27.1933V27.178V27.1626V27.1473V27.1319V27.1165V27.1011V27.0857V27.0702V27.0548V27.0393V27.0238V27.0082V26.9927V26.9771V26.9615V26.9459V26.9303V26.9146V26.899V26.8833V26.8676V26.8519V26.8361V26.8203V26.8046V26.7887V26.7729V26.7571V26.7412V26.7253V26.7094V26.6935V26.6776V26.6616V26.6456V26.6296V26.6136V26.5975V26.5815V26.5654V26.5493V26.5332V26.517V26.5009V26.4847V26.4685V26.4523V26.4361V26.4198V26.4035V26.3872V26.3709V26.3546V26.3383V26.3219V26.3055V26.2891V26.2727V26.2562V26.25H26C25.3096 26.25 24.75 25.6904 24.75 25C24.75 24.3096 25.3096 23.75 26 23.75H26.7534C26.7871 22.5421 27.0731 21.4985 27.7848 20.7555Z" fill="#2C3033"/>
</svg>
