<svg width="52" height="52" viewBox="0 0 52 52" fill="none" xmlns="http://www.w3.org/2000/svg">
<circle cx="26" cy="26" r="26" fill="white"/>
<path fill-rule="evenodd" clip-rule="evenodd" d="M20 18.5H32C32.8284 18.5 33.5 19.1716 33.5 20V32C33.5 32.8284 32.8284 33.5 32 33.5H20C19.1716 33.5 18.5 32.8284 18.5 32V20C18.5 19.1716 19.1716 18.5 20 18.5ZM16 20C16 17.7909 17.7909 16 20 16H32C34.2091 16 36 17.7909 36 20V32C36 34.2091 34.2091 36 32 36H20C17.7909 36 16 34.2091 16 32V20ZM30 21C30 21.5523 30.4477 22 31 22C31.5523 22 32 21.5523 32 21C32 20.4477 31.5523 20 31 20C30.4477 20 30 20.4477 30 21ZM26 23.25C24.4812 23.25 23.25 24.4812 23.25 26C23.25 27.5188 24.4812 28.75 26 28.75C27.5188 28.75 28.75 27.5188 28.75 26C28.75 24.4812 27.5188 23.25 26 23.25ZM20.75 26C20.75 23.1005 23.1005 20.75 26 20.75C28.8995 20.75 31.25 23.1005 31.25 26C31.25 28.8995 28.8995 31.25 26 31.25C23.1005 31.25 20.75 28.8995 20.75 26Z" fill="#2C3033"/>
</svg>
