<svg width="52" height="52" viewBox="0 0 52 52" fill="none" xmlns="http://www.w3.org/2000/svg">
<circle cx="26" cy="26" r="26" fill="white"/>
<path d="M34.9969 19.8817C35.3122 20.1166 35.5 20.4877 35.5 20.884V20.8847C35.5 21.133 35.4261 21.3757 35.2876 21.5818C34.8748 22.1963 34.3811 22.7511 33.8205 23.2316C33.7406 28.2074 29.9255 33.955 22.9396 33.9556L34.9969 19.8817ZM34.9969 19.8817C35.1325 19.3996 34.9671 18.8809 34.5734 18.5666C34.1674 18.2424 33.6032 18.2032 33.1562 18.4681C32.7858 18.6876 32.3918 18.863 31.9823 18.9914C31.4542 18.589 30.8434 18.3029 30.1898 18.1559C29.2823 17.9518 28.3343 18.0255 27.4692 18.3674C26.6041 18.7093 25.8619 19.3035 25.3391 20.0729C24.9403 20.6596 24.6833 21.3275 24.584 22.0241C23.8887 21.8736 23.2136 21.6345 22.5757 21.3112C21.5299 20.7812 20.6076 20.0367 19.8687 19.1263C19.6101 18.8077 19.2117 18.6363 18.8026 18.6676C18.3934 18.699 18.0258 18.9292 17.8188 19.2835C17.4049 19.9919 17.1877 20.7981 17.1896 21.6186M34.9969 19.8817L22.9386 33.9556C20.8588 33.9572 18.8225 33.3595 17.0736 32.2339C16.5836 31.9186 16.3764 31.3066 16.5742 30.7585C16.772 30.2104 17.3223 29.8716 17.9007 29.9419C18.5147 30.0165 19.1359 29.9876 19.7389 29.8573C19.1233 29.3084 18.6632 28.6035 18.4093 27.8136C18.3424 27.6052 18.3323 27.387 18.3749 27.1796C18.3184 27.1177 18.2635 27.0542 18.2101 26.989C17.5324 26.1606 17.1623 25.1231 17.1628 24.0527C17.1628 24.0526 17.1628 24.0525 17.1628 24.0524V24.0094C17.1628 23.706 17.2728 23.4181 17.4648 23.1946C17.2868 22.7023 17.1898 22.1715 17.1896 21.6186M17.1896 21.6186C17.1896 21.618 17.1896 21.6175 17.1896 21.6169H18.4396L17.1896 21.6202C17.1896 21.6197 17.1896 21.6191 17.1896 21.6186Z" stroke="#2C3033" stroke-width="2.5" stroke-linecap="round" stroke-linejoin="round"/>
</svg>
