<svg width="52" height="52" viewBox="0 0 52 52" fill="none" xmlns="http://www.w3.org/2000/svg">
<circle cx="26" cy="26" r="26" fill="white"/>
<path d="M23.1499 26.9824C23.1499 26.6439 23.3299 26.282 23.7305 25.9796C24.1315 25.6769 24.7192 25.4677 25.3999 25.4677C25.8141 25.4677 26.1499 25.1319 26.1499 24.7177C26.1499 24.3035 25.8141 23.9677 25.3999 23.9677C24.4238 23.9677 23.5115 24.2655 22.8267 24.7824C22.1415 25.2997 21.6499 26.0701 21.6499 26.9824C21.6499 27.8947 22.1415 28.6651 22.8267 29.1824C23.5115 29.6993 24.4238 29.9971 25.3999 29.9971C26.3761 29.9971 27.2883 29.6993 27.9731 29.1824C28.6583 28.6651 29.1499 27.8947 29.1499 26.9824C29.1499 26.5682 28.8141 26.2324 28.3999 26.2324C27.9857 26.2324 27.6499 26.5682 27.6499 26.9824C27.6499 27.3209 27.47 27.6828 27.0694 27.9852C26.6684 28.2879 26.0806 28.4971 25.3999 28.4971C24.7192 28.4971 24.1315 28.2879 23.7305 27.9852C23.3299 27.6828 23.1499 27.3209 23.1499 26.9824Z" fill="#2C3033"/>
<path fill-rule="evenodd" clip-rule="evenodd" d="M26.6115 18.3755C25.677 17.4016 24.2502 17.5432 23.0158 18.0745C21.7316 18.6272 20.3506 19.7064 19.137 21.149C18.1473 22.3254 17.3927 23.5959 16.9293 24.7942C16.4805 25.9546 16.2752 27.1257 16.4786 28.0967C16.6619 29.8585 17.8247 31.3502 19.4422 32.3798C21.0802 33.4225 23.2496 34.0409 25.6036 34.0409C28.8863 34.0409 31.8486 32.8334 33.474 30.9119C34.3711 30.0232 35.023 28.9719 35.3366 27.9151C35.652 26.852 35.6388 25.7227 35.0949 24.7777C34.597 23.9128 33.7787 23.4117 32.8529 23.221C32.9087 22.3737 32.744 21.5523 32.2391 20.9C31.5571 20.0186 30.4877 19.7414 29.4029 19.8448C28.7452 19.9076 28.0473 20.1098 27.3445 20.4296C27.3373 19.6461 27.1302 18.916 26.6115 18.3755ZM20.2848 22.1147C21.3895 20.8015 22.5913 19.8902 23.6088 19.4523C24.6761 18.9929 25.2699 19.1438 25.5292 19.4141C25.8225 19.7197 25.9896 20.4363 25.6808 21.6228C25.6025 21.9238 25.7181 22.2419 25.9714 22.4224C26.2248 22.6029 26.5632 22.6083 26.8222 22.436C27.8232 21.7698 28.7789 21.4112 29.5453 21.3381C30.3078 21.2654 30.7871 21.4745 31.0529 21.818C31.3394 22.1882 31.4654 22.8221 31.2692 23.7221C31.2212 23.9423 31.2747 24.1723 31.4149 24.3487C31.5552 24.525 31.7672 24.629 31.9925 24.6318C32.8679 24.6428 33.481 24.9808 33.7949 25.526C34.0763 26.015 34.1344 26.6934 33.8985 27.4884C33.6638 28.2795 33.1514 29.1265 32.397 29.8674C32.3794 29.8846 32.3628 29.9026 32.347 29.9215C31.0842 31.4321 28.5845 32.5409 25.6036 32.5409C23.5 32.5409 21.6171 31.9861 20.2477 31.1144C18.8721 30.2388 18.0785 29.0924 17.9674 27.9098C17.9644 27.878 17.9594 27.8464 17.9524 27.8153C17.8245 27.2468 17.9232 26.3828 18.3283 25.3352C18.7262 24.3064 19.3908 23.1773 20.2848 22.1147Z" fill="#2C3033"/>
<path d="M23.1499 26.9824C23.1499 26.6439 23.3299 26.282 23.7305 25.9796C24.1315 25.6769 24.7192 25.4677 25.3999 25.4677C25.8141 25.4677 26.1499 25.1319 26.1499 24.7177C26.1499 24.3035 25.8141 23.9677 25.3999 23.9677C24.4238 23.9677 23.5115 24.2655 22.8267 24.7824C22.1415 25.2997 21.6499 26.0701 21.6499 26.9824C21.6499 27.8947 22.1415 28.6651 22.8267 29.1824C23.5115 29.6993 24.4238 29.9971 25.3999 29.9971C26.3761 29.9971 27.2883 29.6993 27.9731 29.1824C28.6583 28.6651 29.1499 27.8947 29.1499 26.9824C29.1499 26.5682 28.8141 26.2324 28.3999 26.2324C27.9857 26.2324 27.6499 26.5682 27.6499 26.9824C27.6499 27.3209 27.47 27.6828 27.0694 27.9852C26.6684 28.2879 26.0806 28.4971 25.3999 28.4971C24.7192 28.4971 24.1315 28.2879 23.7305 27.9852C23.3299 27.6828 23.1499 27.3209 23.1499 26.9824Z" stroke="#2C3033" stroke-linecap="round" stroke-linejoin="round"/>
<path fill-rule="evenodd" clip-rule="evenodd" d="M26.6115 18.3755C25.677 17.4016 24.2502 17.5432 23.0158 18.0745C21.7316 18.6272 20.3506 19.7064 19.137 21.149C18.1473 22.3254 17.3927 23.5959 16.9293 24.7942C16.4805 25.9546 16.2752 27.1257 16.4786 28.0967C16.6619 29.8585 17.8247 31.3502 19.4422 32.3798C21.0802 33.4225 23.2496 34.0409 25.6036 34.0409C28.8863 34.0409 31.8486 32.8334 33.474 30.9119C34.3711 30.0232 35.023 28.9719 35.3366 27.9151C35.652 26.852 35.6388 25.7227 35.0949 24.7777C34.597 23.9128 33.7787 23.4117 32.8529 23.221C32.9087 22.3737 32.744 21.5523 32.2391 20.9C31.5571 20.0186 30.4877 19.7414 29.4029 19.8448C28.7452 19.9076 28.0473 20.1098 27.3445 20.4296C27.3373 19.6461 27.1302 18.916 26.6115 18.3755ZM20.2848 22.1147C21.3895 20.8015 22.5913 19.8902 23.6088 19.4523C24.6761 18.9929 25.2699 19.1438 25.5292 19.4141C25.8225 19.7197 25.9896 20.4363 25.6808 21.6228C25.6025 21.9238 25.7181 22.2419 25.9714 22.4224C26.2248 22.6029 26.5632 22.6083 26.8222 22.436C27.8232 21.7698 28.7789 21.4112 29.5453 21.3381C30.3078 21.2654 30.7871 21.4745 31.0529 21.818C31.3394 22.1882 31.4654 22.8221 31.2692 23.7221C31.2212 23.9423 31.2747 24.1723 31.4149 24.3487C31.5552 24.525 31.7672 24.629 31.9925 24.6318C32.8679 24.6428 33.481 24.9808 33.7949 25.526C34.0763 26.015 34.1344 26.6934 33.8985 27.4884C33.6638 28.2795 33.1514 29.1265 32.397 29.8674C32.3794 29.8846 32.3628 29.9026 32.347 29.9215C31.0842 31.4321 28.5845 32.5409 25.6036 32.5409C23.5 32.5409 21.6171 31.9861 20.2477 31.1144C18.8721 30.2388 18.0785 29.0924 17.9674 27.9098C17.9644 27.878 17.9594 27.8464 17.9524 27.8153C17.8245 27.2468 17.9232 26.3828 18.3283 25.3352C18.7262 24.3064 19.3908 23.1773 20.2848 22.1147Z" stroke="#2C3033" stroke-linecap="round" stroke-linejoin="round"/>
</svg>
